<?xml version="1.0" standalone="no"?>
<!DOCTYPE svg PUBLIC "-//W3C//DTD SVG 20010904//EN"
 "http://www.w3.org/TR/2001/REC-SVG-20010904/DTD/svg10.dtd">
<svg version="1.0" xmlns="http://www.w3.org/2000/svg"
 width="512.000000pt" height="512.000000pt" viewBox="0 0 512.000000 512.000000"
 preserveAspectRatio="xMidYMid meet">

<g transform="translate(0.000000,512.000000) scale(0.100000,-0.100000)"
fill="#000000" stroke="none">
<path d="M1440 4707 c-49 -16 -133 -102 -148 -153 -9 -30 -12 -186 -12 -578
l0 -536 -336 0 c-235 0 -349 -4 -378 -12 -55 -16 -138 -99 -154 -154 -17 -60
-17 -2648 0 -2708 16 -55 99 -138 154 -154 32 -9 491 -12 1996 -12 2205 0
2013 -7 2091 80 24 26 49 66 55 88 17 56 17 1368 0 1424 -6 22 -31 62 -55 88
-70 78 -81 80 -475 80 l-338 0 0 1176 c0 880 -3 1187 -12 1216 -6 22 -31 62
-55 88 -77 86 8 80 -1217 79 -758 -1 -1091 -4 -1116 -12z m710 -227 l-40 -80
-335 0 -335 0 0 55 c0 46 4 60 25 80 l24 25 351 0 350 0 -40 -80z m1505 55
l25 -24 0 -696 0 -695 -360 0 -360 0 0 56 c0 81 -18 129 -67 184 -75 83 -44
80 -795 80 l-658 0 0 400 0 400 371 0 c238 0 377 4 390 10 11 6 53 78 94 160
l75 150 631 0 630 0 24 -25z m-880 -1280 c25 -24 25 -24 25 -240 l0 -215
-1120 0 -1120 0 0 215 c0 216 0 216 25 240 l24 25 1071 0 1071 0 24 -25z m905
-695 l0 -400 -360 0 -360 0 0 400 0 400 360 0 360 0 0 -400z m-880 -160 l0
-240 -56 0 c-31 0 -75 -5 -98 -12 -55 -16 -138 -99 -154 -154 -9 -30 -12 -186
-12 -578 l0 -536 -855 0 -856 0 -24 -25 c-33 -32 -33 -78 0 -110 l24 -25 856
0 855 0 0 -57 c0 -32 3 -68 6 -80 l6 -23 -941 0 -942 0 -24 25 -25 24 0 1016
0 1015 1120 0 1120 0 0 -240z m1735 -425 l25 -24 0 -671 0 -671 -25 -24 -24
-25 -911 0 -911 0 -24 25 -25 24 0 671 0 671 25 24 24 25 911 0 911 0 24 -25z"/>
<path d="M3385 4055 c-25 -24 -25 -26 -25 -215 0 -189 0 -191 25 -215 15 -16
36 -25 55 -25 19 0 40 9 55 25 25 24 25 26 25 215 0 189 0 191 -25 215 -15 16
-36 25 -55 25 -19 0 -40 -9 -55 -25z"/>
<path d="M745 3095 c-16 -15 -25 -36 -25 -55 0 -19 9 -40 25 -55 23 -24 31
-25 135 -25 104 0 112 1 135 25 16 15 25 36 25 55 0 19 -9 40 -25 55 -23 24
-31 25 -135 25 -104 0 -112 -1 -135 -25z"/>
<path d="M1225 3095 c-16 -15 -25 -36 -25 -55 0 -19 9 -40 25 -55 l24 -25 431
0 431 0 24 25 c16 15 25 36 25 55 0 19 -9 40 -25 55 l-24 25 -431 0 -431 0
-24 -25z"/>
<path d="M2345 3095 c-16 -15 -25 -36 -25 -55 0 -19 9 -40 25 -55 23 -24 31
-25 135 -25 104 0 112 1 135 25 16 15 25 36 25 55 0 19 -9 40 -25 55 -23 24
-31 25 -135 25 -104 0 -112 -1 -135 -25z"/>
<path d="M3385 2775 c-25 -24 -25 -26 -25 -215 0 -189 0 -191 25 -215 15 -16
36 -25 55 -25 19 0 40 9 55 25 25 24 25 26 25 215 0 189 0 191 -25 215 -15 16
-36 25 -55 25 -19 0 -40 -9 -55 -25z"/>
<path d="M1542 2305 c-286 -62 -502 -331 -502 -625 0 -349 291 -640 640 -640
237 0 468 143 569 352 94 194 94 382 0 576 -124 256 -423 398 -707 337z m240
-156 c179 -37 332 -190 369 -367 16 -77 6 -203 -21 -274 -79 -209 -314 -340
-535 -299 -74 14 -166 58 -223 107 l-44 37 47 22 c58 29 91 59 118 110 20 36
22 55 22 195 0 140 -2 159 -22 195 -27 51 -60 81 -118 110 l-47 22 44 37 c111
96 266 135 410 105z m-442 -337 c17 -21 20 -40 20 -139 0 -106 -2 -116 -23
-137 -20 -20 -93 -44 -103 -34 -2 2 -11 33 -20 69 -19 73 -14 195 10 253 14
34 14 34 55 24 23 -6 50 -22 61 -36z"/>
<path d="M2825 1815 l-25 -24 0 -511 0 -511 25 -24 24 -25 511 0 511 0 24 25
25 24 0 511 0 511 -25 24 -24 25 -511 0 -511 0 -24 -25z m935 -535 l0 -400
-400 0 -400 0 0 400 0 400 400 0 400 0 0 -400z"/>
<path d="M4105 1655 c-16 -15 -25 -36 -25 -55 0 -19 9 -40 25 -55 23 -24 31
-25 135 -25 104 0 112 1 135 25 16 15 25 36 25 55 0 19 -9 40 -25 55 -23 24
-31 25 -135 25 -104 0 -112 -1 -135 -25z"/>
<path d="M4105 1335 c-16 -15 -25 -36 -25 -55 0 -19 9 -40 25 -55 23 -24 31
-25 135 -25 104 0 112 1 135 25 16 15 25 36 25 55 0 19 -9 40 -25 55 -23 24
-31 25 -135 25 -104 0 -112 -1 -135 -25z"/>
<path d="M4105 1015 c-16 -15 -25 -36 -25 -55 0 -19 9 -40 25 -55 23 -24 31
-25 135 -25 104 0 112 1 135 25 16 15 25 36 25 55 0 19 -9 40 -25 55 -23 24
-31 25 -135 25 -104 0 -112 -1 -135 -25z"/>
</g>
</svg>
