<?xml version="1.0" encoding="UTF-8"?>
<svg version="1.1" xmlns="http://www.w3.org/2000/svg" width="512" height="512">
<path d="M0 0 C1.09900635 0.00563965 2.1980127 0.0112793 3.33032227 0.01708984 C11.84052503 0.14372417 19.53393597 0.9599221 27.75 3.3125 C28.41950684 3.49522461 29.08901367 3.67794922 29.77880859 3.86621094 C47.6240756 8.82752918 64.54841436 17.39370402 78.75 29.3125 C79.63558594 30.00214844 80.52117187 30.69179688 81.43359375 31.40234375 C85.16891589 34.43838562 87.40938652 36.32472091 89 40.9375 C88.64810189 45.68812454 87.23540125 48.66205417 84.0625 52.1875 C80.21209458 54.06067021 75.97355592 53.8913596 71.859375 52.8203125 C53.3198812 48.35710103 33.97307181 59.70589036 18.64428711 68.88256836 C15.2911724 70.94568053 12.01143316 73.10791596 8.75 75.3125 C8.06437988 75.77092285 7.37875977 76.2293457 6.67236328 76.70166016 C4.64929573 78.07814599 2.66538716 79.49704383 0.6875 80.9375 C0.07310059 81.35620361 -0.54129883 81.77490723 -1.17431641 82.20629883 C-3.1147258 83.58393517 -3.1147258 83.58393517 -5.25 86.3125 C-5.24099619 89.66950972 -5.24099619 89.66950972 -4.69018555 91.97460938 C-3.80704209 96.66511504 -4.10725793 101.49216847 -4.125 106.25 C-4.12113281 107.28318359 -4.11726562 108.31636719 -4.11328125 109.38085938 C-4.11521484 110.90743164 -4.11521484 110.90743164 -4.1171875 112.46484375 C-4.11501221 113.46386719 -4.11283691 114.46289062 -4.1105957 115.4921875 C-4.24143084 118.13913585 -4.75586606 120.31876486 -5.41015625 122.87109375 C-5.82191553 126.17896792 -5.3491791 127.17080624 -3.3984375 129.95776367 C-0.6521617 132.93592528 2.21099462 135.6944919 5.1875 138.4375 C6.18647315 139.3948155 7.18324184 140.35443697 8.17773438 141.31640625 C12.28169433 145.26020981 16.46646187 149.09985021 20.78515625 152.80859375 C26.03782114 157.34735009 30.86649595 162.3221309 35.75 167.25 C36.72502386 168.2300531 37.7002828 169.2098724 38.67578125 170.18945312 C41.03616618 172.56152313 43.39416905 174.9359086 45.75 177.3125 C50.40372944 173.90887436 54.85083434 170.44966469 59.0625 166.5 C63.49160324 162.41720525 68.0483513 158.57525931 72.734375 154.79296875 C76.29670222 151.86281618 79.77470796 148.84487122 83.25 145.8125 C88.3821192 141.33697884 93.58186004 136.97242282 98.875 132.6875 C102.38547639 129.78754125 105.81832727 126.80491862 109.25 123.8125 C114.38227656 119.33715484 119.58185274 114.97242874 124.875 110.6875 C128.38547639 107.78754125 131.81832727 104.80491862 135.25 101.8125 C140.38227656 97.33715484 145.58185274 92.97242874 150.875 88.6875 C154.38547868 85.78753935 157.81827142 82.80485748 161.25 79.8125 C166.41959892 75.30610194 171.64568995 70.8930444 176.98046875 66.58203125 C179.06767129 64.87164384 181.1281361 63.14338574 183.17578125 61.38671875 C183.75956543 60.88672363 184.34334961 60.38672852 184.94482422 59.87158203 C186.07833072 58.89814482 187.20902798 57.92142355 188.33642578 56.94091797 C192.51123665 53.35971913 195.49190497 50.84481246 201.125 51.25 C202.21941406 51.29447266 202.21941406 51.29447266 203.3359375 51.33984375 C209.62602506 53.87419942 213.13723841 61.27863813 216.3125 66.9375 C217.18402596 68.45307397 218.05783056 69.96733928 218.93359375 71.48046875 C219.61977783 72.66648682 219.61977783 72.66648682 220.31982422 73.87646484 C222.76711384 78.04496192 225.32066452 82.14651819 227.875 86.25 C228.68541748 87.55372559 228.68541748 87.55372559 229.51220703 88.88378906 C230.65425985 90.72099009 231.79651846 92.55806321 232.93896484 94.39501953 C241.58726119 108.32696094 250.15455986 122.30966969 258.6875 136.3125 C259.58359985 137.78178955 259.58359985 137.78178955 260.49780273 139.28076172 C261.04380127 140.17811035 261.5897998 141.07545898 262.15234375 142 C262.63179443 142.78761719 263.11124512 143.57523438 263.60522461 144.38671875 C266.1454186 148.65992204 266.53272203 152.38645589 265.75 157.3125 C263.56840855 160.06819447 261.87822506 161.74838747 258.75 163.3125 C256.49879258 163.39823394 254.24500697 163.41962188 251.9921875 163.41015625 C250.99761032 163.40803383 250.99761032 163.40803383 249.98294067 163.40586853 C247.86358137 163.40026754 245.74432741 163.387715 243.625 163.375 C242.18880361 163.36998512 240.75260556 163.36542219 239.31640625 163.36132812 C235.79423655 163.35029782 232.27212855 163.33303259 228.75 163.3125 C228.78927612 164.63640747 228.78927612 164.63640747 228.8293457 165.98706055 C228.91480275 169.2766158 228.97735745 172.56498422 229.0246582 175.85522461 C229.04973147 177.27631291 229.08379999 178.69727313 229.12719727 180.11791992 C229.18817858 182.16617462 229.21627762 184.21271883 229.23828125 186.26171875 C229.26446533 187.49237061 229.29064941 188.72302246 229.31762695 189.9909668 C228.59514806 194.21863361 227.01907893 195.63897361 223.75 198.3125 C220.8280231 199.77348845 218.25106525 199.42384901 214.9921875 199.41015625 C213.99761032 199.40803383 213.99761032 199.40803383 212.98294067 199.40586853 C210.86358137 199.40026754 208.74432741 199.387715 206.625 199.375 C205.18880361 199.36998512 203.75260556 199.36542219 202.31640625 199.36132812 C198.79423655 199.35029782 195.27212855 199.33303259 191.75 199.3125 C191.77094727 200.19510498 191.79189453 201.07770996 191.81347656 201.98706055 C191.88184095 205.27655569 191.93188949 208.56529094 191.96972656 211.85522461 C191.98978421 213.27624457 192.01703778 214.69718259 192.05175781 216.11791992 C192.10054011 218.16605895 192.12302539 220.21310275 192.140625 222.26171875 C192.16157227 223.49237061 192.18251953 224.72302246 192.20410156 225.9909668 C191.66705347 229.9192137 190.50963324 231.52496252 187.75 234.3125 C184.77640551 235.79929725 182.08700821 235.42362605 178.7734375 235.41015625 C178.08819 235.4087413 177.4029425 235.40732635 176.69692993 235.40586853 C174.50624239 235.40026675 172.3156567 235.38771406 170.125 235.375 C168.64062648 235.36998522 167.15625135 235.36542228 165.671875 235.36132812 C162.03121685 235.35029677 158.39061836 235.33303099 154.75 235.3125 C154.77094727 236.19510498 154.79189453 237.07770996 154.81347656 237.98706055 C154.88184095 241.27655569 154.93188949 244.56529094 154.96972656 247.85522461 C154.98978421 249.27624457 155.01703778 250.69718259 155.05175781 252.11791992 C155.10054011 254.16605895 155.12302539 256.21310275 155.140625 258.26171875 C155.16157227 259.49237061 155.18251953 260.72302246 155.20410156 261.9909668 C154.64904644 266.05092646 153.73813312 267.53024695 150.75 270.3125 C148.4493066 271.53998461 146.21159141 272.41307237 143.75 273.3125 C144.74918457 274.20340332 144.74918457 274.20340332 145.76855469 275.11230469 C155.17330364 283.60599824 164.08172838 292.56322332 173 301.5625 C175.98137851 304.57070325 178.96622562 307.57540455 181.953125 310.578125 C182.61789856 311.2511969 183.28267212 311.9242688 183.96759033 312.61773682 C187.84570178 316.51582158 191.83464065 320.21911566 196.00479126 323.80368042 C207.04832593 333.35136429 215.22428532 342.76773488 217.03125 357.625 C217.45886999 367.60279974 214.09666367 376.69938191 207.75 384.3125 C200.91134913 391.73942191 192.53122327 395.47684046 182.53125 396.55078125 C172.43743508 396.87917591 162.86606546 394.1636525 155.12890625 387.56640625 C151.55455722 384.17987195 148.04771369 380.72795324 144.6171875 377.19555664 C141.86283886 374.36484214 139.05700378 371.67931096 136.05297852 369.11328125 C131.70736902 365.33021373 127.64223619 361.31528529 123.59375 357.21875 C122.47389709 356.09321716 122.47389709 356.09321716 121.3314209 354.94494629 C118.17298888 351.77033496 115.02060721 348.58974084 111.86767578 345.40966797 C109.54930255 343.07309639 107.2278448 340.73962001 104.90625 338.40625 C104.20705444 337.6987561 103.50785889 336.99126221 102.78747559 336.2623291 C98.82514114 332.28058421 94.75333553 328.50321495 90.49841309 324.83605957 C88.49832933 323.09319527 86.60623824 321.26990987 84.75 319.375 C84.1725 318.78847656 83.595 318.20195312 83 317.59765625 C82.38125 316.96150391 82.38125 316.96150391 81.75 316.3125 C81.73541748 316.89217529 81.72083496 317.47185059 81.70581055 318.0690918 C81.63101472 320.71337553 81.53446102 323.35644002 81.4375 326 C81.41494141 326.91201172 81.39238281 327.82402344 81.36914062 328.76367188 C81.1296091 334.75196004 80.55413273 338.61358878 76.07788086 342.921875 C72.87787868 344.83348616 70.50722877 344.65263426 66.796875 344.60546875 C66.13665344 344.60122391 65.47643188 344.59697906 64.79620361 344.59260559 C62.69704609 344.57587435 60.59886504 344.53823551 58.5 344.5 C57.07293058 344.48494584 55.64584604 344.47125871 54.21875 344.45898438 C50.72885183 344.42599001 47.2395213 344.37424743 43.75 344.3125 C43.7814209 345.52981812 43.7814209 345.52981812 43.81347656 346.77172852 C43.89697084 350.47269142 43.94876755 354.17345566 44 357.875 C44.05027344 359.79022461 44.05027344 359.79022461 44.1015625 361.74414062 C44.19096469 370.34910147 43.5882547 374.85517197 37.93359375 381.421875 C37.35738281 381.96328125 36.78117187 382.5046875 36.1875 383.0625 C35.60871094 383.61421875 35.02992188 384.1659375 34.43359375 384.734375 C33.87800781 385.25515625 33.32242187 385.7759375 32.75 386.3125 C31.74657733 387.30906557 30.74545117 388.30797177 29.75 389.3125 C30.224375 390.364375 30.69875 391.41625 31.1875 392.5 C36.46948284 404.21222282 33.78679039 417.61962855 29.75 429.3125 C20.07770724 452.89184581 0.46966815 476.36326014 -21.5625 489.25 C-29.41333664 491.51210547 -37.72543215 491.51399304 -45.0703125 487.70703125 C-49.42281129 484.92236805 -53.33040576 481.66762193 -57.25 478.3125 C-57.96414062 477.74402344 -58.67828125 477.17554688 -59.4140625 476.58984375 C-66.43725933 470.85468495 -72.80016906 463.49476263 -74.25 454.3125 C-75.00802318 445.24429681 -73.47475093 437.37626373 -69.25 429.3125 C-70.12196014 428.92900642 -70.12196014 428.92900642 -71.01153564 428.5377655 C-73.47472265 427.18949384 -75.09324446 425.70334403 -77.06542969 423.70825195 C-77.8000946 422.97020828 -78.53475952 422.23216461 -79.29168701 421.47175598 C-80.07714905 420.67283432 -80.86261108 419.87391266 -81.671875 419.05078125 C-82.49069153 418.22676315 -83.30950806 417.40274506 -84.15313721 416.55375671 C-86.77354537 413.91553526 -89.38719688 411.27075176 -92 408.625 C-94.59933098 405.99792931 -97.20014188 403.37236951 -99.80401611 400.74980164 C-101.42302512 399.11867276 -103.03935517 397.48487885 -104.65252686 395.84797668 C-112.96775756 386.71617829 -112.96775756 386.71617829 -123.25 380.3125 C-126.74705129 381.59682339 -126.74705129 381.59682339 -130.25 383.3125 C-139.24663009 385.98717381 -148.32377693 384.48501871 -156.4609375 380.12890625 C-167.52702333 373.27569871 -178.75614643 361.95153394 -182.8125 349.30078125 C-184.50965048 341.58783843 -182.93435215 335.21248494 -179.25 328.3125 C-172.24411742 317.54957677 -162.29413992 309.13029553 -152.25 301.3125 C-151.41057861 300.65048584 -151.41057861 300.65048584 -150.55419922 299.97509766 C-134.4266048 287.33095727 -116.82866443 277.51383469 -95.7265625 277.87109375 C-91.87651889 278.35991951 -88.69155958 279.51904419 -85.0625 280.875 C-80.16144335 282.44836662 -80.16144335 282.44836662 -75.41796875 280.99609375 C-73.030723 279.04225719 -70.84762392 277.00289677 -68.70996094 274.78027344 C-66.09322025 272.14953013 -63.21375331 269.82273617 -60.375 267.4375 C-59.17969021 266.41166835 -57.98568107 265.38431927 -56.79296875 264.35546875 C-51.84129613 260.09629992 -46.84933683 255.88497138 -41.85888672 251.67138672 C-38.61927503 248.93516841 -35.38283293 246.19519894 -32.14672852 243.45483398 C-29.31743255 241.05949229 -26.48514716 238.66780939 -23.6484375 236.28125 C-23.05869141 235.78431641 -22.46894531 235.28738281 -21.86132812 234.77539062 C-20.73336099 233.82505611 -19.60450413 232.87577625 -18.47460938 231.92773438 C-15.96242996 229.80937322 -13.55293521 227.65509734 -11.25 225.3125 C-14.41239582 222.12073908 -17.58068759 218.9348919 -20.75 215.75 C-21.636875 214.85474609 -22.52375 213.95949219 -23.4375 213.03710938 C-27.31145822 209.14890866 -31.16347294 205.32119917 -35.3671875 201.7890625 C-38.38671611 199.21637849 -40.88532419 196.45833974 -43.4140625 193.40234375 C-50.89397188 184.00880265 -50.89397188 184.00880265 -61.19335938 178.63964844 C-66.94406874 178.41760612 -72.41601499 179.36095476 -77.96435547 180.82739258 C-80.25 181.3125 -80.25 181.3125 -82.87182617 181.2121582 C-85.60610027 181.05736253 -85.60610027 181.05736253 -87.93359375 184.0234375 C-88.86931405 185.23124549 -89.78647445 186.45359337 -90.6875 187.6875 C-91.40764282 188.64064087 -91.40764282 188.64064087 -92.14233398 189.61303711 C-100.62757746 200.13283183 -100.62757746 200.13283183 -104.125 212.5625 C-103.3436068 215.01830719 -102.38631167 217.07334679 -101.25 219.375 C-97.41132536 227.86789187 -97.54670733 236.56804554 -100.1171875 245.42578125 C-103.7344522 254.64356957 -110.50103782 262.08110645 -119.4609375 266.37109375 C-129.95104324 270.44624635 -140.42458587 270.79518326 -150.8984375 266.43359375 C-163.20784926 260.56515326 -172.88883309 248.78799087 -182.375 239.1875 C-184.62454956 236.91100973 -186.87764379 234.63810992 -189.1328125 232.3671875 C-189.62886993 231.86283173 -190.12492737 231.35847595 -190.63601685 230.83883667 C-193.36200647 228.09438217 -196.16145262 225.49030205 -199.08862305 222.96069336 C-206.17318441 216.82336144 -212.73836864 210.12667019 -219.38696289 203.52563477 C-221.08735601 201.84184355 -222.79310263 200.16344151 -224.50415039 198.49047852 C-226.99823016 196.05143457 -229.47520768 193.59609784 -231.94921875 191.13671875 C-232.70764572 190.40096115 -233.46607269 189.66520355 -234.2474823 188.90715027 C-242.95057711 180.16934341 -246.56274977 171.3065489 -246.6394043 159.0769043 C-246.4894657 150.77591781 -243.94929033 143.64577157 -239 136.9375 C-229.99948869 128.34610284 -220.00871751 123.97223039 -207.54296875 124.16015625 C-202.16910911 124.51719292 -197.9175859 125.86740904 -193.3125 128.625 C-190.14969163 130.25860588 -188.4233725 130.52392763 -185 129.5 C-179.07640269 127.02674545 -173.65271524 123.75183969 -168.25 120.3125 C-167.22519531 119.78011719 -166.20039063 119.24773437 -165.14453125 118.69921875 C-160.88547045 116.07176645 -157.91192769 113.7787374 -156.56787109 108.77099609 C-155.6910206 103.59228762 -155.26968652 98.39151981 -154.83984375 93.16015625 C-154.24214789 86.16255124 -152.39267741 80.61586443 -149.25 74.3125 C-148.83105469 73.38953125 -148.41210938 72.4665625 -147.98046875 71.515625 C-140.03588337 55.30592341 -124.8179845 42.91021649 -108.25 36.3125 C-98.21385402 32.88400293 -87.80601482 30.74890345 -77.16015625 31.54296875 C-73.37966009 31.24357375 -72.36330226 30.06651729 -69.75 27.375 C-51.17722021 9.63883191 -25.52009914 -0.13817054 0 0 Z M-65.25 52.3125 C-67.39794922 52.58374023 -67.39794922 52.58374023 -70.0546875 52.62109375 C-71.0250293 52.64389404 -71.99537109 52.66669434 -72.99511719 52.69018555 C-74.54440918 52.7197937 -74.54440918 52.7197937 -76.125 52.75 C-96.02543667 53.40610877 -109.42049802 58.79121428 -123.25390625 73.43359375 C-130.07601968 81.46394325 -134.18575504 92.09590439 -134.53125 102.62890625 C-134.56863281 103.64017578 -134.60601562 104.65144531 -134.64453125 105.69335938 C-134.7149731 107.81835509 -134.78528512 109.94335511 -134.85546875 112.06835938 C-134.89285156 113.07833984 -134.93023437 114.08832031 -134.96875 115.12890625 C-134.99904297 116.05131104 -135.02933594 116.97371582 -135.06054688 117.92407227 C-135.25 120.3125 -135.25 120.3125 -136.25 123.3125 C-137.57102632 124.00323272 -138.9068316 124.66587734 -140.25 125.3125 C-141.71911429 126.6109172 -143.15317386 127.94942118 -144.5625 129.3125 C-152.29356237 136.42231629 -161.22585297 141.98395604 -170.25 147.3125 C-165.85514612 152.56989529 -161.23296044 157.48229934 -156.375 162.3125 C-155.70597656 162.98539063 -155.03695312 163.65828125 -154.34765625 164.3515625 C-151.08860297 167.60433629 -147.78979372 170.7527594 -144.296875 173.75390625 C-138.91564465 178.39444313 -134.02919964 183.52132027 -129.078125 188.61132812 C-128.35367188 189.34673828 -127.62921875 190.08214844 -126.8828125 190.83984375 C-126.23199707 191.50749756 -125.58118164 192.17515137 -124.91064453 192.86303711 C-123.36624509 194.53169294 -123.36624509 194.53169294 -121.25 194.3125 C-119.79253702 192.21399521 -118.44849567 190.11844417 -117.125 187.9375 C-111.77051499 179.37270761 -105.92729761 171.58427635 -98.5 164.6875 C-97.02577574 163.37556307 -97.02577574 163.37556307 -97.25 161.3125 C-94.4086684 160.36538947 -92.52005547 160.16409484 -89.56640625 160.1015625 C-70.65303377 159.56925711 -54.56186988 157.15118329 -40.2421875 143.4609375 C-29.80450596 132.20461427 -24.9398071 118.86382071 -25.015625 103.60546875 C-25.34198792 99.02006973 -26.45199138 94.74323557 -27.57421875 90.296875 C-28.82209837 84.78600778 -29.21742769 79.35712707 -26.25 74.3125 C-25.66089844 74.01859375 -25.07179687 73.7246875 -24.46484375 73.421875 C-21.79456724 72.08438201 -19.83093575 70.3818735 -17.5625 68.4375 C0.68485399 53.3446088 21.06619943 40.53641803 43.75 33.3125 C10.47834259 5.70934718 -38.89447068 25.95697068 -65.25 52.3125 Z M190 84.125 C188.62292916 85.32743397 187.24531588 86.52924699 185.8671875 87.73046875 C185.17334961 88.33552246 184.47951172 88.94057617 183.76464844 89.56396484 C180.90496896 92.04591157 178.0193911 94.49619449 175.125 96.9375 C174.59745117 97.38262939 174.06990234 97.82775879 173.52636719 98.28637695 C172.46538056 99.18107745 171.40418397 100.07552901 170.34277344 100.96972656 C167.64185188 103.24671439 164.94622756 105.52995794 162.25 107.8125 C161.16669135 108.72919584 160.08335804 109.64586253 159 110.5625 C158.46375 111.01625 157.9275 111.47 157.375 111.9375 C48.5 204.0625 48.5 204.0625 46.87524414 205.43725586 C45.79104762 206.35467797 44.70690055 207.27215852 43.62280273 208.18969727 C40.92807689 210.47028544 38.23252188 212.74987815 35.53515625 215.02734375 C34.46086274 215.93480733 33.38664413 216.8423596 32.3125 217.75 C31.78027832 218.19972168 31.24805664 218.64944336 30.69970703 219.11279297 C27.25818184 222.02501179 23.83346344 224.95606308 20.41601562 227.89648438 C15.75818074 231.90415256 11.08696364 235.88091613 6.3125 239.75 C1.20692535 243.89310991 -3.74800053 248.1948045 -8.70288086 252.51538086 C-13.18750851 256.41671641 -17.7548167 260.19735162 -22.375 263.9375 C-25.88548098 266.83746255 -29.31821555 269.8202037 -32.75 272.8125 C-38.82054201 278.10250019 -44.98819523 283.24956802 -51.25 288.3125 C-53.31461398 289.99742996 -55.3759256 291.68634734 -57.4375 293.375 C-59.04166667 294.6875 -60.64583333 296 -62.25 297.3125 C-56.9494597 303.80141767 -51.05716523 309.65730119 -45.12841797 315.56445312 C-43.38263921 317.30488419 -41.64225463 319.05058003 -39.90234375 320.796875 C-38.77115368 321.92740396 -37.63965329 323.05762252 -36.5078125 324.1875 C-35.99920685 324.69812988 -35.4906012 325.20875977 -34.96658325 325.73486328 C-32.19025336 328.4937102 -29.34513243 331.11926471 -26.37744141 333.671875 C-22.00565379 337.46134271 -17.98259911 341.54000496 -13.953125 345.6875 C-12.40293548 347.26490466 -10.85213687 348.84171092 -9.30078125 350.41796875 C-6.8830934 352.8791562 -4.46951424 355.34389085 -2.06591797 357.81884766 C0.27291393 360.22392201 2.62704799 362.6130699 4.984375 365 C5.7042157 365.74878418 6.4240564 366.49756836 7.16571045 367.26904297 C7.84031311 367.94725098 8.51491577 368.62545898 9.20996094 369.32421875 C9.79872009 369.92709717 10.38747925 370.52997559 10.99407959 371.15112305 C12.68683823 372.53292491 12.68683823 372.53292491 14.80172729 372.13027954 C17.98594385 370.7937176 19.62345122 369.01187792 21.75 366.3125 C22.47786903 362.76396843 22.47786903 362.76396843 22.3515625 358.8515625 C22.36357193 357.78837296 22.36357193 357.78837296 22.37582397 356.70370483 C22.39881104 354.44771557 22.38947414 352.19353598 22.375 349.9375 C22.37113484 347.68894335 22.37474846 345.44118717 22.39559937 343.19271851 C22.41313204 341.14759707 22.40575024 339.10230665 22.39697266 337.05712891 C22.80636764 332.71459763 23.71508146 330.1492128 25.75 326.3125 C29.43068393 323.85871071 31.43053719 324.00603786 35.82421875 323.8984375 C36.5080513 323.87907135 37.19188385 323.8597052 37.8964386 323.8397522 C40.07666625 323.78006003 42.25694702 323.73361369 44.4375 323.6875 C45.9173405 323.64931057 47.397159 323.61025826 48.87695312 323.5703125 C52.5011005 323.47436798 56.12541257 323.39029849 59.75 323.3125 C59.75410889 322.42989502 59.75821777 321.54729004 59.76245117 320.63793945 C59.78949984 317.3477396 59.83864951 314.05938602 59.90258789 310.76977539 C59.92571503 309.34899298 59.94015126 307.92804042 59.94555664 306.50708008 C59.95488661 304.45807534 59.99595166 302.4117265 60.04296875 300.36328125 C60.0586792 299.13262939 60.07438965 297.90197754 60.09057617 296.6340332 C60.94525716 292.32898513 62.209729 290.87147441 65.75 288.3125 C69.16333008 287.65307617 69.16333008 287.65307617 73.01953125 287.60546875 C73.70053391 287.59034744 74.38153656 287.57522614 75.08317566 287.55964661 C77.24329063 287.51689922 79.40200493 287.50794565 81.5625 287.5 C83.03324002 287.47684511 84.50394698 287.45147769 85.97460938 287.42382812 C89.56637971 287.3611084 93.15768404 287.32866875 96.75 287.3125 C96.76401855 285.98859253 96.76401855 285.98859253 96.77832031 284.63793945 C96.82246114 281.34793328 96.88412676 278.05920926 96.95751953 274.76977539 C96.98566014 273.34899808 97.00690908 271.92806622 97.02099609 270.50708008 C97.04252394 268.45834641 97.08921514 266.411457 97.140625 264.36328125 C97.16157227 263.13262939 97.18251953 261.90197754 97.20410156 260.6340332 C97.84782022 256.71731035 98.90298255 255.04356276 101.75 252.3125 C105.04936075 250.8931804 108.7096799 251.10923746 112.265625 250.99609375 C114.14121094 250.93325195 114.14121094 250.93325195 116.0546875 250.86914062 C117.35664063 250.82982422 118.65859375 250.79050781 120 250.75 C121.97613281 250.68522461 121.97613281 250.68522461 123.9921875 250.61914062 C127.24468788 250.51308083 130.49726392 250.41101976 133.75 250.3125 C133.78758423 249.02617676 133.78758423 249.02617676 133.82592773 247.71386719 C133.92123412 244.5231563 134.02045751 241.33259781 134.12231445 238.14208984 C134.1655455 236.76290622 134.20722866 235.38367315 134.24731445 234.00439453 C134.30530403 232.01843062 134.36937723 230.03264731 134.43359375 228.046875 C134.48858032 226.25588379 134.48858032 226.25588379 134.54467773 224.42871094 C134.64631226 222.88618652 134.64631226 222.88618652 134.75 221.3125 C134.79777588 220.55485352 134.84555176 219.79720703 134.89477539 219.01660156 C135.75 217.3125 135.75 217.3125 138.37939453 216.08837891 C141.89404722 215.2793418 145.07598677 214.99411097 148.6796875 214.8984375 C149.96875 214.85976562 151.2578125 214.82109375 152.5859375 214.78125 C153.93228707 214.74980242 155.27864132 214.71855489 156.625 214.6875 C157.99481514 214.64926959 159.36460755 214.61021499 160.734375 214.5703125 C164.07278263 214.47627285 167.41118814 214.39061943 170.75 214.3125 C170.76981934 213.45495117 170.78963867 212.59740234 170.81005859 211.71386719 C170.88829521 208.52302358 170.97499343 205.3325526 171.06738281 202.14208984 C171.10559338 200.76294757 171.14046002 199.38370833 171.171875 198.00439453 C171.21769624 196.01833033 171.27666263 194.03258321 171.3359375 192.046875 C171.3673584 190.85288086 171.3987793 189.65888672 171.43115234 188.42871094 C171.73723672 185.43724007 172.00840608 183.73697657 173.75 181.3125 C177.14753999 178.85217858 180.60991237 179.00250223 184.703125 178.8984375 C185.36334656 178.87907135 186.02356812 178.8597052 186.70379639 178.8397522 C188.80240153 178.78020651 190.90106228 178.73367278 193 178.6875 C194.4271066 178.64929706 195.85419072 178.61024398 197.28125 178.5703125 C200.77062691 178.4745267 204.26017286 178.39040358 207.75 178.3125 C207.76981934 177.45495117 207.78963867 176.59740234 207.81005859 175.71386719 C207.88829521 172.52302358 207.97499343 169.3325526 208.06738281 166.14208984 C208.10559338 164.76294757 208.14046002 163.38370833 208.171875 162.00439453 C208.21769624 160.01833033 208.27666263 158.03258321 208.3359375 156.046875 C208.3673584 154.85288086 208.3987793 153.65888672 208.43115234 152.42871094 C208.7356631 149.45261957 209.0807722 147.76126209 210.75 145.3125 C213.98624676 143.15500216 215.09394066 143.02889512 218.85546875 142.8984375 C219.83837891 142.85976562 220.82128906 142.82109375 221.83398438 142.78125 C222.85814453 142.7503125 223.88230469 142.719375 224.9375 142.6875 C225.97326172 142.64882812 227.00902344 142.61015625 228.07617188 142.5703125 C230.63393622 142.47601704 233.19169287 142.39041798 235.75 142.3125 C234.52351385 139.08590337 233.17059397 136.14108919 231.38671875 133.1875 C230.9187085 132.40938965 230.45069824 131.6312793 229.96850586 130.82958984 C229.46327393 129.9989502 228.95804199 129.16831055 228.4375 128.3125 C227.90842041 127.43674316 227.37934082 126.56098633 226.83422852 125.65869141 C222.45913568 118.43519403 218.02422953 111.24870851 213.56420898 104.07739258 C210.8594237 99.72806513 208.17104115 95.37033521 205.51953125 90.98828125 C205.01043213 90.14797363 204.50133301 89.30766602 203.97680664 88.44189453 C203.01070559 86.84444988 202.04752992 85.24523142 201.08764648 83.64404297 C200.00187637 81.85037621 198.87998734 80.07864433 197.75 78.3125 C195.21726709 78.3125 191.94414929 82.4155799 190 84.125 Z M-220.921875 149.7421875 C-223.81530901 153.16324771 -225.06944516 156.0228226 -225.6875 160.4375 C-224.73360672 168.88626902 -218.03858235 174.89733365 -211.9375 180.3125 C-210.51202839 181.61337557 -209.08893255 182.91685824 -207.66796875 184.22265625 C-206.93884277 184.89184082 -206.2097168 185.56102539 -205.45849609 186.25048828 C-201.80248449 189.66400519 -198.2746783 193.20175885 -194.75 196.75 C-194.0497168 197.45366699 -193.34943359 198.15733398 -192.62792969 198.88232422 C-190.49983548 201.02362729 -188.37447277 203.16760428 -186.25 205.3125 C-183.3988513 208.19051616 -180.54418586 211.06498109 -177.6875 213.9375 C-177.05714844 214.5761499 -176.42679688 215.2147998 -175.77734375 215.87280273 C-171.99940117 219.67125586 -168.09001997 223.24432165 -164.03543091 226.74523926 C-161.91590454 228.60577077 -159.94167896 230.56835166 -157.99609375 232.609375 C-157.28646484 233.34027344 -156.57683594 234.07117188 -155.84570312 234.82421875 C-154.39720099 236.32646621 -152.95454887 237.83437473 -151.51757812 239.34765625 C-146.8817184 244.0974088 -142.91151226 247.86191446 -136.02734375 248.52734375 C-129.86921882 247.59904891 -126.00843317 245.34858052 -121.875 240.5625 C-119.90107133 236.61464267 -119.26704146 233.58247188 -120.25 229.3125 C-122.77278605 223.41865486 -127.23669391 219.26895792 -131.9375 215.06640625 C-140.2650948 207.49774508 -148.1448028 199.49245122 -156.0625 191.5 C-158.94100368 188.59465117 -161.82299519 185.69282469 -164.70703125 182.79296875 C-165.34679398 182.14490768 -165.9865567 181.49684662 -166.64570618 180.82914734 C-170.43879079 177.01579256 -174.3615717 173.43061743 -178.43244934 169.91633606 C-180.77967147 167.84510934 -182.94101142 165.63452652 -185.08984375 163.359375 C-185.92580078 162.493125 -186.76175781 161.626875 -187.62304688 160.734375 C-189.33864119 158.94691649 -191.04435291 157.14992215 -192.74023438 155.34375 C-197.81485894 150.12458262 -201.97373538 146.64432092 -209.25 145.3125 C-213.23007452 145.3125 -217.94852651 147.19955771 -220.921875 149.7421875 Z M-17.25 148.3125 C-18.61379622 149.91608457 -19.91525959 151.57285125 -21.1875 153.25 C-25.93111452 159.21428405 -31.15898318 163.70154334 -37.25 168.3125 C-32.07127171 174.6359998 -26.33950916 180.37533446 -20.55566406 186.13720703 C-18.88231271 187.80521066 -17.21435883 189.47847673 -15.546875 191.15234375 C-8.42791515 198.27633767 -1.19711598 205.10381564 6.75 211.3125 C7.41644531 210.76722656 8.08289063 210.22195312 8.76953125 209.66015625 C15.4296875 204.2109375 22.08984375 198.76171875 28.75 193.3125 C27.39368172 190.28375541 25.87353234 188.1873059 23.52880859 185.84838867 C22.87407562 185.19057907 22.21934265 184.53276947 21.54476929 183.85502625 C20.8364798 183.15392227 20.12819031 182.4528183 19.3984375 181.73046875 C18.66557526 180.99806473 17.93271301 180.26566071 17.17764282 179.51106262 C15.62486171 177.96130153 14.06965197 176.41397055 12.51220703 174.86889648 C10.14956172 172.52437332 7.79488265 170.17208252 5.44140625 167.81835938 C3.92755167 166.30942583 2.41324283 164.80094785 0.8984375 163.29296875 C0.2022934 162.59793747 -0.49385071 161.90290619 -1.21109009 161.18681335 C-8.34570114 152.85085613 -8.34570114 152.85085613 -17.25 148.3125 Z M117.75 279.3125 C117.7406543 279.95276123 117.73130859 280.59302246 117.72167969 281.25268555 C117.66781153 284.16922375 117.58419801 287.08418625 117.5 290 C117.47873047 291.51110352 117.47873047 291.51110352 117.45703125 293.05273438 C117.30949607 297.52305041 117.21057555 300.51840423 114.9375 304.4375 C112.08201571 306.88505796 109.3917613 307.54212742 105.75 308.3125 C112.02739326 315.94716748 118.91895177 323.05340849 126.4284668 329.48217773 C130.77980384 333.27836129 134.83209764 337.31785106 138.87109375 341.44140625 C140.39879521 342.98661819 141.92679923 344.53153104 143.45507812 346.07617188 C145.82573056 348.47775547 148.1939582 350.88158464 150.55688477 353.29077148 C152.86305835 355.63956774 155.17882535 357.97856191 157.49609375 360.31640625 C158.19012802 361.02906143 158.88416229 361.74171661 159.59922791 362.47596741 C168.39235611 371.36101945 168.39235611 371.36101945 179.9375 374.9375 C185.40721941 374.58927252 188.49450476 372.25689245 192.5625 368.75 C194.7453433 366.10761074 194.95433508 363.29618369 195.0625 360 C195.09988281 359.26136719 195.13726562 358.52273438 195.17578125 357.76171875 C194.12238174 351.70225549 188.95529196 347.23165754 184.734375 343.06640625 C184.15971497 342.49220444 183.58505493 341.91800262 182.99298096 341.32640076 C181.7817076 340.11813332 180.56801996 338.9122818 179.35205078 337.70874023 C177.51411267 335.88897315 175.68421845 334.0614177 173.85546875 332.23242188 C172.66973945 331.05161257 171.48355579 329.87125932 170.296875 328.69140625 C169.76012146 328.15576553 169.22336792 327.62012482 168.67034912 327.06825256 C165.81680841 324.2492538 162.90079187 321.55127307 159.86157227 318.93286133 C155.50502185 315.1566098 151.4605695 311.1150796 147.41796875 307.0078125 C145.86275984 305.43997557 144.30741751 303.87227098 142.75195312 302.3046875 C140.32955422 299.85734087 137.90879978 297.40840749 135.49047852 294.95703125 C133.13730918 292.5737872 130.77806315 290.19669603 128.41796875 287.8203125 C127.69296677 287.08185089 126.96796478 286.34338928 126.22099304 285.58255005 C125.20897575 284.56546463 125.20897575 284.56546463 124.17651367 283.52783203 C123.29004402 282.63017624 123.29004402 282.63017624 122.38566589 281.71438599 C120.69043588 280.08305647 120.69043588 280.08305647 117.75 279.3125 Z M-142.25 321.3125 C-143.1265625 322.07949219 -144.003125 322.84648437 -144.90625 323.63671875 C-155.37191697 331.77489561 -155.37191697 331.77489561 -161.625 342.6953125 C-160.85648723 348.05889121 -155.92616274 351.61336124 -152.25 355.3125 C-151.569375 356.03953125 -150.88875 356.7665625 -150.1875 357.515625 C-147.02997967 360.64768146 -144.46153366 362.76964964 -139.9375 363.1875 C-134.68794344 362.80670315 -131.04786545 359.79084402 -126.82421875 356.88671875 C-123.36961583 354.77411636 -121.20221533 354.4600614 -117.25 355.3125 C-112.75297742 357.99346194 -109.10837091 361.19437069 -105.4765625 364.92578125 C-104.94912445 365.45842087 -104.4216864 365.99106049 -103.87826538 366.5398407 C-102.20561926 368.23014876 -100.53985093 369.9270165 -98.875 371.625 C-97.21646674 373.31141796 -95.55638918 374.99623906 -93.89315796 376.67802429 C-92.86389166 377.71926472 -91.8372989 378.76315869 -90.81411743 379.81037903 C-88.09159374 382.5699033 -85.29048397 385.17763258 -82.35668945 387.71240234 C-78.23113672 391.28439517 -74.35549261 395.06230152 -70.50390625 398.92578125 C-69.80732407 399.62140671 -69.11074188 400.31703217 -68.39305115 401.03373718 C-66.93732001 402.48879346 -65.4828282 403.94509063 -64.02954102 405.40258789 C-61.79752732 407.64000895 -59.56015865 409.87197677 -57.32226562 412.10351562 C-55.90332466 413.52311654 -54.48469346 414.94302717 -53.06640625 416.36328125 C-52.39670303 417.03096024 -51.72699982 417.69863922 -51.03700256 418.3865509 C-50.11485207 419.31342964 -50.11485207 419.31342964 -49.17407227 420.2590332 C-48.63194595 420.80195511 -48.08981964 421.34487701 -47.53126526 421.9042511 C-45.06482507 424.61513525 -44.75 427.28393573 -44.75 430.90234375 C-45.41255151 434.0960491 -46.90344966 436.13574659 -48.75 438.8125 C-51.85902696 443.30230203 -51.85902696 443.30230203 -53.125 448.5 C-51.1337654 457.17609359 -42.47732479 463.65308322 -35.25 468.3125 C-32.85875418 469.43973378 -32.85875418 469.43973378 -30.25 469.3125 C-25.06068438 466.58314684 -21.10185472 462.51381312 -17 458.375 C-16.01374634 457.38028687 -16.01374634 457.38028687 -15.00756836 456.36547852 C-1.31181895 442.33131426 11.98720135 425.42512947 12.1484375 405.109375 C11.35815942 399.56193278 7.7793341 396.09284739 3.92578125 392.2578125 C3.46068649 391.79317596 2.99559174 391.32853943 2.5164032 390.849823 C1.53454388 389.87097083 0.55026922 388.89453607 -0.4362793 387.92041016 C-1.92092348 386.45387434 -3.39755539 384.97964426 -4.87304688 383.50390625 C-8.84875356 379.54853429 -12.83437924 375.6495097 -17.08325195 371.98583984 C-21.38561049 368.24845539 -25.40177827 364.27074845 -29.40625 360.21875 C-30.1528186 359.46839478 -30.89938721 358.71803955 -31.6685791 357.94494629 C-34.82701112 354.77033496 -37.97939279 351.58974084 -41.13232422 348.40966797 C-43.45069745 346.07309639 -45.7721552 343.73962001 -48.09375 341.40625 C-48.79294556 340.6987561 -49.49214111 339.99126221 -50.21252441 339.2623291 C-54.13834395 335.317278 -58.17461531 331.58467733 -62.38916016 327.95071411 C-65.09638858 325.56737101 -67.62207097 323.02890352 -70.140625 320.44921875 C-71.18997631 319.38724344 -72.23945914 318.32539807 -73.2890625 317.26367188 C-74.90589185 315.62190365 -76.52103433 313.97853505 -78.13378906 312.33276367 C-79.71501098 310.72135306 -81.30239031 309.11621356 -82.890625 307.51171875 C-83.60946869 306.77268562 -83.60946869 306.77268562 -84.34283447 306.01872253 C-88.8622845 301.46566563 -91.8542215 300.01587964 -98.25 299.9375 C-115.35626396 300.28076951 -129.85114741 310.35146616 -142.25 321.3125 Z " fill="#000000" transform="translate(246.25,10.6875)"/>
<path d="M0 0 C3.77176339 2.52781321 6.83918572 5.76645366 10 9 C11.22912066 10.23181536 12.45967839 11.4621979 13.69140625 12.69140625 C15.62592208 14.62208328 17.55665832 16.55535674 19.47094727 18.50610352 C22.40748234 21.48680294 25.36976602 24.35622263 28.55859375 27.06640625 C34.50214109 32.1942291 39.97328077 37.82444667 45.51147461 43.38110352 C47.45377265 45.32881803 49.4014314 47.2710593 51.34960938 49.21289062 C52.58625875 50.45019983 53.82259842 51.68781868 55.05859375 52.92578125 C55.64080185 53.50596512 56.22300995 54.08614899 56.82286072 54.68391418 C61.90947273 59.80051366 61.90947273 59.80051366 62.25 64.3125 C61.97804743 68.32380037 61.60697139 69.97254936 59 73 C55.15263114 75.29362374 53.08058641 76.19787372 48.63354492 75.38354492 C44.64379514 73.86436787 42.0924458 71.87063135 39.11328125 68.92578125 C38.5658577 68.40276932 38.01843414 67.87975739 37.454422 67.34089661 C35.62014975 65.57637426 33.80812544 63.79129317 32 62 C31.3485199 61.3568988 30.69703979 60.71379761 30.02581787 60.0512085 C25.04907093 55.12697557 20.11470886 50.16122853 15.1875 45.1875 C12.30899632 42.28215117 9.42700481 39.38032469 6.54296875 36.48046875 C5.58332466 35.50837715 5.58332466 35.50837715 4.60429382 34.51664734 C0.82063788 30.71277162 -3.07537179 27.12296894 -7.17338562 23.65888977 C-11.45899977 19.76679216 -14.67762019 16.11337878 -15.5625 10.3125 C-14.84414318 6.08217649 -13.74336231 3.35594846 -10.3125 0.6875 C-6.62742393 -0.40806316 -3.71884667 -1.00893927 0 0 Z " fill="#000000" transform="translate(163,343)"/>
</svg>
