<?xml version="1.0" standalone="no"?>
<!DOCTYPE svg PUBLIC "-//W3C//DTD SVG 20010904//EN"
 "http://www.w3.org/TR/2001/REC-SVG-20010904/DTD/svg10.dtd">
<svg version="1.0" xmlns="http://www.w3.org/2000/svg"
 width="512.000000pt" height="512.000000pt" viewBox="0 0 512.000000 512.000000"
 preserveAspectRatio="xMidYMid meet">

<g transform="translate(0.000000,512.000000) scale(0.100000,-0.100000)"
fill="#000000" stroke="none">
<path d="M274 5110 c-12 -5 -29 -19 -38 -32 -15 -20 -16 -242 -16 -2518 0
-2729 -5 -2523 57 -2549 21 -8 504 -11 1891 -9 l1864 3 24 28 c20 24 24 39 24
94 l0 65 64 -60 c125 -116 269 -156 421 -117 133 35 234 119 294 244 31 65 36
87 39 166 3 73 0 102 -18 154 -44 131 -34 121 -587 601 l-213 184 0 919 0 918
-24 24 c-36 36 -73 42 -115 19 -24 -13 -40 -31 -48 -54 -9 -26 -12 -236 -13
-795 l-2 -760 -19 110 c-56 321 -187 701 -335 972 l-44 81 0 1061 0 1061 200
0 199 0 3 -451 3 -451 33 -29 c44 -40 93 -40 133 0 l29 29 0 521 0 520 -24 28
-24 28 -1869 2 c-1039 1 -1878 -2 -1889 -7z m1356 -2114 c0 -1259 4 -1942 10
-1977 15 -79 47 -137 110 -200 182 -184 493 -123 602 118 10 24 23 79 28 124
10 87 29 130 71 161 l26 20 109 -41 c202 -76 438 -137 662 -170 104 -16 128
-23 147 -42 12 -13 126 -144 253 -291 l232 -267 0 -115 0 -116 -1730 0 -1730
0 0 2360 0 2360 605 0 605 0 0 -1924z m1650 1024 l0 -901 -30 16 c-58 30 -76
22 -179 -80 -54 -52 -100 -95 -104 -95 -4 0 -7 144 -7 320 l0 321 -24 24 c-36
36 -73 42 -115 19 -58 -31 -60 -43 -60 -494 l-1 -405 -210 -210 -210 -210 0
145 c0 124 -3 149 -19 176 -37 60 -110 68 -157 17 l-24 -26 0 -256 0 -256
-147 -147 c-81 -82 -151 -148 -155 -148 -5 0 -8 695 -8 1545 l0 1545 725 0
725 0 0 -900z m-9 -1261 c131 -222 240 -473 313 -722 41 -136 85 -342 92 -430
l6 -62 -165 -164 -165 -164 -111 17 c-399 61 -854 235 -1193 457 l-38 24 587
587 c323 323 590 585 595 582 4 -3 40 -59 79 -125z m-1334 -1233 c54 -35 150
-92 213 -127 63 -34 116 -64 118 -65 2 -1 -8 -19 -22 -41 -35 -53 -54 -113
-62 -191 -8 -80 -21 -109 -68 -150 -80 -70 -205 -46 -260 48 -20 33 -21 54
-24 313 -2 152 -1 277 2 277 3 0 49 -29 103 -64z m2271 -538 c235 -204 435
-382 445 -394 49 -63 62 -175 28 -249 -24 -54 -100 -119 -156 -135 -63 -18
-139 -7 -193 27 -28 18 -174 178 -417 458 l-374 430 117 118 c64 64 118 117
119 117 2 0 196 -167 431 -372z"/>
<path d="M1081 4344 c-25 -21 -31 -33 -31 -66 0 -53 14 -77 57 -94 27 -12 42
-13 69 -4 70 23 88 108 35 161 -39 38 -87 39 -130 3z"/>
<path d="M1081 3204 c-25 -21 -31 -33 -31 -66 0 -50 13 -74 52 -94 99 -51 188
77 109 157 -39 38 -87 39 -130 3z"/>
<path d="M1104 2081 c-60 -26 -73 -113 -25 -162 62 -61 161 -19 161 70 0 71
-72 119 -136 92z"/>
<path d="M1103 935 c-39 -17 -53 -42 -53 -93 0 -51 43 -92 97 -92 49 0 93 45
93 95 0 49 -15 74 -55 91 -41 17 -42 17 -82 -1z"/>
<path d="M2196 4035 c-55 -29 -55 -29 -56 -308 l0 -259 29 -29 c49 -48 126
-35 156 26 12 27 15 76 15 265 0 259 -5 280 -65 306 -42 17 -43 17 -79 -1z"/>
<path d="M4407 529 c-22 -13 -47 -61 -47 -93 0 -14 13 -40 29 -58 24 -27 36
-33 71 -33 35 0 47 6 71 33 16 18 29 44 29 58 0 33 -25 81 -49 94 -25 13 -81
12 -104 -1z"/>
<path d="M3933 3691 c-83 -51 -45 -181 53 -181 50 0 94 45 94 95 0 47 -13 71
-50 90 -38 20 -58 19 -97 -4z"/>
</g>
</svg>
