<?xml version="1.0" standalone="no"?>
<!DOCTYPE svg PUBLIC "-//W3C//DTD SVG 20010904//EN"
 "http://www.w3.org/TR/2001/REC-SVG-20010904/DTD/svg10.dtd">
<svg version="1.0" xmlns="http://www.w3.org/2000/svg"
 width="512.000000pt" height="512.000000pt" viewBox="0 0 512.000000 512.000000"
 preserveAspectRatio="xMidYMid meet">

<g transform="translate(0.000000,512.000000) scale(0.100000,-0.100000)"
fill="#000000" stroke="none">
<path d="M1990 4260 c-18 -4 -78 -74 -202 -234 l-178 -229 0 -263 0 -264 -145
0 -145 0 0 256 c0 164 -4 263 -11 275 -16 31 -318 421 -341 442 -23 20 -77 23
-100 5 -15 -12 -221 -274 -315 -402 l-43 -58 0 -259 0 -259 -140 0 c-146 0
-190 -10 -204 -45 -3 -9 -6 -120 -6 -246 l0 -230 25 -24 c23 -24 28 -25 175
-25 l150 0 0 -435 0 -435 -140 0 c-146 0 -190 -10 -204 -45 -3 -9 -6 -120 -6
-246 l0 -230 25 -24 c23 -24 28 -25 175 -25 l150 0 0 -174 c0 -170 1 -176 24
-203 l24 -28 357 0 357 0 24 28 c23 27 24 33 24 203 l0 174 145 0 145 0 0
-176 c0 -96 4 -184 10 -194 19 -35 63 -40 394 -40 286 0 325 2 356 18 20 10
37 27 41 42 4 14 7 98 8 188 l1 162 140 0 140 0 0 -160 c0 -186 9 -221 60
-239 41 -14 640 -15 689 -1 57 16 60 27 61 223 l0 177 145 0 145 0 0 -174 c0
-170 1 -176 24 -203 l24 -28 357 0 357 0 24 28 c23 27 24 33 24 203 l0 174
150 0 c147 0 152 1 175 25 l25 24 0 230 c0 126 -3 237 -6 246 -14 35 -58 45
-204 45 l-140 0 0 435 0 435 150 0 c147 0 152 1 175 25 l25 24 0 233 c-1 167
-4 237 -13 249 -25 33 -55 39 -196 39 l-141 0 0 258 0 259 -32 44 c-71 99
-302 395 -320 412 -11 9 -35 17 -53 17 -18 0 -42 -8 -53 -17 -18 -17 -249
-313 -320 -412 l-32 -44 0 -259 0 -258 -145 0 -145 0 0 263 0 263 -146 190
c-223 288 -209 274 -253 274 -47 0 -52 -6 -252 -265 l-154 -200 -3 -262 -3
-263 -139 0 -139 0 -3 263 -3 262 -175 227 c-178 230 -199 251 -250 238z
m-951 -366 l121 -157 0 -1363 0 -1364 -245 0 -245 0 0 1364 0 1363 121 157
c66 86 122 156 124 156 2 0 58 -70 124 -156z m1100 -4 l121 -155 -3 -1360 -2
-1360 -242 -3 -243 -2 0 1365 0 1366 118 154 c64 85 120 153 124 152 4 -1 61
-72 127 -157z m1094 5 l117 -154 0 -1365 0 -1366 -242 2 -243 3 -2 1360 -2
1360 122 158 c67 86 124 157 127 156 3 0 58 -69 123 -154z m1106 -14 l111
-144 0 -1363 0 -1364 -245 0 -245 0 0 1364 0 1363 121 158 c100 130 124 154
134 143 8 -7 63 -78 124 -157z m-3829 -896 l0 -125 -95 0 -95 0 0 125 0 125
95 0 95 0 0 -125z m1100 0 l0 -125 -145 0 -145 0 0 125 0 125 145 0 145 0 0
-125z m1090 0 l0 -125 -140 0 -140 0 0 125 0 125 140 0 140 0 0 -125z m1100 0
l0 -125 -145 0 -145 0 0 125 0 125 145 0 145 0 0 -125z m1000 0 l0 -125 -95 0
-95 0 0 125 0 125 95 0 95 0 0 -125z m-3190 -720 l0 -435 -145 0 -145 0 0 435
0 435 145 0 145 0 0 -435z m1090 0 l0 -435 -140 0 -140 0 0 435 0 435 140 0
140 0 0 -435z m1100 0 l0 -435 -145 0 -145 0 0 435 0 435 145 0 145 0 0 -435z
m-3290 -720 l0 -125 -95 0 -95 0 0 125 0 125 95 0 95 0 0 -125z m1100 0 l0
-125 -145 0 -145 0 0 125 0 125 145 0 145 0 0 -125z m1090 0 l0 -125 -140 0
-140 0 0 125 0 125 140 0 140 0 0 -125z m1100 0 l0 -125 -145 0 -145 0 0 125
0 125 145 0 145 0 0 -125z m1000 0 l0 -125 -95 0 -95 0 0 125 0 125 95 0 95 0
0 -125z"/>
<path d="M861 3106 c-42 -44 -41 -207 2 -246 27 -26 77 -26 105 0 20 19 22 31
22 124 0 94 -2 104 -23 124 -31 29 -77 29 -106 -2z"/>
<path d="M859 1664 c-22 -23 -24 -34 -24 -119 0 -85 2 -96 24 -119 32 -34 79
-35 109 -3 20 21 22 34 22 123 0 92 -2 102 -23 122 -32 30 -77 29 -108 -4z"/>
<path d="M1959 3111 c-23 -18 -24 -26 -24 -126 0 -100 1 -108 24 -126 35 -28
85 -25 110 7 18 23 21 41 21 121 0 86 -2 96 -25 118 -29 30 -74 32 -106 6z"/>
<path d="M1959 1671 c-23 -18 -24 -26 -24 -126 0 -100 1 -108 24 -126 32 -26
77 -24 106 6 23 22 25 32 25 120 0 88 -2 98 -25 120 -29 30 -74 32 -106 6z"/>
<path d="M3055 3105 c-23 -22 -25 -32 -25 -118 0 -80 3 -98 21 -121 25 -32 75
-35 110 -7 23 18 24 26 24 126 0 100 -1 108 -24 126 -32 26 -77 24 -106 -6z"/>
<path d="M3055 1665 c-23 -22 -25 -32 -25 -120 0 -88 2 -98 25 -120 29 -30 74
-32 106 -6 23 18 24 26 24 126 0 100 -1 108 -24 126 -32 26 -77 24 -106 -6z"/>
<path d="M4152 3107 c-20 -21 -22 -34 -22 -125 0 -91 2 -103 22 -122 28 -26
78 -26 105 0 43 39 44 202 2 246 -30 32 -78 32 -107 1z"/>
<path d="M4152 1667 c-20 -21 -22 -34 -22 -123 0 -92 2 -102 23 -122 32 -30
77 -29 108 4 22 23 24 34 24 119 0 85 -2 96 -24 119 -32 34 -79 35 -109 3z"/>
</g>
</svg>
