<?xml version="1.0" standalone="no"?>
<!DOCTYPE svg PUBLIC "-//W3C//DTD SVG 20010904//EN"
 "http://www.w3.org/TR/2001/REC-SVG-20010904/DTD/svg10.dtd">
<svg version="1.0" xmlns="http://www.w3.org/2000/svg"
 width="512.000000pt" height="512.000000pt" viewBox="0 0 512.000000 512.000000"
 preserveAspectRatio="xMidYMid meet">

<g transform="translate(0.000000,512.000000) scale(0.100000,-0.100000)"
fill="#000000" stroke="none">
<path d="M51 5106 c-53 -29 -50 91 -51 -2079 l0 -2019 34 -34 34 -34 201 0
201 0 0 -203 0 -203 28 -27 28 -27 202 0 202 0 0 -201 0 -201 34 -34 34 -34
2027 0 2027 0 34 34 34 34 0 2016 c0 2194 4 2057 -55 2084 -17 8 -91 12 -220
12 l-195 0 0 204 0 203 -25 25 c-34 34 -59 38 -261 38 l-174 0 0 196 0 196
-34 34 -34 34 -2024 0 c-1660 -1 -2027 -3 -2047 -14z m1129 -189 c0 -1 -220
-223 -490 -492 l-490 -490 0 493 0 492 490 0 c270 0 490 -1 490 -3z m1125
-207 c-115 -115 -210 -210 -210 -210 0 0 -95 95 -210 210 l-210 210 420 0 420
0 -210 -210z m1330 0 c-115 -115 -210 -210 -210 -210 0 0 -95 95 -210 210
l-210 210 420 0 420 0 -210 -210z m-1942 -98 l257 -257 -593 -593 -592 -592
-263 263 -264 264 593 586 c326 323 595 587 598 587 3 0 122 -116 264 -258z
m1330 0 l257 -257 -593 -593 -592 -592 -263 263 -263 263 591 587 c324 323
594 587 598 587 4 0 123 -116 265 -258z m967 -359 l0 -518 -282 -282 -283
-283 -262 262 -263 263 537 537 c296 296 541 538 545 538 5 0 8 -233 8 -517z
m460 -1683 l0 -1890 -602 -1 c-440 0 -612 -3 -638 -12 -23 -8 -41 -24 -54 -48
-23 -42 -17 -79 19 -115 l24 -24 697 0 698 0 28 27 28 27 0 1728 0 1728 135 0
135 0 0 -1890 0 -1890 -1895 0 -1896 0 3 133 3 132 627 3 626 2 26 31 c52 61
22 147 -55 163 -18 3 -404 6 -860 6 l-829 0 0 130 0 130 1726 0 1726 0 34 34
34 34 0 1726 0 1726 130 0 130 0 0 -1890z m-2755 720 l260 -260 -590 -590
c-324 -325 -594 -590 -600 -590 -5 0 -126 116 -267 257 l-258 258 592 592
c326 326 595 593 598 593 3 0 122 -117 265 -260z m1330 0 l260 -260 -460 -461
c-253 -253 -522 -519 -598 -591 l-138 -132 -260 260 -259 259 592 592 c326
326 595 593 598 593 3 0 122 -117 265 -260z m-2613 -472 l-212 -213 0 425 0
425 212 -213 213 -212 -213 -212z m3578 109 l0 -523 -286 -278 -286 -279 -259
259 -259 259 542 542 c299 299 544 543 545 543 2 0 3 -235 3 -523z m-2297
-965 l257 -257 -283 -283 -282 -282 -520 0 -520 0 540 540 c297 297 542 540
545 540 3 0 121 -116 263 -258z m1330 0 l257 -257 -283 -283 -282 -282 -520 0
-520 0 540 540 c297 297 542 540 545 540 3 0 121 -116 263 -258z m-2610 -50
l207 -207 -210 -210 -210 -210 0 418 c0 229 1 417 3 417 1 0 96 -93 210 -208z
m3577 -282 l0 -490 -492 0 -493 0 490 490 c269 270 491 490 492 490 2 0 3
-220 3 -490z"/>
<path d="M2759 666 c-20 -7 -41 -24 -52 -44 -17 -29 -18 -39 -8 -72 14 -48 44
-70 94 -70 83 0 126 94 72 158 -29 35 -60 43 -106 28z"/>
</g>
</svg>
