<?xml version="1.0" standalone="no"?>
<!DOCTYPE svg PUBLIC "-//W3C//DTD SVG 20010904//EN"
 "http://www.w3.org/TR/2001/REC-SVG-20010904/DTD/svg10.dtd">
<svg version="1.0" xmlns="http://www.w3.org/2000/svg"
 width="512.000000pt" height="512.000000pt" viewBox="0 0 512.000000 512.000000"
 preserveAspectRatio="xMidYMid meet">

<g transform="translate(0.000000,512.000000) scale(0.100000,-0.100000)"
fill="#000000" stroke="none">
<path d="M345 4455 l-25 -24 0 -296 0 -295 -135 0 c-131 0 -137 -1 -160 -25
l-25 -24 0 -351 0 -351 25 -24 c23 -24 29 -25 160 -25 l135 0 0 -240 0 -240
-135 0 c-131 0 -137 -1 -160 -25 l-25 -24 0 -351 0 -351 25 -24 c23 -24 29
-25 160 -25 l135 0 0 -295 0 -296 25 -24 24 -25 1373 -1 1373 0 30 -42 c46
-62 105 -92 185 -92 78 1 125 23 190 89 l44 46 155 0 155 0 210 -209 c250
-247 278 -266 401 -266 60 0 91 5 126 22 66 30 124 86 156 151 38 77 40 194 5
260 l-23 44 25 23 26 24 0 296 0 295 135 0 c131 0 137 1 160 25 l25 24 0 351
0 351 -25 24 c-23 24 -29 25 -160 25 l-135 0 0 240 0 240 135 0 c131 0 137 1
160 25 l25 24 0 351 0 351 -25 24 c-23 24 -29 25 -160 25 l-135 0 0 295 0 296
-25 24 -24 25 -2191 0 -2191 0 -24 -25z m1415 -375 l0 -240 -640 0 -640 0 0
240 0 240 640 0 640 0 0 -240z m1440 0 l0 -240 -640 0 -640 0 0 240 0 240 640
0 640 0 0 -240z m1440 0 l0 -240 -640 0 -640 0 0 240 0 240 640 0 640 0 0
-240z m-3600 -640 l0 -240 -440 0 -440 0 0 240 0 240 440 0 440 0 0 -240z
m1440 0 l0 -240 -640 0 -640 0 0 240 0 240 640 0 640 0 0 -240z m1440 0 l0
-240 -640 0 -640 0 0 240 0 240 640 0 640 0 0 -240z m1040 0 l0 -240 -440 0
-440 0 0 240 0 240 440 0 440 0 0 -240z m-3200 -640 l0 -240 -640 0 -640 0 0
240 0 240 640 0 640 0 0 -240z m1440 149 c0 -81 -2 -90 -17 -85 -68 27 -192
15 -280 -26 -50 -23 -241 -200 -271 -250 l-16 -28 -348 0 -348 0 0 240 0 240
640 0 640 0 0 -91z m1440 -149 l0 -240 -404 0 -404 0 -236 113 -236 112 0 128
0 127 640 0 640 0 0 -240z m-940 -354 c335 -161 564 -277 578 -292 43 -48 34
-64 -127 -228 l-150 -151 -149 148 c-96 94 -165 154 -193 167 -101 45 -231 10
-294 -79 -25 -36 -30 -54 -33 -115 -6 -103 12 -133 187 -309 l146 -148 -151
-149 c-164 -162 -180 -171 -228 -128 -35 32 -555 1116 -563 1174 -12 88 9 128
131 250 122 121 147 135 236 130 48 -3 126 -38 610 -270z m-2660 -286 l0 -240
-440 0 -440 0 0 240 0 240 440 0 440 0 0 -240z m1440 0 l0 -240 -640 0 -640 0
0 240 0 240 640 0 640 0 0 -240z m2480 0 l0 -240 -297 0 -297 0 26 28 c46 48
62 92 62 162 0 117 -45 173 -199 246 l-90 43 398 0 397 1 0 -240z m-2271 -153
l40 -87 -44 0 -45 0 0 92 c0 50 2 89 4 87 3 -3 23 -44 45 -92z m1160 -311
l251 -251 -53 -53 -52 -52 -253 253 c-220 220 -253 257 -254 285 -2 50 38 84
87 74 12 -2 135 -117 274 -256z m-2089 -176 l0 -240 -640 0 -640 0 0 240 0
240 640 0 640 0 0 -240z m1068 198 c11 -24 63 -132 115 -240 l96 -198 -559 0
-560 0 0 240 0 240 445 0 444 0 19 -42z m1812 -198 c0 -220 -1 -240 -17 -240
-9 0 -83 65 -163 144 -148 147 -179 168 -220 146 -20 -11 -28 -7 -76 41 l-54
53 47 48 47 48 218 0 218 0 0 -240z m-188 -318 c149 -150 177 -183 183 -216
21 -108 -73 -202 -181 -181 -33 6 -66 34 -219 186 l-180 178 105 106 c57 58
107 105 110 105 4 0 85 -80 182 -178z m-652 103 l23 -25 -48 0 -48 0 23 25
c13 14 24 25 25 25 1 0 12 -11 25 -25z"/>
</g>
</svg>
