<?xml version="1.0" encoding="UTF-8"?>
<svg version="1.1" xmlns="http://www.w3.org/2000/svg" width="512" height="512">
<path d="M0 0 C9.26336116 6.77233193 17.33022721 14.92559633 25.43457031 23.0090332 C27.61590149 25.17845118 29.81524944 27.32843857 32.015625 29.47851562 C48.34201346 45.61608695 59.83162182 62.92090153 60.03125 86.7265625 C59.1395104 108.26207377 50.08592677 124.33125141 34.91015625 139.09765625 C33.14060722 140.85996786 31.50065295 142.66794206 29.875 144.5625 C26.43704324 148.55775112 22.85318247 152.40448556 19.25 156.25 C13.12110375 162.79278101 7.04652451 169.38102346 1 176 C-0.81165745 177.97993913 -2.62436315 179.95891562 -4.4375 181.9375 C-4.88891357 182.43016357 -5.34032715 182.92282715 -5.80541992 183.43041992 C-9.69971697 187.67792868 -13.60861298 191.91186058 -17.51928711 196.14428711 C-21.30535921 200.24336889 -25.08084961 204.35198138 -28.84448242 208.47167969 C-31.26237947 211.11572353 -33.69372306 213.74577973 -36.14453125 216.359375 C-39.12811388 219.54463757 -42.07911553 222.75716324 -45 226 C-46.03447266 227.14662109 -46.03447266 227.14662109 -47.08984375 228.31640625 C-49.65357181 231.39891222 -51.38205368 233.95380457 -51.8125 238 C-51.4454215 241.4870216 -50.29849378 243.1060479 -47.9140625 245.62890625 C-45.19454822 248.58822632 -42.85029102 251.59710441 -40.56640625 254.90234375 C-35.09582886 262.09372624 -29.63670021 268.55779437 -20.33398438 269.85009766 C-13.20560676 270.47474645 -6.10386825 270.36249491 1.03491211 269.99584961 C15.43435027 269.3049029 15.43435027 269.3049029 19.84765625 273.15625 C20.93236324 274.40890859 21.98663138 275.68895963 23 277 C23.99750386 277.92106258 25.01219658 278.82402843 26.046875 279.703125 C30.73012844 284.11567015 34.25559065 287.53278135 36 293.9375 C36.68416832 296.59859487 36.68416832 296.59859487 38 299 C40.05633339 299.89860889 40.05633339 299.89860889 42.56640625 300.31591797 C52.27813423 303.50225852 58.92810825 311.92560564 65.9375 319.0078125 C67.55024995 320.61584052 69.16403725 322.22282876 70.77880859 323.8288269 C74.14870226 327.18843456 77.50569692 330.56028818 80.85400391 333.94140625 C85.13530431 338.26261889 89.44731422 342.55159451 93.76948547 346.83188057 C97.10401056 350.14104972 100.42160842 353.4667869 103.73440552 356.79769516 C105.31762806 358.38556874 106.9060159 359.96831023 108.49972534 361.54565811 C110.72818361 363.75623258 112.93280676 365.98820425 115.1328125 368.22705078 C115.78734909 368.86741776 116.44188568 369.50778473 117.11625671 370.16755676 C121.24049827 374.42692329 123.04506978 378.10047224 124.365448 383.89045525 C124.87011152 386.23654431 124.87011152 386.23654431 127.25 388 C130.01452805 389.09817146 130.01452805 389.09817146 133.1171875 389.53125 C138.59740548 391.08225509 142.06181204 395.49615264 145.875 399.5 C147.03128906 400.67755859 147.03128906 400.67755859 148.2109375 401.87890625 C154.85835099 408.70186763 155.29862324 412.14910491 155.5 421.625 C155.58121094 423.22794922 155.58121094 423.22794922 155.6640625 424.86328125 C155.68210937 425.91128906 155.70015625 426.95929688 155.71875 428.0390625 C155.74904297 428.98990723 155.77933594 429.94075195 155.81054688 430.92041016 C154.54696659 435.72125406 151.41757721 438.50746934 148 442 C147.24814423 442.77686157 146.49628845 443.55372314 145.72164917 444.35412598 C143.1597336 446.97252863 140.57369754 449.5649594 137.98046875 452.15234375 C137.03104843 453.10243935 136.08177646 454.0526832 135.13264465 455.00306702 C133.16011503 456.97705877 131.18581861 458.94926086 129.21020508 460.92016602 C126.67702339 463.447604 124.14842172 465.9795695 121.62108898 468.51285458 C119.66955192 470.46799755 117.71564907 472.42076218 115.76101112 474.37280464 C114.37368135 475.75914415 112.98836335 477.14749591 111.60307312 478.53587341 C110.76492569 479.37086868 109.92677826 480.20586395 109.06323242 481.06616211 C107.95572884 482.17247231 107.95572884 482.17247231 106.82585144 483.3011322 C102.50830066 487.31840755 96.97515413 486.38098846 91.375 486.5 C89.77205078 486.58121094 89.77205078 486.58121094 88.13671875 486.6640625 C82.54055964 486.76042932 78.90400238 486.55981863 74.5859375 482.796875 C73.37164955 481.54944428 72.17481697 480.2846726 71 479 C69.99366111 478.08859874 68.97880345 477.18645577 67.953125 476.296875 C63.26987156 471.88432985 59.74440935 468.46721865 58 462.0625 C57.31674791 459.40116163 57.31674791 459.40116163 56 457 C53.93719299 456.10262213 53.93719299 456.10262213 51.42211914 455.68579102 C41.73916301 452.51007376 35.18735214 444.06160042 28.24609375 436.96484375 C26.65381494 435.36203199 25.06004504 433.76070027 23.46485901 432.16078186 C19.2889627 427.96392794 15.1349306 423.74605761 10.98480225 419.52374268 C7.58592036 416.07290232 4.17203533 412.63712341 0.75723171 409.2020483 C-6.2902053 402.11238185 -13.32807752 395.01311446 -20.33813477 387.88647461 C-20.98691589 387.23029144 -21.63569702 386.57410828 -22.30413818 385.89804077 C-22.89680984 385.29387833 -23.48948151 384.68971588 -24.10011292 384.06724548 C-24.87234617 383.28275733 -24.87234617 383.28275733 -25.66018009 382.48242092 C-28.26063035 379.60519702 -29.20438147 377.24845148 -30 373.5625 C-30.94354316 370.58818376 -31.3992945 369.3459273 -34.13671875 367.76953125 C-35.87783988 367.158939 -37.62714457 366.57131777 -39.3828125 366.00390625 C-43.77625352 364.31866096 -46.70300409 361.27148724 -50 358 C-50.80050781 357.22527344 -51.60101563 356.45054687 -52.42578125 355.65234375 C-58.60714286 349.58928571 -58.60714286 349.58928571 -61 346 C-60.95272675 343.23153725 -60.79791646 340.55452715 -60.5703125 337.80078125 C-58.78888598 316.86289584 -58.78888598 316.86289584 -67.0859375 298.50390625 C-71.00407234 294.31368846 -75.41284394 290.75860459 -79.90625 287.2109375 C-91.29650857 278.20865771 -98.43575473 264.20814859 -101 250 C-102.73485063 230.9184115 -100.45078772 213.81505021 -89 198 C-85.94352207 194.36269605 -82.74166891 190.91332668 -79.43945312 187.5 C-77.0805502 185.04187592 -74.7939587 182.51855926 -72.5 180 C-71.58237773 178.99838038 -70.66440877 177.99707827 -69.74609375 176.99609375 C-67.92516169 175.00968118 -66.10490144 173.02265613 -64.28515625 171.03515625 C-59.02991799 165.29667769 -53.7613559 159.57082308 -48.48071289 153.85571289 C-45.14547198 150.24473431 -41.81941515 146.62552836 -38.5 143 C-34.17263584 138.27357055 -29.8293507 133.56209935 -25.48046875 128.85546875 C-21.693797 124.75568719 -17.91786321 120.64623644 -14.15332031 116.52612305 C-11.74717882 113.89521779 -9.32839717 111.27743092 -6.890625 108.67578125 C4.05216976 98.58587692 4.05216976 98.58587692 10 86 C7.85261124 79.10307327 3.55138648 75.01558471 -1.53515625 70.0390625 C-2.36961777 69.2078891 -3.20407928 68.3767157 -4.06382751 67.52035522 C-5.82184806 65.77272561 -7.58461402 64.02985822 -9.35180664 62.29150391 C-12.06541986 59.62212774 -14.76530512 56.93946977 -17.46289062 54.25390625 C-19.17370429 52.5565103 -20.88526693 50.85986886 -22.59765625 49.1640625 C-23.40912613 48.35997955 -24.22059601 47.55589661 -25.05665588 46.72744751 C-25.80761032 45.98932831 -26.55856476 45.25120911 -27.33227539 44.49072266 C-27.99385147 43.83899078 -28.65542755 43.18725891 -29.33705139 42.51577759 C-32.30730527 39.8083913 -34.90438915 39.61826419 -38.890625 39.6328125 C-42.55937712 40.27144713 -44.41542625 42.41542625 -47 45 C-45.45522187 48.7626998 -43.12653358 50.98281396 -40.1875 53.75 C-33.56322333 60.23068686 -28.96363684 66.03267277 -28.70678711 75.54638672 C-28.59933881 87.47450857 -31.48753075 92.67834207 -39.42515564 101.41522598 C-43.47581444 105.48150578 -48.02438318 108.63191768 -52.73632812 111.88232422 C-67.60181923 122.48985631 -81.73531894 133.87533087 -95.5 145.875 C-96.435401 146.68804596 -96.435401 146.68804596 -97.38969898 147.51751709 C-130.17214939 176.13977925 -151.31020979 204.47594298 -154.56433749 248.91125929 C-155.84208492 269.28803792 -155.68843824 289.60931168 -154.875 310 C-154.83251759 311.06885783 -154.79003517 312.13771566 -154.74626541 313.23896313 C-153.95671715 332.49021919 -152.89505573 351.72667092 -151.10018921 370.91213989 C-151.01907103 371.80140919 -150.93795286 372.69067848 -150.85437655 373.60689533 C-150.4757344 377.74354556 -150.0740601 381.87444536 -149.61716461 386.00320244 C-148.58658607 396.1099364 -149.43745929 403.52701735 -155.75 411.8125 C-161.40769487 417.8702339 -168.45426092 421.59107368 -176.734375 422.3359375 C-187.46385274 422.57734743 -196.30740106 421.32551693 -204.46875 413.703125 C-210.32908685 407.18499524 -212.86620807 400.14678799 -213.875 391.5 C-214.84318804 384.91031709 -216.08318 381.5736647 -221.125 377.125 C-225.44348642 375.43515749 -229.4267052 375.34039017 -234 376 C-238.46811466 378.1934381 -240.90863356 380.48705137 -243 385 C-243.99768719 388.95070771 -244.12990046 392.67640455 -244.1418457 396.74291992 C-244.14705734 397.72941528 -244.14705734 397.72941528 -244.15237427 398.73583984 C-244.1596986 400.15772351 -244.16506159 401.57961837 -244.16866493 403.00151634 C-244.17587709 405.26048721 -244.19157996 407.51924667 -244.21000671 409.77815247 C-244.26224348 416.19883265 -244.31038941 422.61939522 -244.32592773 429.0402832 C-244.33607223 432.97555931 -244.36555759 436.91029873 -244.40724754 440.84536171 C-244.41947025 442.33586866 -244.42469494 443.82645169 -244.42244911 445.31700706 C-244.40760617 458.38670424 -246.45071987 467.20060929 -255.62890625 476.80078125 C-264.63317171 485.15234872 -273.70507954 486.58892685 -285.578125 486.30078125 C-296.13406675 485.76144276 -302.93958874 480.61220184 -310 473 C-314.83271188 466.76387765 -317.29840371 460.59388863 -317.13043213 452.61804199 C-317.10980209 451.35422195 -317.08917206 450.09040192 -317.06791687 448.7882843 C-317.03519822 447.39987156 -317.00246772 446.01145909 -316.96972656 444.62304688 C-316.94298548 443.15050844 -316.91746929 441.67794733 -316.89308167 440.20536804 C-316.85387695 437.85392856 -316.81373634 435.50253505 -316.76981878 433.15117836 C-316.66092389 427.30481376 -316.58983323 421.45885687 -316.54119873 415.61169434 C-316.53407403 414.75993008 -316.52694933 413.90816583 -316.51960874 413.03059053 C-316.49093161 409.51696068 -316.46348989 406.00332216 -316.43657541 402.48967838 C-316.35889548 392.55752204 -316.24566893 382.62878809 -316.02294922 372.69873047 C-315.84592102 364.79469185 -315.74914578 356.89404309 -315.74236083 348.98796701 C-315.73587191 344.814173 -315.69183295 340.64921104 -315.54987335 336.47764587 C-314.64598695 315.32350325 -314.64598695 315.32350325 -324.47930694 297.37879515 C-328.63634585 293.10122758 -333.15701729 289.29442452 -337.90339279 285.68471527 C-340.87568863 283.29634602 -340.95937548 282.32789793 -341.4375 278.46875 C-341.36548459 272.77953248 -338.22784624 268.96373331 -335 264.5 C-334.42765625 263.67757813 -333.8553125 262.85515625 -333.265625 262.0078125 C-331.85990639 259.99294916 -330.43829066 257.99167554 -329 256 C-329.60074341 255.31599121 -329.60074341 255.31599121 -330.21362305 254.61816406 C-332.97118159 251.44636564 -335.6235253 248.35192492 -337.8125 244.75 C-338.21082031 244.10546875 -338.60914063 243.4609375 -339.01953125 242.796875 C-341.20907293 238.78416913 -341.28384465 234.89168189 -341.375 230.4375 C-341.41238281 229.77169922 -341.44976562 229.10589844 -341.48828125 228.41992188 C-341.62916934 220.20927726 -337.62337468 213.45933538 -332.16986752 207.5378685 C-330.65360473 205.9931293 -329.12378159 204.46162189 -327.58299255 202.94134521 C-326.73780833 202.08765547 -325.8926241 201.23396573 -325.02182823 200.3544066 C-322.69360581 198.00786337 -320.35481215 195.67289799 -318.01063859 193.3423562 C-315.4772728 190.81829328 -312.9583925 188.27984095 -310.43754578 185.74328613 C-305.50449702 180.78421696 -300.55802807 175.83875014 -295.60643028 170.89820883 C-291.57969677 166.880052 -287.55770957 162.85720135 -283.53901863 158.83100128 C-282.96588562 158.25681338 -282.3927526 157.68262548 -281.80225192 157.09103794 C-280.63774453 155.9243595 -279.473245 154.7576732 -278.30875326 153.59097913 C-267.40062148 142.66343937 -256.47685938 131.75163189 -245.54790813 120.84491995 C-236.18466362 111.49991931 -226.83608542 102.1404498 -217.49780273 92.77050781 C-206.63835085 81.87424124 -195.76902872 70.98796817 -184.88456494 60.11668229 C-183.7222578 58.95571617 -182.55996667 57.79473402 -181.39769173 56.63373566 C-180.54003455 55.77702448 -180.54003455 55.77702448 -179.66505096 54.903006 C-175.6498739 50.89084835 -171.64186222 46.87161876 -167.63668633 42.84947968 C-162.74975197 37.94215905 -157.85225156 33.04568283 -152.94113397 28.16255972 C-150.43891003 25.6740499 -147.94160066 23.18111044 -145.45726013 20.67473602 C-142.75638722 17.95022791 -140.0323611 15.24962644 -137.30589294 12.55072021 C-136.53494039 11.76570122 -135.76398785 10.98068222 -134.9696731 10.17187476 C-128.51431455 3.84668587 -121.12860519 -0.92803744 -112.1875 -2.796875 C-102.73769718 -2.65790731 -94.68275984 -0.41651597 -87.6640625 6.203125 C-87.11492187 6.79609375 -86.56578125 7.3890625 -86 8 C-82.31627979 6.34409692 -79.25605535 4.06170702 -76 1.6875 C-53.85046799 -13.99494658 -22.88727455 -15.01799386 0 0 Z M-72 21 C-70.52278578 24.45201639 -68.56205999 26.64961936 -65.875 29.25 C-64.78832031 30.30960938 -64.78832031 30.30960938 -63.6796875 31.390625 C-63.12539063 31.92171875 -62.57109375 32.4528125 -62 33 C-58.28308839 31.28196086 -55.36254583 29.0020614 -52.1953125 26.4375 C-47.55153208 23.39673275 -42.84797471 22.65097861 -37.375 22.5 C-36.26898438 22.4484375 -35.16296875 22.396875 -34.0234375 22.34375 C-23.75954722 23.23696949 -15.34374814 30.75911993 -8.47265625 37.765625 C-7.21744423 39.015784 -7.21744423 39.015784 -5.93687439 40.29119873 C-4.18620587 42.04216398 -2.44289851 43.80051808 -0.70678711 45.56591797 C1.93620747 48.24868801 4.6074243 50.90075229 7.28320312 53.55078125 C8.99134296 55.26647909 10.6977829 56.98387136 12.40234375 58.703125 C13.19197006 59.48576721 13.98159637 60.26840942 14.79515076 61.07476807 C21.28314985 67.72886861 26.52432168 75.16608485 27.0625 84.71875 C26.7359517 96.63776291 21.35376515 104.01910833 12.98046875 112.0625 C11.17289753 113.8308537 9.51796265 115.64226153 7.875 117.5625 C4.43704324 121.55775112 0.85318247 125.40448556 -2.75 129.25 C-8.87890202 135.79278717 -14.95305169 142.38140518 -21 149 C-22.83253019 151.00073662 -24.66625561 153.00037626 -26.5 155 C-29.23907634 157.98755385 -31.97777217 160.975453 -34.71484375 163.96484375 C-39.46607587 169.15297078 -44.22614373 174.33267714 -49 179.5 C-55.54849924 186.57983344 -55.54849924 186.57983344 -62.05761719 193.69580078 C-64.14894857 195.99748031 -66.25969369 198.26384879 -68.44140625 200.48046875 C-79.13439487 211.57150432 -84.42527265 224.71186423 -84.36572266 240.08203125 C-83.99532305 256.77380054 -75.25214124 268.42910794 -63.625 279.625 C-62.69816406 280.53378906 -61.77132813 281.44257813 -60.81640625 282.37890625 C-58.55320876 284.59543988 -56.28118052 286.80200418 -54 289 C-50.58940597 287.39464713 -48.38207516 285.59481099 -45.75 282.875 C-45.04359375 282.15054687 -44.3371875 281.42609375 -43.609375 280.6796875 C-43.07828125 280.12539063 -42.5471875 279.57109375 -42 279 C-43.4809503 275.51754072 -45.43583391 273.39086976 -48.17578125 270.8046875 C-49.00400391 270.00546875 -49.83222656 269.20625 -50.68554688 268.3828125 C-52.41902353 266.72795449 -54.15850458 265.07936042 -55.90429688 263.4375 C-62.90910487 256.64430123 -68.49506749 249.35317709 -69.0625 239.28125 C-68.71196889 226.48686465 -61.91784272 218.53294369 -53.3125 209.6875 C-51.88741771 208.19849366 -50.46294061 206.70890789 -49.0390625 205.21875 C-48.34844727 204.49945313 -47.65783203 203.78015625 -46.94628906 203.0390625 C-44.32184777 200.2895224 -41.74724333 197.49718142 -39.1875 194.6875 C-38.32382812 193.74132812 -37.46015625 192.79515625 -36.5703125 191.8203125 C-35.72210938 190.88960937 -34.87390625 189.95890625 -34 189 C-32.18821793 187.02016858 -30.37590259 185.04084523 -28.5625 183.0625 C-27.88513794 182.32326294 -27.88513794 182.32326294 -27.1940918 181.5690918 C-23.30071164 177.32245794 -19.3924936 173.08962214 -15.48291016 168.85791016 C-10.30633676 163.25288452 -5.15207502 157.62753688 0 152 C5.16818 146.35487189 10.33646686 140.71003555 15.53442383 135.09228516 C16.55229446 133.99001208 17.56776555 132.88551831 18.58081055 131.77880859 C20.91209874 129.23482684 23.26008472 126.73953889 25.69921875 124.296875 C36.46231101 113.28654479 42.74632858 100.5246911 43 85 C42.34808477 62.73057575 26.20962092 48.99947698 11.62573242 34.33056641 C10.24754406 32.94079937 8.87384954 31.54656181 7.50463867 30.14794922 C-3.12084255 19.11566951 -3.12084255 19.11566951 -16 11 C-17.46953125 10.27683594 -17.46953125 10.27683594 -18.96875 9.5390625 C-37.17278814 2.96538206 -58.46964595 6.73162664 -72 21 Z M-116.73443699 18.00018597 C-117.4299665 18.63931844 -118.12549601 19.27845092 -118.84210217 19.93695104 C-122.47988648 23.41483912 -126.07045167 26.93306496 -129.62400818 30.49702454 C-130.45501559 31.32647196 -131.286023 32.15591937 -132.14221245 33.01050156 C-134.42713283 35.29214409 -136.70982496 37.57598788 -138.99154985 39.86082518 C-141.46068075 42.3322309 -143.93270258 44.80074222 -146.40434265 47.26963806 C-151.23577442 52.09663654 -156.06451522 56.92631818 -160.89227795 61.756986 C-164.81424889 65.68121901 -168.73719927 69.60447039 -172.6608448 73.52702904 C-173.4997203 74.36567468 -173.4997203 74.36567468 -174.35554277 75.22126266 C-175.49171653 76.35711669 -176.62789254 77.49296848 -177.76407076 78.62881806 C-188.40124157 89.26314164 -199.03535241 99.90052088 -209.66840965 110.53895732 C-218.79665127 119.67167366 -227.92752186 128.80175468 -237.06030273 137.92993164 C-247.67101671 148.53529916 -258.28011332 159.14228027 -268.88661724 169.75185841 C-270.01636458 170.8819243 -271.14611401 172.0119881 -272.27586555 173.14204979 C-272.83171522 173.69805373 -273.38756488 174.25405766 -273.96025847 174.8269102 C-277.88232127 178.7498374 -281.80554523 182.67160106 -285.72921562 186.5929203 C-290.50439207 191.3652981 -295.27779478 196.13944141 -300.04890203 200.91588745 C-302.48422041 203.35384082 -304.92034423 205.79097502 -307.35862732 208.22596359 C-309.99635351 210.86097803 -312.63101337 213.49901953 -315.26487732 216.13789368 C-316.43127995 217.30095023 -316.43127995 217.30095023 -317.62124628 218.48750287 C-318.32194964 219.19081398 -319.02265301 219.8941251 -319.74458981 220.61874866 C-320.65795743 221.53235982 -320.65795743 221.53235982 -321.58977693 222.46442777 C-324.18939358 225.29511409 -324.53193341 228.00298799 -324.45683289 231.81761169 C-323.90139098 234.47107637 -323.02026083 235.55544282 -321.19067383 237.54321289 C-320.55167145 238.23859161 -319.91266907 238.93397034 -319.25430298 239.65042114 C-314.71022407 244.38655104 -310.095055 249.04779506 -305.44921875 253.68359375 C-304.34285653 254.79063089 -303.23664269 255.89781634 -302.13056946 257.00514221 C-299.82849243 259.30868363 -297.52464117 261.61043126 -295.21948242 263.91088867 C-292.26256625 266.86206783 -289.3102169 269.81776876 -286.35914898 272.77479458 C-284.08334999 275.05419902 -281.80518484 277.33122651 -279.52628517 279.60753059 C-278.43587635 280.69727218 -277.3462103 281.78775751 -276.25729942 282.8789959 C-274.74253855 284.39628736 -273.22462531 285.91035198 -271.70581055 287.42358398 C-270.84312057 288.28547836 -269.9804306 289.14737274 -269.09159851 290.03538513 C-265.96034757 292.97653379 -263.52598996 293.53081335 -259.19433981 293.46876162 C-256.46877247 292.88651754 -255.30498386 291.8840651 -253.26556301 289.99981403 C-252.22226875 289.04111532 -252.22226875 289.04111532 -251.15789783 288.06304896 C-247.52011352 284.58516088 -243.92954833 281.06693504 -240.37599182 277.50297546 C-239.54498441 276.67352804 -238.713977 275.84408063 -237.85778755 274.98949844 C-235.57286717 272.70785591 -233.29017504 270.42401212 -231.00845015 268.13917482 C-228.53931925 265.6677691 -226.06729742 263.19925778 -223.59565735 260.73036194 C-218.76422558 255.90336346 -213.93548478 251.07368182 -209.10772205 246.243014 C-205.18575111 242.31878099 -201.26280073 238.39552961 -197.3391552 234.47297096 C-196.5002797 233.63432532 -196.5002797 233.63432532 -195.64445723 232.77873734 C-194.50828347 231.64288331 -193.37210746 230.50703152 -192.23592924 229.37118194 C-181.59875843 218.73685836 -170.96464759 208.09947912 -160.33159035 197.46104268 C-151.20334873 188.32832634 -142.07247814 179.19824532 -132.93969727 170.07006836 C-122.32898329 159.46470084 -111.71988668 148.85771973 -101.11338276 138.24814159 C-99.98363542 137.1180757 -98.85388599 135.9880119 -97.72413445 134.85795021 C-97.16828478 134.30194627 -96.61243512 133.74594234 -96.03974153 133.1730898 C-92.11767873 129.2501626 -88.19445477 125.32839894 -84.27078438 121.4070797 C-79.49560793 116.6347019 -74.72220522 111.86055859 -69.95109797 107.08411255 C-67.51577959 104.64615918 -65.07965577 102.20902498 -62.64137268 99.77403641 C-60.00364649 97.13902197 -57.36898663 94.50098047 -54.73512268 91.86210632 C-53.95752092 91.08673529 -53.17991917 90.31136425 -52.37875372 89.51249713 C-51.67805036 88.80918602 -50.97734699 88.1058749 -50.25541019 87.38125134 C-49.64649844 86.77217723 -49.03758669 86.16310313 -48.41022307 85.53557223 C-45.81060642 82.70488591 -45.46806659 79.99701201 -45.54316711 76.18238831 C-46.09860902 73.52892363 -46.97973917 72.44455718 -48.80932617 70.45678711 C-49.44832855 69.76140839 -50.08733093 69.06602966 -50.74569702 68.34957886 C-55.28977593 63.61344896 -59.904945 58.95220494 -64.55078125 54.31640625 C-65.65714347 53.20936911 -66.76335731 52.10218366 -67.86943054 50.99485779 C-70.17150757 48.69131637 -72.47535883 46.38956874 -74.78051758 44.08911133 C-77.73743375 41.13793217 -80.6897831 38.18223124 -83.64085102 35.22520542 C-85.91665001 32.94580098 -88.19481516 30.66877349 -90.47371483 28.39246941 C-91.56412365 27.30272782 -92.6537897 26.21224249 -93.74270058 25.1210041 C-95.25746145 23.60371264 -96.77537469 22.08964802 -98.29418945 20.57641602 C-99.15687943 19.71452164 -100.0195694 18.85262726 -100.90840149 17.96461487 C-104.03965243 15.02346621 -106.47401004 14.46918665 -110.80566019 14.53123838 C-113.53122753 15.11348246 -114.69501614 16.1159349 -116.73443699 18.00018597 Z M-167.2876215 228.17295361 C-167.83675929 228.72690965 -168.38589708 229.28086569 -168.95167542 229.85160828 C-169.58096451 230.48385818 -170.2102536 231.11610809 -170.85861206 231.76751709 C-171.55310455 232.47031799 -172.24759705 233.1731189 -172.96313477 233.8972168 C-174.05598534 234.99707664 -174.05598534 234.99707664 -175.1709137 236.11915588 C-176.76033074 237.71911034 -178.34867633 239.32012971 -179.9360981 240.92206383 C-182.45152759 243.45942835 -184.9708374 245.99287549 -187.49143982 248.52510071 C-194.66067736 255.72800575 -201.82603736 262.93472755 -208.98071289 270.15209961 C-213.35201757 274.56114562 -217.73067988 278.96276964 -222.11408806 283.35978127 C-223.78214865 285.03588049 -225.44743101 286.7147495 -227.10983467 288.39645958 C-229.44334182 290.75657191 -231.78610952 293.10711875 -234.13110352 295.45581055 C-234.81142639 296.1484903 -235.49174927 296.84117004 -236.19268799 297.55484009 C-244.41131418 305.73954427 -251.22489149 309.3125 -262.88110352 309.3125 C-273.39119536 309.10398054 -278.63133414 304.02752392 -286 297 C-287.75129657 298.10210905 -289.50098464 299.20677432 -291.25 300.3125 C-292.71179688 301.23482422 -292.71179688 301.23482422 -294.203125 302.17578125 C-295.12609375 302.77777344 -296.0490625 303.37976563 -297 304 C-298.06123046 304.62148658 -298.06123046 304.62148658 -299.14389992 305.25552845 C-301.23869726 306.88307974 -301.23869726 306.88307974 -301.49777794 309.58008099 C-301.4966884 310.62145623 -301.49559887 311.66283148 -301.49447632 312.73576355 C-301.5028653 313.93155029 -301.51125427 315.12733704 -301.51989746 316.35935974 C-301.50865845 317.67316116 -301.49741943 318.98696259 -301.48583984 320.34057617 C-301.48798559 321.73689123 -301.49186312 323.13320455 -301.49734497 324.5295105 C-301.50705119 328.32537885 -301.49171597 332.12077788 -301.47143888 335.9165895 C-301.45387413 339.89135312 -301.45739297 343.86610209 -301.4581604 347.84089661 C-301.45628608 354.52169643 -301.43891104 361.20231483 -301.41162109 367.88305664 C-301.38023314 375.59524818 -301.36962266 383.30724055 -301.3710922 391.01949137 C-301.37244653 399.23813721 -301.35853746 407.45670671 -301.34019899 415.67532945 C-301.33594674 418.0378354 -301.334518 420.40032894 -301.33372116 422.76283836 C-301.33170229 426.48683632 -301.31941177 430.21066899 -301.29938889 433.93461227 C-301.29081903 435.94405675 -301.29187687 437.95353517 -301.29327393 439.96299744 C-301.23020963 448.90800109 -301.02868834 456.86076381 -295 464 C-290.71903876 467.91904423 -286.79481555 469.36159929 -281 469.625 C-275.21220918 469.34765315 -271.20303906 468.03764169 -267 464 C-261.69820787 457.54506808 -260.88278414 451.47861574 -260.8581543 443.23535156 C-260.85467987 442.58729553 -260.85120544 441.9392395 -260.84762573 441.27154541 C-260.8403142 439.87368869 -260.83494451 438.47582071 -260.83133507 437.07794952 C-260.82410839 434.85670324 -260.80839595 432.63567015 -260.78999329 430.41448975 C-260.73781802 424.10220282 -260.68960276 417.79003696 -260.67407227 411.47753906 C-260.66392672 407.60594463 -260.63444198 403.73489557 -260.59275246 399.86351776 C-260.58053457 398.39813126 -260.57530416 396.93266746 -260.57755089 395.46723175 C-260.58896705 385.5902696 -259.84105302 376.84080647 -253.75 368.6875 C-245.98119846 361.09526213 -237.84871697 358.59642301 -227.11962891 358.63208008 C-218.32054006 358.84514041 -211.17603102 361.68034035 -205 368 C-200.24420432 374.39846605 -198.05017355 380.56994102 -197.125 388.5 C-196.13430653 395.198612 -194.43098047 398.80054148 -189.375 403.375 C-184.79729761 405.57907893 -180.99447589 405.7971639 -176 405 C-171.1235371 402.65207342 -168.59662386 399.71239146 -166 395 C-164.95643817 391.04345469 -164.87660424 387.29108581 -164.87974548 383.21061707 C-164.87889106 382.54072591 -164.87803663 381.87083475 -164.87715632 381.18064386 C-164.87551364 378.94356255 -164.88100297 376.70655679 -164.88647461 374.46948242 C-164.88675677 372.86285402 -164.88659818 371.25622549 -164.8860321 369.64959717 C-164.88574525 365.29258288 -164.8916239 360.93559614 -164.89860606 356.57858825 C-164.90485823 352.02352904 -164.90544488 347.4684692 -164.90663147 342.91340637 C-164.90973928 334.28977876 -164.91794528 325.66616383 -164.92798096 317.0425418 C-164.93915915 307.22399287 -164.94465685 297.40544333 -164.94967639 287.58688962 C-164.96012834 267.39125267 -164.97771716 247.19562714 -165 227 C-166.16708675 226.88776279 -166.16708675 226.88776279 -167.2876215 228.17295361 Z M-316 268 C-317.05654417 269.47506444 -318.0707001 270.98064696 -319.0625 272.5 C-320.031875 273.985 -321.00125 275.47 -322 277 C-317.38 281.62 -312.76 286.24 -308 291 C-305.03 289.02 -302.06 287.04 -299 285 C-303.97161218 278.98173262 -309.29829243 273.33662648 -315 268 C-315.33 268 -315.66 268 -316 268 Z M-35.1875 294.5625 C-36.03030518 295.41626221 -36.87311035 296.27002441 -37.74145508 297.1496582 C-41.92756076 301.69804338 -45.03142775 305.3737828 -45.31176758 311.70092773 C-45.13393692 314.54377258 -44.70492178 317.24214811 -44 320 C-39.33125463 316.10023279 -34.90872191 312.04785356 -30.62890625 307.7265625 C-30.06171371 307.15795502 -29.49452118 306.58934753 -28.91014099 306.00350952 C-27.12520087 304.21303764 -25.34379744 302.41909516 -23.5625 300.625 C-22.34203061 299.39950677 -21.12132947 298.17424428 -19.90039062 296.94921875 C-16.93091244 293.96880226 -13.96459743 290.98527106 -11 288 C-14.85522876 285.4298475 -17.4478557 285.3063009 -22.01416016 285.40185547 C-27.75368587 286.55163781 -31.24785303 290.45721988 -35.1875 294.5625 Z M7.86129761 292.89819336 C6.9774942 293.78643799 6.0936908 294.67468262 5.18310547 295.58984375 C4.69513489 296.07752228 4.20716431 296.56520081 3.70440674 297.06765747 C2.08721696 298.68624436 0.4772323 300.31180819 -1.1328125 301.9375 C-2.2505306 303.05894688 -3.3686901 304.17995399 -4.48727417 305.30053711 C-7.43442656 308.25533664 -10.37552465 311.2160925 -13.31542969 314.17810059 C-16.31474719 317.19785326 -19.31971337 320.21197304 -22.32421875 323.2265625 C-28.22170991 329.14552262 -34.11282121 335.07078287 -40 341 C-38.2063873 344.80635455 -36.28946017 347.29533275 -33 350 C-29.63192727 351.03361247 -29.63192727 351.03361247 -26 351 C-23.27550951 349.47998982 -23.27550951 349.47998982 -20.96679688 347.00195312 C-19.58131653 345.65429871 -19.58131653 345.65429871 -18.16784668 344.27941895 C-17.18378776 343.28104022 -16.20078002 342.28162446 -15.21875 341.28125 C-14.19619365 340.26408529 -13.17245244 339.24811044 -12.14758301 338.23327637 C-10.00635111 336.10382712 -7.88022557 333.96061196 -5.76367188 331.80664062 C-3.05217747 329.04956121 -0.30633529 326.32997002 2.45185089 323.61969757 C4.5716855 321.52880248 6.6720569 319.41918618 8.76707458 317.30345154 C9.77230617 316.29289156 10.78349196 315.28821794 11.80067444 314.28968811 C13.22047713 312.89024973 14.61193825 311.4622329 16.00195312 310.03320312 C16.80024536 309.22854614 17.5985376 308.42388916 18.42102051 307.59484863 C20.33978088 304.98195842 20.33978088 304.98195842 19.84729004 301.32385254 C18.95596145 297.82724022 18.1816068 296.46380166 15.5625 294.0625 C14.63630859 293.18271484 14.63630859 293.18271484 13.69140625 292.28515625 C10.99824404 290.23885055 10.3738576 290.66818478 7.86129761 292.89819336 Z M26.96679688 320.99804688 C26.04314331 321.89648315 25.11948975 322.79491943 24.16784668 323.72058105 C23.18378776 324.71895978 22.20078002 325.71837554 21.21875 326.71875 C20.19619365 327.73591471 19.17245244 328.75188956 18.14758301 329.76672363 C16.00635111 331.89617288 13.88022557 334.03938804 11.76367188 336.19335938 C9.05217747 338.95043879 6.30633529 341.67002998 3.54814911 344.38030243 C1.4283145 346.47119752 -0.6720569 348.58081382 -2.76707458 350.69654846 C-3.77230617 351.70710844 -4.78349196 352.71178206 -5.80067444 353.71031189 C-7.22047713 355.10975027 -8.61193825 356.5377671 -10.00195312 357.96679688 C-10.80024536 358.77145386 -11.5985376 359.57611084 -12.42102051 360.40515137 C-14.27171932 362.97523562 -14.27171932 362.97523562 -14.14016724 366.37576294 C-12.64525243 371.1276322 -10.26090862 373.58399069 -6.75537109 377.02099609 C-6.10322632 377.68365479 -5.45108154 378.34631348 -4.7791748 379.02905273 C-2.62541739 381.20915678 -0.45052369 383.36664802 1.7265625 385.5234375 C3.23381975 387.03473779 4.74018549 388.54692771 6.24569702 390.05996704 C9.40201659 393.22512603 12.56891707 396.37919488 15.74365234 399.52587891 C19.80950394 403.55754658 23.84782384 407.61555271 27.87859535 411.6822567 C30.98360764 414.80896406 34.10278677 417.92122232 37.22642136 421.02931595 C38.72113789 422.5200338 40.21142067 424.01521114 41.69713211 425.51490402 C43.77690241 427.60993588 45.87498291 429.68473304 47.97900391 431.75537109 C48.58811615 432.37662872 49.19722839 432.99788635 49.82479858 433.63796997 C52.75965352 436.48726359 54.64949704 437.88973348 58.62423706 439.14016724 C62.88461419 438.96326936 64.03411331 437.97732048 67.03320312 435.00195312 C67.95685669 434.10351685 68.88051025 433.20508057 69.83215332 432.27941895 C70.81621224 431.28104022 71.79921998 430.28162446 72.78125 429.28125 C73.80380635 428.26408529 74.82754756 427.24811044 75.85241699 426.23327637 C77.99364889 424.10382712 80.11977443 421.96061196 82.23632812 419.80664062 C84.94782253 417.04956121 87.69366471 414.32997002 90.45185089 411.61969757 C92.5716855 409.52880248 94.6720569 407.41918618 96.76707458 405.30345154 C97.77230617 404.29289156 98.78349196 403.28821794 99.80067444 402.28968811 C101.22047713 400.89024973 102.61193825 399.4622329 104.00195312 398.03320312 C104.80024536 397.22854614 105.5985376 396.42388916 106.42102051 395.59484863 C108.27171932 393.02476438 108.27171932 393.02476438 108.14016724 389.62423706 C106.64525243 384.8723678 104.26090862 382.41600931 100.75537109 378.97900391 C100.10322632 378.31634521 99.45108154 377.65368652 98.7791748 376.97094727 C96.62541739 374.79084322 94.45052369 372.63335198 92.2734375 370.4765625 C90.76618025 368.96526221 89.25981451 367.45307229 87.75430298 365.94003296 C84.59798341 362.77487397 81.43108293 359.62080512 78.25634766 356.47412109 C74.19049606 352.44245342 70.15217616 348.38444729 66.12140465 344.3177433 C63.01639236 341.19103594 59.89721323 338.07877768 56.77357864 334.97068405 C55.27886211 333.4799662 53.78857933 331.98478886 52.30286789 330.48509598 C50.22309759 328.39006412 48.12501709 326.31526696 46.02099609 324.24462891 C45.41188385 323.62337128 44.80277161 323.00211365 44.17520142 322.36203003 C41.24034648 319.51273641 39.35050296 318.11026652 35.37576294 316.85983276 C31.11538581 317.03673064 29.96588669 318.02267952 26.96679688 320.99804688 Z M117.40515137 406.57897949 C116.60049438 407.37727173 115.7958374 408.17556396 114.96679688 408.99804688 C114.04314331 409.89648315 113.11948975 410.79491943 112.16784668 411.72058105 C111.18378776 412.71895978 110.20078002 413.71837554 109.21875 414.71875 C108.19619365 415.73591471 107.17245244 416.75188956 106.14758301 417.76672363 C104.00635111 419.89617288 101.88022557 422.03938804 99.76367188 424.19335938 C97.05217747 426.95043879 94.30633529 429.67002998 91.54814911 432.38030243 C89.4283145 434.47119752 87.3279431 436.58081382 85.23292542 438.69654846 C84.22769383 439.70710844 83.21650804 440.71178206 82.19932556 441.71031189 C80.77952287 443.10975027 79.38806175 444.5377671 77.99804688 445.96679688 C77.19975464 446.77145386 76.4014624 447.57611084 75.57897949 448.40515137 C73.65447811 451.02124089 73.65447811 451.02124089 74.18211365 454.69606018 C75.30633146 459.23745884 77.29096391 461.253844 80.5625 464.4375 C81.06330078 464.97826172 81.56410156 465.51902344 82.08007812 466.07617188 C82.59119141 466.58599609 83.10230469 467.09582031 83.62890625 467.62109375 C84.08338135 468.0792749 84.53785645 468.53745605 85.00610352 469.00952148 C88.48028501 470.73533933 91.33011016 471.04475605 95 470 C98.89240981 467.3150143 102.0993328 464.02130253 105.40625 460.65625 C106.380143 459.6877523 107.35522041 458.72044428 108.3314209 457.75427246 C110.36832814 455.7291308 112.39013852 453.69030393 114.40234375 451.640625 C116.97585642 449.02152742 119.58363787 446.44000628 122.20383453 443.86771393 C124.22251207 441.87802277 126.22165134 439.86957052 128.21549988 437.85502625 C129.63179299 436.43084326 131.06413985 435.02268314 132.4967041 433.61486816 C137.81866815 428.43450975 137.81866815 428.43450975 139.73266602 421.56030273 C138.97032825 417.6204068 138.97032825 417.6204068 136.62109375 414.62890625 C136.11126953 414.11779297 135.60144531 413.60667969 135.07617188 413.08007812 C134.53541016 412.57927734 133.99464844 412.07847656 133.4375 411.5625 C132.92380859 411.03462891 132.41011719 410.50675781 131.88085938 409.96289062 C127.72593109 405.94215878 122.95169407 403.20387812 117.40515137 406.57897949 Z " fill="#000000" transform="translate(349,18)"/>
</svg>
