<?xml version="1.0" encoding="UTF-8"?>
<svg version="1.1" xmlns="http://www.w3.org/2000/svg" width="512" height="512">
<path d="M0 0 C1.4240918 0.29003906 1.4240918 0.29003906 2.87695312 0.5859375 C32.4362514 6.66670743 61.5852817 17.96175143 86 36 C87.24449847 36.8871302 88.48931425 37.77381536 89.734375 38.66015625 C98.92507315 45.29232066 107.28862646 52.55425882 115.40771484 60.45458984 C116.77528763 61.7819029 118.16130336 63.09016686 119.55078125 64.39453125 C126.10868436 70.67287899 131.56278005 77.75686018 137 85 C137.42958008 85.56879883 137.85916016 86.13759766 138.30175781 86.72363281 C159.04090031 114.35985734 171.95547887 145.29647356 179 179 C179.18079102 179.82000488 179.36158203 180.64000977 179.54785156 181.48486328 C184.97274272 206.8891001 184.51972463 237.66471601 179 263 C178.71793701 264.40813965 178.71793701 264.40813965 178.43017578 265.84472656 C172.46511493 295.37106597 160.88381476 324.58875936 143 349 C142.1236789 350.2356636 141.24737827 351.47134171 140.37109375 352.70703125 C133.03157846 362.90239391 124.79417622 372.04454062 116 381 C115.39768555 381.61625244 114.79537109 382.23250488 114.17480469 382.86743164 C109.10059273 388.00963859 103.65784442 392.51046371 98 397 C96.98679687 397.81855469 95.97359375 398.63710938 94.9296875 399.48046875 C87.04372836 405.77602348 78.80076435 411.0774032 70 416 C69.23187988 416.4345752 68.46375977 416.86915039 67.67236328 417.31689453 C46.22986425 429.34811534 24.06364801 437.09905336 0 442 C-0.81275391 442.17789062 -1.62550781 442.35578125 -2.46289062 442.5390625 C-27.8595078 447.96734709 -58.67194829 447.53308888 -84 442 C-84.84111328 441.82839355 -85.68222656 441.65678711 -86.54882812 441.47998047 C-130.67529684 432.39655175 -168.48429392 410.77379325 -201 380 C-202.2065625 378.87464844 -202.2065625 378.87464844 -203.4375 377.7265625 C-210.02768908 371.39527371 -215.52670607 364.29119542 -221 357 C-221.64437012 356.14680176 -221.64437012 356.14680176 -222.30175781 355.27636719 C-243.04090031 327.64014266 -255.95547887 296.70352644 -263 263 C-263.18079102 262.17999512 -263.36158203 261.35999023 -263.54785156 260.51513672 C-268.96936103 235.12673603 -268.54137771 204.31767137 -263 179 C-262.70996094 177.5759082 -262.70996094 177.5759082 -262.4140625 176.12304688 C-256.33329257 146.5637486 -245.03824857 117.4147183 -227 93 C-226.1128698 91.75550153 -225.22618464 90.51068575 -224.33984375 89.265625 C-217.70767934 80.07492685 -210.44574118 71.71137354 -202.54541016 63.59228516 C-201.2180971 62.22471237 -199.90983314 60.83869664 -198.60546875 59.44921875 C-192.32712101 52.89131564 -185.24313982 47.43721995 -178 42 C-177.43120117 41.57041992 -176.86240234 41.14083984 -176.27636719 40.69824219 C-148.64014266 19.95909969 -117.70352644 7.04452113 -84 0 C-83.17999512 -0.18079102 -82.35999023 -0.36158203 -81.51513672 -0.54785156 C-56.12673603 -5.96936103 -25.31767137 -5.54137771 0 0 Z M-140 38 C-140.60585937 38.32226562 -141.21171875 38.64453125 -141.8359375 38.9765625 C-156.19428819 46.68868972 -168.75979236 56.30389214 -181 67 C-181.84691406 67.72316406 -182.69382812 68.44632813 -183.56640625 69.19140625 C-188.51279799 73.46823566 -192.80008185 77.9992861 -197 83 C-197.81082031 83.91136719 -198.62164062 84.82273437 -199.45703125 85.76171875 C-228.81423734 118.99972084 -248.78947255 164.97902904 -249.23828125 209.65234375 C-249.2480751 210.46137146 -249.25786896 211.27039917 -249.26795959 212.10394287 C-249.7977966 267.26897637 -233.64050717 318.74500704 -196 360 C-183.44603109 354.46826814 -168.95535641 341.32931023 -163 329 C-159.29911696 316.02900974 -160.57722976 301.3100797 -161.86538696 288.03053284 C-162.40483394 281.58971224 -162.40483394 281.58971224 -160.32348633 278.55786133 C-157.99538955 276.99690877 -155.70312237 275.53245051 -153.234375 274.203125 C-151.90019531 273.47802734 -151.90019531 273.47802734 -150.5390625 272.73828125 C-149.61867188 272.24714844 -148.69828125 271.75601562 -147.75 271.25 C-146.34621094 270.49009766 -146.34621094 270.49009766 -144.9140625 269.71484375 C-142.61269477 268.47022651 -140.30802355 267.23221753 -138 266 C-138.01571045 264.95884033 -138.0314209 263.91768066 -138.04760742 262.8449707 C-138.57587438 224.48031372 -138.57587438 224.48031372 -135 207 C-134.81920898 206.08927734 -134.63841797 205.17855469 -134.45214844 204.24023438 C-133.97249808 201.82590966 -133.48816294 199.41261528 -133 197 C-135.64 197 -138.28 197 -141 197 C-141.41362793 198.25135742 -141.82725586 199.50271484 -142.25341797 200.79199219 C-143.78975236 205.43721288 -145.33006624 210.08110582 -146.87158203 214.72460938 C-147.53803276 216.73401509 -148.20340571 218.7437786 -148.86767578 220.75390625 C-149.82300801 223.64417895 -150.78221675 226.53314012 -151.7421875 229.421875 C-152.03809784 230.31992859 -152.33400818 231.21798218 -152.6388855 232.14324951 C-152.91902496 232.98381897 -153.19916443 233.82438843 -153.48779297 234.69042969 C-153.73206024 235.42767273 -153.97632751 236.16491577 -154.22799683 236.92449951 C-156.15566999 242.1069738 -158.73185158 244.65015091 -163.125 247.9375 C-164.3969315 248.91132775 -165.66771992 249.8866499 -166.9375 250.86328125 C-167.60265625 251.3732666 -168.2678125 251.88325195 -168.953125 252.40869141 C-171.70458114 254.54776478 -174.40093576 256.7503383 -177.09545898 258.96044922 C-179.75905208 261.14502491 -182.43744329 263.31098876 -185.11767578 265.47509766 C-186.33609707 266.46216112 -187.55087671 267.45374403 -188.76123047 268.45068359 C-190.34840692 269.75425362 -191.95497565 271.03410673 -193.5625 272.3125 C-194.45066406 273.03050781 -195.33882812 273.74851562 -196.25390625 274.48828125 C-199.73028627 276.40202103 -202.08744381 276.38756453 -206 276 C-208.4375 274.4375 -208.4375 274.4375 -210 272 C-210.5625 268.5625 -210.5625 268.5625 -210 265 C-206.1430615 260.6332363 -201.56717569 257.05144581 -197.0625 253.375 C-196.3190332 252.76470947 -195.57556641 252.15441895 -194.80957031 251.52563477 C-189.45643106 247.14667554 -184.04706342 242.84367817 -178.55493164 238.64013672 C-171.18362086 232.94397064 -168.04180566 228.56155648 -165.30078125 219.7734375 C-164.81909737 218.29648911 -164.81909737 218.29648911 -164.3276825 216.78970337 C-163.30826765 213.65589772 -162.30952249 210.51599387 -161.3125 207.375 C-160.30112464 204.22817851 -159.28547659 201.0828142 -158.2651825 197.93887329 C-157.63254829 195.9853876 -157.00572552 194.03000828 -156.3853302 192.07260132 C-156.10130844 191.18803253 -155.81728668 190.30346375 -155.5246582 189.39208984 C-155.27770706 188.61441254 -155.03075592 187.83673523 -154.77632141 187.03549194 C-154 185 -154 185 -152 182 C-148.96039901 180.98679967 -147.31939419 180.98295245 -144.17578125 181.17578125 C-135.50469902 181.47113067 -135.50469902 181.47113067 -127 180 C-123.29455144 176.49814752 -121.75544422 172.62407911 -119.92089844 167.99462891 C-118.28450103 164.45025806 -115.88234014 161.51983333 -113.4375 158.5 C-112.96892578 157.91307373 -112.50035156 157.32614746 -112.01757812 156.72143555 C-108.69420644 152.64632094 -105.20790656 149.17930718 -101 146 C-102.41880695 142.17123373 -103.84855526 138.34746767 -105.30078125 134.53125 C-106.39374162 131.65121004 -107.43068807 128.76157314 -108.41796875 125.84375 C-111.31569882 117.53876753 -114.33080073 112.64669577 -122 108 C-123.98690773 106.69944056 -125.96190032 105.38199002 -127.93579102 104.06176758 C-129.29588687 103.15627029 -130.66217978 102.26000277 -132.03491211 101.3737793 C-136.89221773 98.21556454 -136.89221773 98.21556454 -138 96 C-138.35872645 92.12575435 -138.56710729 89.85066094 -136.375 86.5625 C-133.22747269 84.49175835 -131.7439593 84.57425082 -128 85 C-125.25862726 86.23487592 -122.81091234 87.83539407 -120.3125 89.5 C-119.61278076 89.95632812 -118.91306152 90.41265625 -118.19213867 90.8828125 C-116.78103326 91.80942167 -115.37444711 92.74295278 -113.97265625 93.68359375 C-112.22870097 94.84738173 -110.45976489 95.97354483 -108.6875 97.09375 C-107.73875 97.7228125 -106.79 98.351875 -105.8125 99 C-104.99394531 99.53625 -104.17539063 100.0725 -103.33203125 100.625 C-97.03137814 107.04174555 -94.34187094 116.8742993 -91.1875 125.125 C-90.78080078 126.176875 -90.37410156 127.22875 -89.95507812 128.3125 C-88.96566047 130.87334568 -87.98072515 133.43581571 -87 136 C-82.57106178 134.9787583 -82.57106178 134.9787583 -79.53125 131.828125 C-79.1909375 130.97734375 -78.850625 130.1265625 -78.5 129.25 C-76.93227704 125.6739522 -75.62486773 123.37719382 -72.625 120.875 C-69.6037538 118.20251943 -69.6037538 118.20251943 -69.9375 114.375 C-70.27638353 112.91303964 -70.63258707 111.45505253 -71 110 C-71.18369141 108.56527344 -71.18369141 108.56527344 -71.37109375 107.1015625 C-72.3795796 100.89429298 -73.79309369 97.51022792 -78.9375 93.75 C-80.94054449 92.47168856 -82.96265987 91.22291151 -85 90 C-87.22309254 88.56302003 -89.42232668 87.09344888 -91.625 85.625 C-92.62789062 84.97789063 -93.63078125 84.33078125 -94.6640625 83.6640625 C-97 82 -97 82 -98 80 C-98.35872645 76.12575435 -98.56710729 73.85066094 -96.375 70.5625 C-93.22747269 68.49175835 -91.7439593 68.57425082 -88 69 C-85.25860916 70.23488407 -82.81114762 71.83573886 -80.3125 73.5 C-79.26509644 74.18122925 -79.26509644 74.18122925 -78.1965332 74.8762207 C-76.12099574 76.23631857 -74.06054273 77.61733419 -72 79 C-70.8724077 79.73309117 -69.74480458 80.46616569 -68.6171875 81.19921875 C-67.65039062 81.85535156 -66.68359375 82.51148437 -65.6875 83.1875 C-64.42486328 84.04408203 -64.42486328 84.04408203 -63.13671875 84.91796875 C-58.55961647 89.37792399 -57.33383096 95.90822164 -55.8125 101.9375 C-55.214375 104.268125 -54.61625 106.59875 -54 109 C-46.41 109 -38.82 109 -31 109 C-29.55950951 102.64764925 -29.55950951 102.64764925 -28.15942383 96.28637695 C-25.64075013 85.71646725 -18.26788459 81.89102783 -9.5625 76.1875 C-8.53833984 75.49462891 -7.51417969 74.80175781 -6.45898438 74.08789062 C-5.46318359 73.43369141 -4.46738281 72.77949219 -3.44140625 72.10546875 C-2.09091187 71.21057739 -2.09091187 71.21057739 -0.71313477 70.29760742 C2.47291714 68.77381854 4.50779392 68.59796544 8 69 C11.32274404 71.45594125 12.77618008 72.9256644 13.625 77 C12.66844925 81.59144362 9.67916981 83.842145 5.95068359 86.41308594 C2.79508513 88.43359168 -0.37705445 90.4219519 -3.58203125 92.36328125 C-9.91606438 96.3940296 -11.61852366 99.31627808 -13.73046875 106.4765625 C-13.95669922 107.54003906 -13.95669922 107.54003906 -14.1875 108.625 C-14.34605469 109.33914062 -14.50460937 110.05328125 -14.66796875 110.7890625 C-15.49369863 115.62891087 -15.49369863 115.62891087 -13.609375 119.95703125 C-12.99578125 120.56933594 -12.3821875 121.18164062 -11.75 121.8125 C-9.1622533 124.55093878 -7.39021548 126.92506724 -5.875 130.375 C-4.5338506 133.34885302 -4.26176208 133.85722069 -1.25 135.5 C-0.5075 135.665 0.235 135.83 1 136 C3.44457672 131.50478496 5.29314783 127.27178407 6.69921875 122.34765625 C12.13604561 104.49471309 21.12665123 95.94234107 37.16894531 87.28149414 C41.00165466 85.54659492 43.79522435 84.91821375 48 85 C51.48304057 87.39459039 52.7607855 88.85177042 53.625 93 C52.82298825 96.84965639 51.02057449 98.66281736 48 101 C46.53801363 101.79412752 45.05517609 102.5505123 43.55859375 103.27734375 C30.93050786 109.64496338 25.52532821 116.71061499 20.6875 129.625 C20.30306229 130.64821854 20.30306229 130.64821854 19.91085815 131.69210815 C16.67241098 139.23923247 16.67241098 139.23923247 17 147 C19.98093009 145.65972043 22.06345315 144.18468111 24.36627197 141.87423706 C25.33373352 140.91089951 25.33373352 140.91089951 26.32073975 139.92810059 C27.01701477 139.22463501 27.71328979 138.52116943 28.43066406 137.79638672 C29.17251953 137.0548233 29.914375 136.31325989 30.67871094 135.54922485 C33.12911939 133.09742329 35.572368 130.63861395 38.015625 128.1796875 C39.71341057 126.47817175 41.41163829 124.77709708 43.11029053 123.07644653 C47.57974916 118.59935194 52.04316914 114.11628362 56.50537109 109.63195801 C61.05985468 105.05701531 65.62000567 100.48772952 70.1796875 95.91796875 C79.12535692 86.95085005 88.0648529 77.97760292 97 69 C87.19473443 47.81441489 48.33514983 32.73504446 27.69238281 25.15234375 C-27.5075244 5.56146369 -88.47579505 10.45032307 -140 38 Z M107.52013206 82.23377228 C106.93940248 82.81634544 106.3586729 83.39891861 105.76034546 83.99914551 C105.09287796 84.66386368 104.42541046 85.32858185 103.73771667 86.01344299 C103.00619888 86.75215134 102.27468109 87.49085968 101.52099609 88.25195312 C100.75017197 89.0224852 99.97934784 89.79301727 99.18516541 90.5868988 C96.62649001 93.14697279 94.07498034 95.71406875 91.5234375 98.28125 C89.75553172 100.05288402 87.98718524 101.82407837 86.21841431 103.59484863 C82.03216111 107.78797016 77.85038658 111.98552387 73.67073691 116.18522501 C68.44648354 121.43399763 63.21534954 126.67589597 57.984375 131.91796875 C48.65069889 141.27312117 39.32319196 150.63439982 30 160 C30.54269531 160.94101563 31.08539063 161.88203125 31.64453125 162.8515625 C32.36727516 164.10932463 33.08992648 165.36713997 33.8125 166.625 C34.16892578 167.24246094 34.52535156 167.85992187 34.89257812 168.49609375 C37.05913172 172.27265506 39.0904299 176.08447772 41 180 C42.0058313 180.00616333 42.0058313 180.00616333 43.03198242 180.01245117 C46.08470391 180.04544643 49.1354453 180.1160962 52.1875 180.1875 C53.77014648 180.19620117 53.77014648 180.19620117 55.38476562 180.20507812 C56.91713867 180.24858398 56.91713867 180.24858398 58.48046875 180.29296875 C59.41785889 180.3086792 60.35524902 180.32438965 61.32104492 180.34057617 C65.22173658 181.30073002 66.5560518 182.81523158 69 186 C70.39306849 189.2225713 71.32994612 192.53364091 72.27734375 195.91015625 C72.87901544 197.89053511 73.48259443 199.87033532 74.08789062 201.84960938 C75.01626 204.94214072 75.93015299 208.03655207 76.80981445 211.14331055 C80.69341934 224.72994619 84.44907949 233.85025529 96.3744812 241.89962769 C98.59380111 243.40196539 100.67119456 245.06881005 102.76953125 246.734375 C104.11499707 247.74251332 105.46258815 248.74782279 106.8125 249.75 C123.53084119 262.43613729 123.53084119 262.43613729 125.125 267.75 C124.92307692 273 124.92307692 273 124 275 C120.37547882 276.20817373 117.81284931 276.33559543 114 276 C111.03515625 274.26953125 111.03515625 274.26953125 108.0625 271.8125 C107.51456787 271.3683374 106.96663574 270.9241748 106.40209961 270.46655273 C105.21515137 269.50135849 104.03443018 268.52846652 102.859375 267.54882812 C100.28127692 265.40131575 97.6706126 263.29489773 95.06225586 261.18432617 C93.79199706 260.15413094 92.52427422 259.12079473 91.26000977 258.08325195 C90.64955811 257.58269287 90.03910645 257.08213379 89.41015625 256.56640625 C88.75192871 256.01106201 88.09370117 255.45571777 87.41552734 254.88354492 C84.90991286 252.8669644 84.90991286 252.8669644 81.65087891 250.8762207 C70.06630845 243.26978549 67.03311859 233.99227379 63.25 221.0625 C62.66070131 219.16983226 62.06697596 217.2785369 61.46875 215.38867188 C60.16336372 211.25881495 58.90097194 207.11845706 57.67779541 202.96351624 C56.95401987 200.86679942 56.03189326 198.96114866 55 197 C52.69 197 50.38 197 48 197 C48.12117187 197.64324219 48.24234375 198.28648437 48.3671875 198.94921875 C51.1274113 213.83319477 53.06871295 228.35074359 53.125 243.5 C53.12967285 244.35400391 53.1343457 245.20800781 53.13916016 246.08789062 C53.12266373 252.76259684 52.63121999 259.3570926 52 266 C52.65073486 266.34256836 53.30146973 266.68513672 53.97192383 267.03808594 C56.92398938 268.59909962 59.86822481 270.17434557 62.8125 271.75 C63.83666016 272.28882813 64.86082031 272.82765625 65.91601562 273.3828125 C66.89892578 273.91132813 67.88183594 274.43984375 68.89453125 274.984375 C70.25348511 275.70705566 70.25348511 275.70705566 71.63989258 276.44433594 C74.17434779 278.11492129 75.40237352 279.43485072 77 282 C77.30451965 284.20907593 77.30451965 284.20907593 77.21020508 286.63818359 C77.18481155 287.55368988 77.15941803 288.46919617 77.133255 289.41244507 C77.09572617 290.39782257 77.05819733 291.38320007 77.01953125 292.3984375 C76.98817194 294.50906728 76.96029239 296.61975107 76.93554688 298.73046875 C76.88450336 302.04170306 76.81363036 305.34671362 76.68139648 308.65576172 C75.74748407 322.37238123 75.74748407 322.37238123 81.16162109 334.41503906 C83.57649802 336.89384433 86.14641459 339.00780904 88.8815918 341.11962891 C91.73595397 343.41103143 91.9763493 343.91090497 92.98754883 347.72021484 C92.99971051 350.92374573 92.87019459 352.44078635 91 355 C87.73952371 356.63023814 85.62198965 356.4673535 82 356 C78.95053079 354.06352272 76.53534049 351.55723462 74 349 C73.02844175 348.05095798 72.05571752 347.10310861 71.08203125 346.15625 C62.06126128 337.31141703 62.06126128 337.31141703 61.90907288 334.05352783 C61.93099953 332.86155792 61.93099953 332.86155792 61.95336914 331.64550781 C61.96570084 330.74407043 61.97803253 329.84263306 61.99073792 328.91387939 C62.00539597 327.93683044 62.02005402 326.95978149 62.03515625 325.953125 C62.04118711 323.89063125 62.04435153 321.82812749 62.04492188 319.765625 C62.04664019 316.5077028 62.06243238 313.25342659 62.12670898 309.99609375 C62.94237462 297.92801009 62.94237462 297.92801009 58.80810547 287.17382812 C56.13442764 285.49275865 54.11268405 284.50639049 51 284 C50.01 284.33 49.02 284.66 48 285 C46.79701863 287.93688614 46.79701863 287.93688614 45.8125 291.5625 C37.31006947 318.91456535 19.38508476 340.85424061 -5.95263672 354.26635742 C-23.9299294 363.45222663 -43.09188246 367.25907193 -62.78515625 361.453125 C-75.78373757 357.19129506 -87.59243891 350.8668191 -98 342 C-98.91910156 341.25363281 -99.83820313 340.50726563 -100.78515625 339.73828125 C-108.04697888 333.55909322 -113.4454844 326.47014182 -118.82421875 318.67236328 C-120.17458838 316.75167558 -121.59127214 314.87830381 -123 313 C-142.47 332.47 -161.94 351.94 -182 372 C-179.98325481 376.03349038 -177.86858636 378.19445533 -174.5 381 C-173.93611572 381.47276367 -173.37223145 381.94552734 -172.79125977 382.43261719 C-165.28992673 388.57547281 -157.16989393 393.80169315 -149 399 C-147.51113281 399.97066406 -147.51113281 399.97066406 -145.9921875 400.9609375 C-101.67698593 428.48029008 -44.32819893 435.03820614 5.90380859 423.32275391 C23.49288137 418.8586626 40.01035333 412.54956618 56 404 C56.60585938 403.67773438 57.21171875 403.35546875 57.8359375 403.0234375 C72.19428819 395.31131028 84.75979236 385.69610786 97 375 C97.84691406 374.27683594 98.69382812 373.55367188 99.56640625 372.80859375 C104.51279799 368.53176434 108.80008185 364.0007139 113 359 C113.81082031 358.08863281 114.62164062 357.17726563 115.45703125 356.23828125 C144.79654607 323.02494595 164.78945268 277.02294835 165.23828125 232.34765625 C165.2480751 231.53862854 165.25786896 230.72960083 165.26795959 229.89605713 C165.80079247 174.41910252 149.39917799 124.52119291 112.59375 82.51171875 C110.53009482 80.55428111 109.72587056 80.39483858 107.52013206 82.23377228 Z M-63 134 C-63 134.99 -63 135.98 -63 137 C-49.30839538 141.4319645 -35.69160462 141.4319645 -22 137 C-24.45645046 131.59351325 -28.42809429 128.46593116 -33.8125 126.1875 C-44.12380989 122.75693112 -56.00553808 125.3637512 -63 134 Z M-87.36962891 155.78564453 C-107.43357612 170.72995023 -117.40191213 195.79587079 -121.17480469 219.87475586 C-123.6885787 239.19223049 -124.99524565 263.85426856 -117 282 C-116.12529053 281.24477051 -115.25058105 280.48954102 -114.34936523 279.71142578 C-111.41875789 277.19363875 -108.4548025 274.71951226 -105.47797203 272.25662518 C-96.78351417 265.03995519 -88.34206923 257.563767 -80.0625 249.875 C-79.3714706 249.23394192 -78.68044121 248.59288383 -77.96847153 247.93239975 C-61.64988568 232.66183782 -47.84425766 218.81429508 -46.88987732 195.54388428 C-46.66942745 182.6291767 -48.3381052 169.61031612 -51 157 C-54.39488938 156.01754027 -57.79106929 155.03961667 -61.1875 154.0625 C-62.14720703 153.78470703 -63.10691406 153.50691406 -64.09570312 153.22070312 C-65.02705078 152.95322266 -65.95839844 152.68574219 -66.91796875 152.41015625 C-67.77156982 152.16402588 -68.6251709 151.91789551 -69.50463867 151.66430664 C-77.3523924 149.57510422 -80.63833975 151.14163929 -87.36962891 155.78564453 Z M-16.0625 151.8125 C-20.97410143 153.72954497 -25.6790179 154.81679167 -30.8828125 155.60546875 C-32.97790529 155.78937092 -32.97790529 155.78937092 -34 157 C-34.08874135 160.10251201 -34.11518455 163.1826812 -34.09765625 166.28515625 C-34.0962413 167.21597519 -34.09482635 168.14679413 -34.09336853 169.1058197 C-34.08775172 172.09141191 -34.0751964 175.07693029 -34.0625 178.0625 C-34.05748716 180.08137913 -34.05292388 182.10025943 -34.04882812 184.11914062 C-34.03777683 189.07945572 -34.02050095 194.03971532 -34 199 C-28.85170256 194.69372744 -24.04247928 190.17688069 -19.31640625 185.4140625 C-18.61603745 184.71227875 -17.91566864 184.010495 -17.19407654 183.28744507 C-14.98116973 181.06898864 -12.77178584 178.84706185 -10.5625 176.625 C-9.05296686 175.11044534 -7.54320343 173.59612015 -6.03320312 172.08203125 C-2.35280298 168.39066901 1.32471957 164.69645931 5 161 C3.29871029 157.24914408 1.7197928 155.88723946 -1.875 153.8125 C-2.73867188 153.30332031 -3.60234375 152.79414063 -4.4921875 152.26953125 C-9.16437112 149.90432926 -11.18617069 149.78009765 -16.0625 151.8125 Z M17 173 C7.90536332 178.20679561 -0.43245657 184.13781595 -8.5 190.8125 C-9.10573978 191.31294956 -9.71147957 191.81339912 -10.3355751 192.32901382 C-26.69936112 206.16646239 -34.86576396 220.97899069 -36.76561928 242.44243717 C-37.88573793 257.83673695 -37.66870851 273.2727978 -37.1875 288.6875 C-37.16586414 289.40063118 -37.14422829 290.11376237 -37.1219368 290.84850359 C-36.54376491 309.59547416 -35.49767085 328.30286091 -34 347 C-32.41686194 346.70563493 -30.83488753 346.40500783 -29.25341797 346.10180664 C-28.37233368 345.9350795 -27.49124939 345.76835236 -26.58346558 345.59657288 C-22.80866956 344.72489843 -19.54501473 343.22267013 -16.125 341.4375 C-15.10200806 340.91240845 -15.10200806 340.91240845 -14.05834961 340.37670898 C7.70901092 328.86240462 23.43812257 309.35202106 31.10961914 286.03100586 C41.36193801 252.51456123 39.89961669 212.21041169 23.3515625 180.87890625 C20.91613056 176.20269672 20.91613056 176.20269672 17 173 Z M-55.80517578 245.68075562 C-56.34392334 246.22309845 -56.8826709 246.76544128 -57.43774414 247.32421875 C-58.00359726 247.88992584 -58.56945038 248.45563293 -59.15245056 249.03848267 C-61.03239745 250.91912926 -62.90877224 252.80329913 -64.78515625 254.6875 C-66.08388385 255.98809158 -67.38283162 257.28846334 -68.68199158 258.58862305 C-72.10862362 262.01908188 -75.53224272 265.45253264 -78.95526123 268.88659668 C-82.44558699 272.3871331 -85.93872865 275.884857 -89.43164062 279.3828125 C-96.29053298 286.25244503 -103.14624843 293.12523883 -110 300 C-109.21350536 301.60497678 -108.42332356 303.20814708 -107.6315918 304.81054688 C-107.19195602 305.70350464 -106.75232025 306.5964624 -106.29936218 307.51647949 C-103.6321609 312.61440305 -99.81353712 316.73421649 -96 321 C-95.236875 321.85851562 -94.47375 322.71703125 -93.6875 323.6015625 C-82.00474635 336.01448825 -67.63713696 343.67257261 -51 347 C-51 312.35 -51 277.7 -51 242 C-53.1077416 242 -54.39565363 244.27519267 -55.80517578 245.68075562 Z M-141.125 286.5 C-142.73375 287.325 -144.3425 288.15 -146 289 C-146 296.26 -146 303.52 -146 311 C-143.69 309.02 -141.38 307.04 -139 305 C-138.1853125 304.31035156 -137.370625 303.62070312 -136.53125 302.91015625 C-134.47033385 301.03551522 -132.6500389 299.24806887 -131 297 C-130.66339855 293.35592863 -130.66339855 293.35592863 -132 290 C-132.350625 288.865625 -132.70125 287.73125 -133.0625 286.5625 C-133.371875 285.716875 -133.68125 284.87125 -134 284 C-136.82440059 284 -138.6229276 285.21688595 -141.125 286.5 Z " fill="#000000" transform="translate(298,35)"/>
</svg>
