<?xml version="1.0" encoding="UTF-8"?>
<svg version="1.1" xmlns="http://www.w3.org/2000/svg" width="512" height="512">
<path d="M0 0 C14.91043673 11.41012079 24.62932132 26.97723123 27.76953125 45.5234375 C30.32409954 67.29695417 24.42051687 85.95146221 11.1875 103.0859375 C7.99612662 107.03559175 5.50305642 109.55971493 0.75 111.4609375 C-7.62833888 110.57900709 -14.73998934 100.23454929 -20.38671875 94.46875 C-22.20593847 92.62716769 -24.02561323 90.78603479 -25.84570312 88.9453125 C-28.68838494 86.0667515 -31.52732415 83.18464361 -34.35766602 80.29394531 C-37.10652651 77.48728832 -39.87139895 74.69669404 -42.63671875 71.90625 C-43.48264084 71.03654572 -44.32856293 70.16684143 -45.20011902 69.27078247 C-46.39209648 68.07351028 -46.39209648 68.07351028 -47.6081543 66.85205078 C-48.3012822 66.14702423 -48.9944101 65.44199768 -49.70854187 64.71560669 C-52.12667051 62.84258951 -53.78289667 62.34069714 -56.8125 62.0859375 C-58.78199573 63.1087817 -58.78199573 63.1087817 -60.46875 64.87109375 C-61.15453125 65.51965332 -61.8403125 66.16821289 -62.546875 66.83642578 C-63.29453125 67.57876465 -64.0421875 68.32110352 -64.8125 69.0859375 C-65.64265625 69.89659668 -66.4728125 70.70725586 -67.328125 71.54248047 C-70.00895089 74.18414489 -72.66373527 76.84964811 -75.3125 79.5234375 C-76.2303125 80.44576172 -77.148125 81.36808594 -78.09375 82.31835938 C-80.33565055 84.57193649 -82.575166 86.82782825 -84.8125 89.0859375 C-80.47506206 85.69065169 -76.75803148 82.00566255 -73.09375 77.88867188 C-70.77283655 75.44508157 -68.67941773 74.02841889 -65.5859375 72.69140625 C-59.925877 73.28319311 -57.40537651 76.40169865 -53.50518799 80.36895752 C-51.54493598 82.35734136 -49.5545979 84.31306613 -47.56201172 86.26904297 C-43.45461858 90.31228894 -39.37524385 94.38259069 -35.30493164 98.46313477 C-32.72852365 101.044959 -30.14674185 103.62132459 -27.56445312 106.19726562 C-25.9267621 107.83561646 -24.28938078 109.47427694 -22.65234375 111.11328125 C-21.87954575 111.88405502 -21.10674774 112.6548288 -20.31053162 113.44895935 C-19.60211624 114.16052689 -18.89370087 114.87209442 -18.16381836 115.60522461 C-17.53889999 116.23093857 -16.91398163 116.85665253 -16.27012634 117.50132751 C-14.15703909 119.79850002 -13.81196711 121.08939795 -13.32788086 124.23291016 C-14.01710953 129.7127121 -16.71247723 131.97882139 -20.56640625 135.734375 C-21.26007797 136.43237213 -21.95374969 137.13036926 -22.66844177 137.84951782 C-24.13708345 139.31854033 -25.6144649 140.7788702 -27.09985352 142.23095703 C-29.3657473 144.45186849 -31.59496349 146.70530467 -33.82226562 148.96484375 C-35.25574572 150.39010255 -36.69122918 151.81334984 -38.12890625 153.234375 C-39.12465416 154.24363541 -39.12465416 154.24363541 -40.14051819 155.27328491 C-40.78065353 155.8912796 -41.42078888 156.50927429 -42.08032227 157.14599609 C-42.63325455 157.69113861 -43.18618683 158.23628113 -43.75587463 158.79794312 C-45.8125 160.0859375 -45.8125 160.0859375 -49.08263516 160.35330325 C-53.48019828 161.21708934 -55.54381964 162.98587603 -58.54696274 166.09607983 C-59.08189342 166.62558543 -59.61682411 167.15509103 -60.16796482 167.70064226 C-61.9601744 169.48196668 -63.73008626 171.28390977 -65.50091553 173.08647156 C-66.79301538 174.37953532 -68.08644325 175.6712732 -69.38108277 176.9617942 C-72.93770815 180.5147011 -76.47532576 184.08602579 -80.01020861 187.66054761 C-83.82489773 191.5113895 -87.65696079 195.34487062 -91.48706055 199.18037415 C-98.12352729 205.83075923 -104.74917741 212.49176506 -111.36791229 219.15979576 C-120.94696992 228.80972353 -130.54491962 238.44068266 -140.1480799 248.06661818 C-155.73999804 263.69607828 -171.32033912 279.33702283 -186.89160156 294.98706055 C-187.35756361 295.45537371 -187.82352567 295.92368688 -188.30360778 296.40619135 C-192.55146762 300.67549287 -196.7992402 304.9448812 -201.04692028 309.21436156 C-211.43419861 319.65494198 -221.82253791 330.0944661 -232.21191406 340.53295898 C-233.60670123 341.93435119 -233.60670123 341.93435119 -235.02966592 343.36405434 C-250.53957215 358.94675282 -266.05938369 374.51955221 -281.58587098 390.08572894 C-291.16167349 399.68703643 -300.7281816 409.29743221 -310.28286174 418.91976062 C-316.83303969 425.51524779 -323.39199459 432.10191838 -329.95789167 438.68175688 C-333.74496505 442.47753246 -337.52775492 446.27733873 -341.29956818 450.08828354 C-344.7555825 453.58003335 -348.22306433 457.05996167 -351.6998339 460.5310422 C-352.95254773 461.7858002 -354.20103857 463.04479233 -355.44472143 464.30850216 C-366.16447527 475.19305709 -375.89552297 482.52266548 -391.8125 483.0859375 C-402.52616686 482.51098941 -411.78400185 478.18182136 -419.05859375 470.3046875 C-425.61040048 462.01643311 -428.10074908 452.48743004 -427.69140625 441.9765625 C-426.19093919 430.03470098 -419.88237002 421.38628715 -411.45350647 413.19296265 C-410.21356726 411.95719874 -410.21356726 411.95719874 -408.94857877 410.6964699 C-406.67738497 408.43773136 -404.39542623 406.190595 -402.10830629 403.94800615 C-399.63486985 401.51705338 -397.17627455 399.07117046 -394.7159729 396.62693787 C-390.4592034 392.40153373 -386.19393049 388.18487772 -381.9231739 383.97361374 C-375.74459004 377.88020011 -369.58484151 371.76801077 -363.4303953 365.65022881 C-353.43753072 355.71697681 -343.4371654 345.79132084 -333.4284668 335.87402344 C-332.83048393 335.28149118 -332.23250106 334.68895892 -331.61639749 334.07847114 C-323.11762391 325.6578594 -314.61148339 317.24472767 -306.10243618 308.8344992 C-305.50233097 308.24136055 -304.90222576 307.64822191 -304.28393555 307.03710938 C-303.68456037 306.44470185 -303.0851852 305.85229433 -302.46764714 305.24193506 C-292.47701432 295.36644252 -282.50569245 285.47171261 -272.55001348 275.56098425 C-266.41304685 269.45327707 -260.26029609 263.36236982 -254.08627897 257.29211368 C-249.86136112 253.13569733 -245.65462109 248.96145848 -241.4617914 244.77267669 C-239.04200287 242.35641019 -236.61472588 239.94914807 -234.16500282 237.56320381 C-231.51397325 234.97293453 -228.89534574 232.35375056 -226.28260803 229.72494507 C-225.5017073 228.97658335 -224.72080657 228.22822163 -223.91624218 227.45718229 C-220.09648933 223.66808334 -220.09648933 223.66808334 -218.54697883 218.69624066 C-218.77659685 216.38871962 -219.19157396 214.31740918 -219.8125 212.0859375 C-219.98310615 211.35295736 -220.1537123 210.61997721 -220.32948834 209.86478555 C-220.79135629 207.89939819 -221.32168999 205.96491044 -221.875 204.0234375 C-222.06126953 203.34861328 -222.24753906 202.67378906 -222.43945312 201.97851562 C-222.89101366 200.34595063 -223.35084769 198.71567752 -223.8125 197.0859375 C-224.26234127 197.53762236 -224.71218254 197.98930721 -225.17565536 198.45467949 C-236.12021754 209.44340498 -247.07030415 220.42659058 -258.026577 231.40363884 C-263.32480696 236.7121826 -268.62114781 242.0225858 -273.91308594 247.33740234 C-278.52539039 251.96963747 -283.14119638 256.59834957 -287.76124597 261.22286046 C-290.20753359 263.671756 -292.65202845 266.12238282 -295.09233856 268.57723618 C-297.81620394 271.31720269 -300.54788045 274.04929784 -303.28027344 276.78076172 C-304.49299927 278.00427338 -304.49299927 278.00427338 -305.73022461 279.25250244 C-306.84914093 280.36729477 -306.84914093 280.36729477 -307.99066162 281.50460815 C-308.95854425 282.47525617 -308.95854425 282.47525617 -309.94598007 283.46551323 C-312.89180728 286.022941 -314.8215705 287.1217889 -318.75463867 286.97949219 C-322.42430255 285.90715927 -324.04621714 284.48356631 -326.73828125 281.7890625 C-327.61677734 280.9125 -328.49527344 280.0359375 -329.40039062 279.1328125 C-330.29951172 278.20984375 -331.19863281 277.286875 -332.125 276.3359375 C-333.04345703 275.4284375 -333.96191406 274.5209375 -334.90820312 273.5859375 C-342.72808172 265.67936402 -342.72808172 265.67936402 -342.8125 261.0859375 C-340.78109921 257.11554318 -338.19171876 254.21784984 -335.04792786 251.08085632 C-334.57167251 250.60289213 -334.09541716 250.12492793 -333.60472983 249.63247997 C-332.01568982 248.04015889 -330.41963236 246.45506852 -328.82348633 244.86987305 C-327.67977153 243.72672266 -326.53649748 242.58313117 -325.39363098 241.43913269 C-322.29506387 238.33999224 -319.19037319 235.24705292 -316.08454347 232.15519309 C-312.83783368 228.92099373 -309.59679435 225.68112208 -306.35514832 222.44184875 C-300.21812051 216.31103478 -294.07601268 210.18533652 -287.93206185 204.06146127 C-280.93664295 197.08840432 -273.94690855 190.10966115 -266.95764506 183.13043535 C-252.58224471 168.77593482 -238.19972325 154.42858752 -223.8125 140.0859375 C-224.79116338 138.93967428 -225.77044587 137.79393962 -226.75 136.6484375 C-227.29527344 136.01035156 -227.84054688 135.37226563 -228.40234375 134.71484375 C-229.18045695 133.81602601 -229.97186528 132.92657222 -230.8125 132.0859375 C-231.30840053 127.21243232 -231.50173089 125.10574827 -228.72045898 120.99047852 C-227.77134652 120.00247767 -226.79921693 119.03621886 -225.80859375 118.08984375 C-225.29249039 117.57082993 -224.77638702 117.0518161 -224.24464417 116.51707458 C-223.15374124 115.42947702 -222.05297483 114.35169318 -220.94311523 113.28344727 C-219.2542647 111.65255584 -217.6059698 109.98749922 -215.95898438 108.31445312 C-214.89023079 107.25817592 -213.81933379 106.20406214 -212.74609375 105.15234375 C-212.01283119 104.41027428 -212.01283119 104.41027428 -211.26475525 103.6532135 C-207.63392629 100.21428874 -204.78358554 99.22796852 -199.8125 99.0859375 C-197.37890625 100.51953125 -197.37890625 100.51953125 -195.375 102.5234375 C-194.69566406 103.18214844 -194.01632812 103.84085937 -193.31640625 104.51953125 C-192.82011719 105.03644531 -192.32382812 105.55335937 -191.8125 106.0859375 C-190.4925 105.4259375 -189.1725 104.7659375 -187.8125 104.0859375 C-189.28162935 100.88455115 -191.1270461 98.26414974 -193.25 95.4609375 C-200.13566304 85.6201774 -201.31939638 75.08964338 -199.34375 63.28515625 C-196.75948682 53.39419658 -190.16825644 44.00757446 -181.42578125 38.61328125 C-170.58476781 32.91884387 -160.27440036 31.37906979 -148.3125 34.5859375 C-141.52712828 36.82876696 -136.28484285 40.5676905 -130.8125 45.0859375 C-127.4633849 43.63396503 -125.3114784 41.80963178 -122.76928711 39.20629883 C-121.98424301 38.4081929 -121.19919891 37.61008698 -120.3903656 36.78779602 C-119.54869339 35.92325302 -118.70702118 35.05871002 -117.83984375 34.16796875 C-116.03479384 32.33760594 -114.22944559 30.5075373 -112.42382812 28.67773438 C-109.5906051 25.79728588 -106.76236427 22.91203295 -103.93969727 20.02124023 C-101.20713036 17.22775242 -98.46184126 14.44725759 -95.71484375 11.66796875 C-94.88734116 10.81354691 -94.05983856 9.95912506 -93.20726013 9.07881165 C-67.72045523 -16.62138107 -29.77999076 -20.26693816 0 0 Z M-103.0625 38.2734375 C-104.69377482 39.90974011 -106.3252836 41.54580952 -107.95703125 43.18164062 C-111.91155162 47.14705887 -115.86318875 51.11533161 -119.8125 55.0859375 C-118.07489853 58.80307486 -115.95573122 61.17334762 -113.0234375 64.0703125 C-112.56015045 64.53076965 -112.0968634 64.99122681 -111.61953735 65.46563721 C-110.14684102 66.92718828 -108.66732597 68.38160918 -107.1875 69.8359375 C-106.18443678 70.82896361 -105.18182743 71.82244839 -104.1796875 72.81640625 C-101.72919165 75.24491691 -99.2725333 77.66708425 -96.8125 80.0859375 C-93.30429918 78.58937847 -91.08727562 76.58263048 -88.43041992 73.86743164 C-87.5724028 72.99635269 -86.71438568 72.12527374 -85.83036804 71.22779846 C-84.91052628 70.28508591 -83.99068451 69.34237335 -83.04296875 68.37109375 C-82.07969965 67.39392273 -81.115683 66.41748812 -80.1509552 65.4417572 C-76.06326092 61.30529864 -71.98684536 57.15786182 -67.91967773 53.0012207 C-65.42737419 50.45511007 -62.92521818 47.9190257 -60.41689491 45.38870049 C-59.007474 43.9609502 -57.60934691 42.52207924 -56.21147156 41.08302307 C-50.9715176 35.80225055 -46.91206212 32.01847687 -39.44140625 30.65234375 C-38.75949219 30.65105469 -38.07757813 30.64976563 -37.375 30.6484375 C-36.35599609 30.61943359 -36.35599609 30.61943359 -35.31640625 30.58984375 C-26.9602831 32.24542509 -21.65774547 37.69630506 -15.9375 43.5703125 C-15.12756592 44.38590637 -14.31763184 45.20150024 -13.4831543 46.04180908 C-10.91666706 48.63055806 -8.36449666 51.23291053 -5.8125 53.8359375 C-4.0673357 55.60117978 -2.32125116 57.36551279 -0.57421875 59.12890625 C3.69039378 63.43745082 7.94336043 67.75722963 12.1875 72.0859375 C16.80201038 65.16417193 15.88463619 55.02984825 14.76171875 47.06640625 C11.38191399 31.57736234 3.06456053 18.1383693 -10.125 9.2109375 C-49.11314888 -13.82751411 -76.33102054 11.39730127 -103.0625 38.2734375 Z M-42.5625 46.0859375 C-43.17609375 46.6428125 -43.7896875 47.1996875 -44.421875 47.7734375 C-44.88078125 48.2065625 -45.3396875 48.6396875 -45.8125 49.0859375 C-44.70632494 52.40446269 -43.91734674 53.07540826 -41.29101562 55.23852539 C-36.67801473 59.1551529 -32.41863978 63.3526582 -28.15625 67.64453125 C-27.36851196 68.43368423 -26.58077393 69.22283722 -25.76916504 70.03590393 C-23.28122898 72.52938762 -20.79681376 75.02634534 -18.3125 77.5234375 C-16.6148159 79.22614337 -14.91690142 80.92861957 -13.21875 82.63085938 C-9.0806672 86.77990162 -4.94546065 90.93179326 -0.8125 95.0859375 C2.10011983 92.21145345 4.82901525 89.43746846 7.1875 86.0859375 C5.77463052 82.88116782 4.0846787 80.73472228 1.61157227 78.26708984 C0.88063858 77.53307953 0.1497049 76.79906921 -0.6033783 76.04281616 C-1.3929744 75.26040558 -2.1825705 74.477995 -2.99609375 73.671875 C-3.8074025 72.86102448 -4.61871124 72.05017395 -5.4546051 71.2147522 C-7.16960162 69.50277492 -8.88702606 67.7932269 -10.60668945 66.0859375 C-13.24161346 63.46926595 -15.86845162 60.84468497 -18.49414062 58.21875 C-20.16098718 56.55681898 -21.8282896 54.89534503 -23.49609375 53.234375 C-24.28366562 52.44791595 -25.07123749 51.66145691 -25.88267517 50.85116577 C-26.61676102 50.12345978 -27.35084686 49.39575378 -28.10717773 48.64599609 C-29.07408791 47.68480362 -29.07408791 47.68480362 -30.06053162 46.70419312 C-34.63280213 42.48088492 -37.93632733 41.81562427 -42.5625 46.0859375 Z M-179.8125 54.0859375 C-185.33914898 62.2061736 -187.65023978 68.25231757 -186.8125 78.0859375 C-184.72862429 87.84339912 -177.72560847 93.93259087 -170.86328125 100.5859375 C-169.68173536 101.75372693 -168.50159697 102.92294198 -167.32279968 104.09350586 C-164.23727245 107.15064815 -161.13458172 110.18973902 -158.02734375 113.22479248 C-154.2409051 116.92922888 -150.47369486 120.65319886 -146.70527172 124.37594604 C-143.77720973 127.26827688 -140.84589001 130.15700267 -137.90388489 133.03515625 C-137.36643143 133.56265976 -136.82897797 134.09016327 -136.27523804 134.63365173 C-134.82435552 136.05756644 -133.37121884 137.47918329 -131.91792297 138.90063477 C-129.24553938 141.67440861 -128.86662942 142.52487311 -128.49302673 146.39735413 C-128.8768716 150.82916094 -129.83201892 151.98958677 -132.92407227 155.10327148 C-133.82243301 156.02369736 -134.72079376 156.94412323 -135.64637756 157.8924408 C-136.63966853 158.87320167 -137.63386755 159.85304361 -138.62890625 160.83203125 C-139.64449395 161.85233799 -140.65904091 162.87368162 -141.67259216 163.89601135 C-143.79763704 166.03135941 -145.93478217 168.1535777 -148.08129883 170.26733398 C-150.82693109 172.97308157 -153.5399284 175.70905181 -156.2446146 178.45565701 C-158.33301201 180.56939338 -160.43785177 182.66611881 -162.54798698 184.75813484 C-163.55500677 185.76049705 -164.55688568 186.76805237 -165.55337715 187.78088188 C-166.95032695 189.19567895 -168.37231287 190.58562177 -169.79516602 191.97436523 C-170.99762718 193.16847267 -170.99762718 193.16847267 -172.22438049 194.38670349 C-175.60294276 196.60490396 -177.84734435 196.47420729 -181.8125 196.0859375 C-183.7890625 195.01171875 -183.7890625 195.01171875 -185.4375 193.3984375 C-186.08976563 192.77453125 -186.74203125 192.150625 -187.4140625 191.5078125 C-188.20554687 190.70859375 -188.99703125 189.909375 -189.8125 189.0859375 C-190.94459244 187.96541787 -192.07746557 186.84568668 -193.2109375 185.7265625 C-196.43245752 182.53347023 -199.62709846 179.3150412 -202.8125 176.0859375 C-203.93838014 177.04323666 -205.0631715 178.00181645 -206.1875 178.9609375 C-206.81398437 179.49460938 -207.44046875 180.02828125 -208.0859375 180.578125 C-209.37086651 181.70025757 -210.60621975 182.87965725 -211.8125 184.0859375 C-211.38929692 192.84714169 -208.97653244 201.26907287 -206.89648438 209.75585938 C-206.63029297 210.86896484 -206.36410156 211.98207031 -206.08984375 213.12890625 C-205.84484131 214.12946045 -205.59983887 215.13001465 -205.34741211 216.16088867 C-204.29139778 221.93547002 -204.29139778 221.93547002 -204.8125 225.0859375 C-209.21173959 231.09073613 -214.87356987 236.28013369 -220.14421082 241.51098633 C-220.95591289 242.32072057 -221.76761497 243.13045481 -222.60391408 243.96472645 C-225.30673198 246.65986515 -228.01312206 249.35138765 -230.71948242 252.04296875 C-232.66527992 253.98134023 -234.61027245 255.92051859 -236.55525208 257.85971069 C-240.73516596 262.02654652 -244.91670125 266.19174927 -249.09914207 270.35604858 C-255.71260506 276.94121445 -262.32022061 283.53223093 -268.92683411 290.12426758 C-271.19068682 292.38299696 -273.45456488 294.64170093 -275.71844196 296.90040588 C-276.28406237 297.46474026 -276.84968278 298.02907463 -277.4324432 298.61051005 C-283.85935737 305.02271453 -290.28715966 311.43402823 -296.71557617 317.84472656 C-297.59627713 318.72300541 -297.59627713 318.72300541 -298.49477003 319.61902726 C-308.01902443 329.1167203 -317.5488644 338.60879263 -327.08030816 348.09926999 C-336.87831489 357.85552343 -346.66864185 367.61943806 -356.45231324 377.3900671 C-362.48116662 383.41033397 -368.51615144 389.42431847 -374.55920587 395.43033099 C-378.69849764 399.54532199 -382.83044055 403.66759767 -386.95670553 407.79565072 C-389.33596422 410.17548632 -391.71935046 412.55075666 -394.10955429 414.91962814 C-396.7029603 417.49088686 -399.28372618 420.07421089 -401.86174011 422.66088867 C-402.61572167 423.40253675 -403.36970323 424.14418482 -404.14653271 424.90830708 C-409.909885 430.73273329 -414.17468425 436.70700984 -414.84765625 445.078125 C-414.72448586 452.11252307 -412.12720499 457.5554314 -407.3125 462.68359375 C-402.47784344 467.23846694 -397.23221791 469.90523353 -390.51953125 470.1796875 C-378.30054689 469.33844933 -371.06258672 460.89832696 -362.96777344 452.722229 C-361.67065912 451.42685992 -360.37266574 450.13237058 -359.07387257 448.8386848 C-355.51422422 445.2879694 -351.96715009 441.72492135 -348.42201924 438.15971923 C-344.59433043 434.31474581 -340.75507752 430.48134993 -336.91722107 426.64653015 C-330.27170263 420.00310843 -323.63354331 413.35240619 -317.00033569 406.69669342 C-307.40984301 397.07368334 -297.8083153 387.46174626 -288.20406425 377.85247001 C-272.62185918 362.26151191 -257.04860649 346.66164332 -241.48095703 331.05615234 C-226.35901852 315.89749402 -211.23290486 300.74302228 -196.10107422 285.59423828 C-195.16824639 284.66035956 -194.23541856 283.72648084 -193.27432323 282.76430276 C-188.59454285 278.07930221 -183.91467976 273.3943843 -179.23477554 268.70950747 C-140.41451799 229.84778759 -101.60877634 190.9715972 -62.8125 152.0859375 C-64.29315913 148.98345206 -65.76192469 146.91744994 -68.25244141 144.5300293 C-68.95301666 143.85219894 -69.65359192 143.17436859 -70.37539673 142.47599792 C-71.13065643 141.75302017 -71.88591614 141.03004242 -72.6640625 140.28515625 C-74.25333808 138.7357785 -75.84185684 137.18562412 -77.4296875 135.63476562 C-79.93500751 133.19756239 -82.44511379 130.76614169 -84.96875 128.34790039 C-87.40397455 126.0094665 -89.81650962 123.64948763 -92.2265625 121.28515625 C-93.36552475 120.20979866 -93.36552475 120.20979866 -94.52749634 119.11271667 C-97.79109461 115.88194896 -99.6124252 114.01111268 -100.59912109 109.44848633 C-99.57799626 105.08351045 -97.91955366 103.2706675 -94.8125 100.0859375 C-100.90347115 93.90190435 -107.00546883 87.72902094 -113.12145901 81.5697298 C-115.96163612 78.70876065 -118.79800614 75.84422743 -121.62573242 72.97094727 C-124.35953582 70.19338558 -127.10326021 67.42597729 -129.85386848 64.66506004 C-130.89667224 63.61491841 -131.93597538 62.56128754 -132.97152519 61.50399208 C-140.72089455 53.59856868 -147.95412555 46.77526859 -159.375 45.7734375 C-166.56596883 45.86770114 -174.9098382 48.76304754 -179.8125 54.0859375 Z M-66.76196289 90.921875 C-68.0109436 92.17871094 -68.0109436 92.17871094 -69.28515625 93.4609375 C-70.18427734 94.36328125 -71.08339844 95.265625 -72.00976562 96.1953125 C-72.96489736 97.15880102 -73.91997477 98.1223434 -74.875 99.0859375 C-75.83375601 100.0497064 -76.79273744 101.0132511 -77.75195312 101.9765625 C-80.10770314 104.34415045 -82.46109739 106.71403306 -84.8125 109.0859375 C-83.46677113 112.08537655 -81.97712899 114.16669929 -79.64794922 116.47753906 C-79.00743622 117.117901 -78.36692322 117.75826294 -77.70700073 118.41802979 C-77.01736237 119.09734558 -76.327724 119.77666138 -75.6171875 120.4765625 C-74.55602219 121.53348297 -74.55602219 121.53348297 -73.47341919 122.61175537 C-71.21610138 124.8578914 -68.95192367 127.09696759 -66.6875 129.3359375 C-65.15449047 130.85891467 -63.62193285 132.38234689 -62.08984375 133.90625 C-58.33595427 137.63810565 -54.57641086 141.36419101 -50.8125 145.0859375 C-47.12791017 141.96821073 -43.46574874 138.86921718 -40.06640625 135.4375 C-39.45732422 134.82519531 -38.84824219 134.21289062 -38.22070312 133.58203125 C-37.61162109 132.96457031 -37.00253906 132.34710938 -36.375 131.7109375 C-35.73884766 131.07027344 -35.10269531 130.42960937 -34.44726562 129.76953125 C-32.89999668 128.21062871 -31.35513508 126.64942334 -29.8125 125.0859375 C-31.15650118 122.09404824 -32.64346916 120.0061613 -34.96118164 117.69433594 C-35.9171096 116.73379303 -35.9171096 116.73379303 -36.89234924 115.75384521 C-37.57885056 115.07452942 -38.26535187 114.39521362 -38.97265625 113.6953125 C-39.67772812 112.99069885 -40.38279999 112.28608521 -41.10923767 111.56011963 C-42.59723359 110.07514045 -44.08765487 108.59258813 -45.58032227 107.11230469 C-47.87510999 104.83582839 -50.16173994 102.55139626 -52.44726562 100.265625 C-53.89275696 98.82504686 -55.33870473 97.38492654 -56.78515625 95.9453125 C-57.47368179 95.25789978 -58.16220734 94.57048706 -58.87159729 93.86224365 C-59.50573044 93.23449036 -60.13986359 92.60673706 -60.79321289 91.95996094 C-61.35343643 91.40354919 -61.91365997 90.84713745 -62.49085999 90.27386475 C-64.62227736 88.35808682 -64.57146582 88.85893975 -66.76196289 90.921875 Z M-179.4375 114.5859375 C-179.89125 115.0809375 -180.345 115.5759375 -180.8125 116.0859375 C-179.43061547 119.29637632 -177.88828097 121.13530115 -175.1875 123.3359375 C-174.55585938 123.85671875 -173.92421875 124.3775 -173.2734375 124.9140625 C-172.79132813 125.30078125 -172.30921875 125.6875 -171.8125 126.0859375 C-170.4925 124.4359375 -169.1725 122.7859375 -167.8125 121.0859375 C-169.09798409 119.74664245 -170.39108155 118.41465107 -171.6875 117.0859375 C-172.76644531 115.9721875 -172.76644531 115.9721875 -173.8671875 114.8359375 C-176.30165419 112.64589517 -176.99610325 112.3323405 -179.4375 114.5859375 Z M-205.53515625 117.7109375 C-206.65096648 118.83342923 -207.76412666 119.95855976 -208.875 121.0859375 C-209.44283203 121.65828125 -210.01066406 122.230625 -210.59570312 122.8203125 C-212.00353589 124.23997579 -213.40830248 125.66267847 -214.8125 127.0859375 C-213.53227125 129.89563217 -212.20535871 131.9398613 -210.01513672 134.11035156 C-209.45470673 134.67063049 -208.89427673 135.23090942 -208.31686401 135.8081665 C-207.41364914 136.69589752 -207.41364914 136.69589752 -206.4921875 137.6015625 C-205.87352814 138.21739197 -205.25486877 138.83322144 -204.61746216 139.4677124 C-202.64546186 141.42854086 -200.66661263 143.38229051 -198.6875 145.3359375 C-197.34719836 146.66620549 -196.00734917 147.9969295 -194.66796875 149.328125 C-191.38803411 152.586039 -188.10194058 155.83762283 -184.8125 159.0859375 C-180.96222009 157.30393063 -178.5325858 155.00918345 -175.5625 151.9609375 C-174.67046875 151.05085938 -173.7784375 150.14078125 -172.859375 149.203125 C-172.18390625 148.50445312 -171.5084375 147.80578125 -170.8125 147.0859375 C-176.10129802 140.61350084 -181.97668357 134.76947352 -187.89135742 128.87670898 C-189.64164876 127.13184032 -191.38645326 125.38160967 -193.13085938 123.63085938 C-194.23926228 122.52311617 -195.34797476 121.4156826 -196.45703125 120.30859375 C-197.24132256 119.5212661 -197.24132256 119.5212661 -198.04145813 118.71803284 C-201.59690592 114.47229543 -201.59690592 114.47229543 -205.53515625 117.7109375 Z M-158.8125 131.0859375 C-160.17077971 132.73233715 -161.50504251 134.39889557 -162.8125 136.0859375 C-162.3071875 136.59382812 -161.801875 137.10171875 -161.28125 137.625 C-160.6315625 138.31335938 -159.981875 139.00171875 -159.3125 139.7109375 C-158.6628125 140.38382813 -158.013125 141.05671875 -157.34375 141.75 C-155.31147589 144.8502549 -155.33868334 146.41887523 -155.8125 150.0859375 C-157.46380167 152.27517462 -158.95672727 153.9579895 -160.921875 155.81640625 C-161.44509338 156.33350662 -161.96831177 156.85060699 -162.50738525 157.38337708 C-164.1788482 159.02796867 -165.87023951 160.65028327 -167.5625 162.2734375 C-168.68621123 163.37561363 -169.80862244 164.47911684 -170.9296875 165.58398438 C-179.69028088 174.16654136 -179.69028088 174.16654136 -183.8125 177.0859375 C-182.4925 178.4059375 -181.1725 179.7259375 -179.8125 181.0859375 C-176.81306095 179.74020863 -174.73173821 178.25056649 -172.42089844 175.92138672 C-171.7805365 175.28087372 -171.14017456 174.64036072 -170.48040771 173.98043823 C-169.80109192 173.29079987 -169.12177612 172.6011615 -168.421875 171.890625 C-167.36495453 170.82945969 -167.36495453 170.82945969 -166.28668213 169.74685669 C-164.0405461 167.48953888 -161.80146991 165.22536117 -159.5625 162.9609375 C-158.03952283 161.42792797 -156.51609061 159.89537035 -154.9921875 158.36328125 C-151.26033185 154.60939177 -147.53424649 150.84984836 -143.8125 147.0859375 C-145.15322397 144.30683081 -146.40143332 142.24796349 -148.59765625 140.0703125 C-149.39333008 139.27753906 -149.39333008 139.27753906 -150.20507812 138.46875 C-150.75615234 137.92992187 -151.30722656 137.39109375 -151.875 136.8359375 C-152.42994141 136.28164062 -152.98488281 135.72734375 -153.55664062 135.15625 C-155.81721296 132.36849432 -155.81721296 132.36849432 -158.8125 131.0859375 Z M-213.8125 149.0859375 C-218.1025 153.3759375 -222.3925 157.6659375 -226.8125 162.0859375 C-224.0572914 164.8411461 -222.58321195 165.8199861 -219.125 167.2734375 C-217.701875 167.8715625 -216.27875 168.4696875 -214.8125 169.0859375 C-211.5125 165.7859375 -208.2125 162.4859375 -204.8125 159.0859375 C-206.619112 155.47271349 -207.47668971 154.24844959 -210.4375 151.8359375 C-212.108125 150.4746875 -212.108125 150.4746875 -213.8125 149.0859375 Z M-240.07421875 175.0546875 C-240.87472656 175.89 -241.67523438 176.7253125 -242.5 177.5859375 C-243.30824219 178.42125 -244.11648437 179.2565625 -244.94921875 180.1171875 C-245.56410156 180.766875 -246.17898437 181.4165625 -246.8125 182.0859375 C-244.5100881 184.68639625 -242.31353323 185.93332933 -239.125 187.2734375 C-237.701875 187.8715625 -236.27875 188.4696875 -234.8125 189.0859375 C-231.5125 185.7859375 -228.2125 182.4859375 -224.8125 179.0859375 C-232.12842522 173.07443503 -232.12842522 173.07443503 -240.07421875 175.0546875 Z M-259.9765625 194.984375 C-260.78867187 195.80164063 -261.60078125 196.61890625 -262.4375 197.4609375 C-263.25476563 198.27304688 -264.07203125 199.08515625 -264.9140625 199.921875 C-267.03232158 201.85672347 -267.03232158 201.85672347 -266.8125 204.0859375 C-265.2399835 204.98023124 -263.65396259 205.85081177 -262.0625 206.7109375 C-261.18078125 207.19820312 -260.2990625 207.68546875 -259.390625 208.1875 C-256.903827 209.33754805 -256.903827 209.33754805 -254.71875 208.453125 C-252.64352223 206.96474443 -250.86103187 205.39984143 -249.0625 203.5859375 C-248.44890625 202.9775 -247.8353125 202.3690625 -247.203125 201.7421875 C-245.59815912 200.19109473 -245.59815912 200.19109473 -245.8125 198.0859375 C-247.43499941 197.24774592 -249.06058497 196.4155259 -250.6875 195.5859375 C-251.59242188 195.121875 -252.49734375 194.6578125 -253.4296875 194.1796875 C-256.73558561 192.66222607 -257.19120582 192.54090325 -259.9765625 194.984375 Z M-279.9765625 214.984375 C-280.78867187 215.80164063 -281.60078125 216.61890625 -282.4375 217.4609375 C-283.25476563 218.27304688 -284.07203125 219.08515625 -284.9140625 219.921875 C-287.03232158 221.85672347 -287.03232158 221.85672347 -286.8125 224.0859375 C-285.2399835 224.98023124 -283.65396259 225.85081177 -282.0625 226.7109375 C-281.18078125 227.19820312 -280.2990625 227.68546875 -279.390625 228.1875 C-276.90462873 229.33593326 -276.90462873 229.33593326 -274.71875 228.4609375 C-272.61714172 226.94502333 -270.85994958 225.32751975 -269.0625 223.4609375 C-268.14210938 222.51347656 -268.14210938 222.51347656 -267.203125 221.546875 C-266.74421875 221.06476563 -266.2853125 220.58265625 -265.8125 220.0859375 C-268.8026021 216.75082362 -271.70748574 214.87072631 -275.8125 213.0859375 C-278.04171403 212.86611592 -278.04171403 212.86611592 -279.9765625 214.984375 Z M-297.8125 233.0859375 C-301.1125 236.3859375 -304.4125 239.6859375 -307.8125 243.0859375 C-302.41926272 247.49498743 -302.41926272 247.49498743 -295.890625 248.91796875 C-293.12363262 247.81013157 -291.61046096 246.17379651 -289.5625 244.0234375 C-288.85609375 243.28996094 -288.1496875 242.55648437 -287.421875 241.80078125 C-286.62523437 240.95193359 -286.62523437 240.95193359 -285.8125 240.0859375 C-288.1149119 237.48547875 -290.31146677 236.23854567 -293.5 234.8984375 C-294.923125 234.3003125 -296.34625 233.7021875 -297.8125 233.0859375 Z M-317.8125 253.0859375 C-320.4525 255.7259375 -323.0925 258.3659375 -325.8125 261.0859375 C-324.005888 264.69916151 -323.14831029 265.92342541 -320.1875 268.3359375 C-319.07375 269.2434375 -317.96 270.1509375 -316.8125 271.0859375 C-313.1825 267.4559375 -309.5525 263.8259375 -305.8125 260.0859375 C-310.06484919 256.57706263 -310.06484919 256.57706263 -314.625 254.3359375 C-315.676875 253.9234375 -316.72875 253.5109375 -317.8125 253.0859375 Z " fill="#000000" transform="translate(455.8125,20.9140625)"/>
<path d="M0 0 C3.90657979 2.19950291 5.98076247 5.4988434 8.171875 9.359375 C9.88473319 16.05509336 9.31872034 21.02824024 5.859375 27.046875 C3.08861094 30.58827619 -0.04062817 33.79233287 -3.140625 37.046875 C-3.62305664 37.56185547 -4.10548828 38.07683594 -4.60253906 38.60742188 C-18.09534877 52.96147475 -18.09534877 52.96147475 -27.640625 53.546875 C-33.70766488 53.24299908 -38.30924027 50.92645407 -42.515625 46.609375 C-45.7360631 41.53099184 -46.99976939 37.09428504 -46.140625 31.046875 C-43.34093414 23.66218317 -38.37281153 18.66280313 -32.82397461 13.20874023 C-31.32754541 11.73380374 -29.8537643 10.23862294 -28.38085938 8.74023438 C-27.420551 7.78256875 -26.4590028 6.82614443 -25.49609375 5.87109375 C-24.63653076 5.01604248 -23.77696777 4.16099121 -22.89135742 3.2800293 C-15.85772064 -2.43015759 -8.38964114 -3.44690682 0 0 Z M-19.2734375 18.62304688 C-19.78422852 19.13407959 -20.29501953 19.6451123 -20.82128906 20.17163086 C-22.38334052 21.72712112 -23.96775496 23.25706408 -25.5546875 24.78710938 C-26.54834094 25.77196065 -27.54057795 26.75824351 -28.53125 27.74609375 C-29.8929834 29.08933716 -29.8929834 29.08933716 -31.28222656 30.4597168 C-33.42094641 32.88276529 -33.42094641 32.88276529 -33.05371094 35.75317383 C-32.25721989 38.19390535 -32.25721989 38.19390535 -30.140625 40.046875 C-25.21889031 39.83421531 -22.87879543 38.42348216 -19.43359375 35.00390625 C-18.18352539 33.76350586 -18.18352539 33.76350586 -16.90820312 32.49804688 C-15.63106445 31.1919043 -15.63106445 31.1919043 -14.328125 29.859375 C-13.45736328 29.00794922 -12.58660156 28.15652344 -11.68945312 27.27929688 C-10.86251953 26.44591797 -10.03558594 25.61253906 -9.18359375 24.75390625 C-8.05473755 23.61659058 -8.05473755 23.61659058 -6.90307617 22.45629883 C-4.8342262 19.62800123 -4.45632307 17.500855 -4.140625 14.046875 C-10.97755998 8.38872191 -13.97985521 13.40783719 -19.2734375 18.62304688 Z " fill="#000000" transform="translate(94.140625,430.953125)"/>
</svg>
