<?xml version="1.0" encoding="UTF-8"?>
<svg version="1.1" xmlns="http://www.w3.org/2000/svg" width="512" height="512">
<path d="M0 0 C1.37889404 -0.00338379 1.37889404 -0.00338379 2.78564453 -0.00683594 C3.77935059 -0.00200195 4.77305664 0.00283203 5.796875 0.0078125 C6.81507324 0.01264648 7.83327148 0.01748047 8.88232422 0.02246094 C12.1040995 0.04725527 15.3253298 0.08724746 18.546875 0.1328125 C19.5894043 0.14538086 20.63193359 0.15794922 21.70605469 0.17089844 C24.69582333 0.21730283 27.68308325 0.29437176 30.671875 0.3828125 C32.04714355 0.40384033 32.04714355 0.40384033 33.45019531 0.42529297 C38.75172239 0.6250693 41.76566409 1.08826726 45.546875 5.1328125 C47.24373477 7.17068106 48.84485058 9.19637911 50.421875 11.3203125 C50.86619873 11.88967529 51.31052246 12.45903809 51.76831055 13.0456543 C53.77757542 15.63847767 55.50734266 18.05585622 57.01171875 20.984375 C58.97835135 24.57561714 60.65389296 26.55943224 64.66992188 27.77587891 C71.02149072 29.05691999 77.37978242 29.32635903 83.546875 27.1328125 C88.95429092 23.2840047 92.51865439 17.80255785 96.08544922 12.30029297 C101.61552411 4.09848795 101.61552411 4.09848795 105.546875 2.1328125 C107.27664912 2.02695373 109.010442 1.98403699 110.7434082 1.97167969 C111.82826004 1.96207214 112.91311188 1.9524646 114.03083801 1.94256592 C115.20788803 1.93831604 116.38493805 1.93406616 117.59765625 1.9296875 C118.80375046 1.92398743 120.00984467 1.91828735 121.25248718 1.91241455 C123.80885945 1.90295404 126.36524398 1.89642641 128.92163086 1.89257812 C132.83273627 1.88287856 136.74331503 1.85186659 140.65429688 1.8203125 C143.13541354 1.81378206 145.61653397 1.80853175 148.09765625 1.8046875 C149.26863358 1.7923407 150.4396109 1.7799939 151.64607239 1.76727295 C152.74038071 1.77027405 153.83468903 1.77327515 154.9621582 1.77636719 C155.92209183 1.77272156 156.88202545 1.76907593 157.87104797 1.76531982 C163.46604759 2.53372576 166.4095291 5.84107896 169.734375 10.1328125 C170.52457031 11.09832031 171.31476563 12.06382812 172.12890625 13.05859375 C174.546875 16.1328125 174.546875 16.1328125 176.68359375 19.30078125 C180.51430028 24.46855812 184.35996867 27.85694218 190.69628906 29.20239258 C195.49967706 29.69879589 199.21741255 29.40463847 203.546875 27.1328125 C205.38003256 25.21802945 206.96021565 23.39456324 208.5546875 21.30078125 C223.6659631 1.78516909 223.6659631 1.78516909 236.17626953 -0.22753906 C243.86438595 -1.05730613 251.50980464 -1.12275241 259.234375 -0.9921875 C261.16799896 -0.97430176 261.16799896 -0.97430176 263.14068604 -0.95605469 C266.86968551 -0.89252082 270.58392414 -0.75022564 274.30859375 -0.5625 C276.00097923 -0.50051926 276.00097923 -0.50051926 277.72755432 -0.43728638 C283.40996266 0.00473974 286.75901212 0.64076587 290.62695312 4.99975586 C291.62989604 6.35601913 292.60470103 7.73365105 293.546875 9.1328125 C294.52719379 10.41167738 295.51209494 11.68705855 296.50390625 12.95703125 C297.45944185 14.24203921 298.41119879 15.52986466 299.359375 16.8203125 C302.34377933 20.8742392 305.32204629 24.90691296 308.54296875 28.77734375 C309.00791748 29.34557861 309.47286621 29.91381348 309.9519043 30.49926758 C311.21532685 32.03376754 312.49767652 33.55262814 313.78125 35.0703125 C315.51835633 38.08334648 316.52700044 40.38143856 316.32177734 43.90625 C314.46752447 49.23415994 309.53119926 52.8907896 305.484375 56.6328125 C303.59548312 58.43261789 301.70872429 60.23466486 299.82421875 62.0390625 C298.91663818 62.90144531 298.00905762 63.76382813 297.07397461 64.65234375 C294.22831563 67.44549371 291.614007 70.36840306 289.03295898 73.40429688 C287.00427678 75.76392724 284.82592859 77.95035974 282.609375 80.1328125 C281.83722656 80.8959375 281.06507813 81.6590625 280.26953125 82.4453125 C279.70105469 83.0021875 279.13257813 83.5590625 278.546875 84.1328125 C280.27730624 89.25124595 283.2913334 92.47988211 286.8671875 96.4375 C289.09255217 100.008434 289.19024498 101.98969234 288.546875 106.1328125 C286.95636193 108.43124178 285.57239583 110.08728265 283.609375 112.0078125 C283.08448486 112.54881592 282.55959473 113.08981934 282.01879883 113.6472168 C280.21390932 115.49569139 278.38261051 117.31498437 276.546875 119.1328125 C275.1010775 120.57894236 273.65578443 122.02557667 272.2109375 123.47265625 C270.01468125 125.67106078 267.81548475 127.86554793 265.59985352 130.04443359 C262.31624614 133.28510535 259.13495543 136.54967961 256.12890625 140.05078125 C251.26384006 145.70145017 245.88487983 150.83964187 240.57421875 156.06640625 C236.94348328 159.66217477 233.37630143 163.25428206 230.046875 167.1328125 C225.21555114 172.76094007 219.85690122 177.86717848 214.57421875 183.06640625 C210.3121512 187.2874266 206.24028941 191.57249641 202.33398438 196.12304688 C198.19631336 200.776231 193.65679268 205.05829612 189.21875 209.421875 C185.71594573 212.88893637 182.28923779 216.36085852 179.078125 220.1015625 C174.23391471 225.73825881 168.86756428 230.85668388 163.57421875 236.06640625 C159.21676427 240.38189487 155.01495603 244.74905193 151.04321289 249.42382812 C148.07740777 252.81110759 145.40751555 255.72174075 140.859375 256.7265625 C135.67393289 255.79709646 133.12062385 252.37991628 129.609375 248.6328125 C128.93197266 247.93671875 128.25457031 247.240625 127.55664062 246.5234375 C122.07702784 240.84943769 122.07702784 240.84943769 119.87060547 237.86694336 C116.75278398 233.73135132 114.57496055 231.66569831 109.359375 230.82421875 C107.42437779 230.71680192 105.48475851 230.67633709 103.546875 230.6953125 C102.53101318 230.69781006 101.51515137 230.70030762 100.46850586 230.70288086 C92.69392452 231.15680358 88.34275242 233.51094755 83.109375 239.1953125 C81.46783738 241.11919649 79.87521176 243.0757338 78.28707886 245.04376221 C71.23862723 253.50516739 71.23862723 253.50516739 65.78263855 254.77735901 C62.54429005 255.02329276 59.37605318 255.05123685 56.12890625 254.9921875 C54.95349777 254.99414124 53.77808929 254.99609497 52.56706238 254.99810791 C50.09353306 254.99412251 47.61997832 254.97294464 45.14672852 254.93554688 C41.36021479 254.88282419 37.57777292 254.89441782 33.79101562 254.9140625 C31.38279077 254.90225223 28.97458057 254.88675413 26.56640625 254.8671875 C25.43612503 254.87103455 24.30584381 254.87488159 23.14131165 254.87884521 C15.30679175 254.71385363 15.30679175 254.71385363 11.50170898 251.80444336 C10.85661377 250.92280518 10.21151855 250.04116699 9.546875 249.1328125 C8.97098633 248.53186768 8.39509766 247.93092285 7.80175781 247.31176758 C6.1310687 245.52516061 4.46265713 243.73649621 2.796875 241.9453125 C2.20777344 241.31689453 1.61867187 240.68847656 1.01171875 240.04101562 C0.45097656 239.43837891 -0.10976562 238.83574219 -0.6875 238.21484375 C-1.44885254 237.39850464 -1.44885254 237.39850464 -2.22558594 236.56567383 C-3.453125 235.1328125 -3.453125 235.1328125 -4.453125 233.1328125 C-21.2253429 230.81023882 -21.2253429 230.81023882 -36.41015625 236.296875 C-39.64553275 239.36678652 -42.42922532 242.7344917 -45.07714844 246.31787109 C-47.41486187 249.40136322 -49.95651817 252.38450909 -53.453125 254.1328125 C-55.12707558 254.23337899 -56.80497909 254.27116592 -58.48193359 254.27807617 C-59.52997162 254.28445602 -60.57800964 254.29083588 -61.6578064 254.29740906 C-63.36246567 254.29907829 -63.36246567 254.29907829 -65.1015625 254.30078125 C-66.84767319 254.30577385 -66.84767319 254.30577385 -68.62905884 254.31086731 C-71.0954753 254.31593774 -73.56189864 254.3182756 -76.02832031 254.31811523 C-79.80545349 254.32029939 -83.58229363 254.33844776 -87.359375 254.35742188 C-89.75260316 254.3603562 -92.14583272 254.36234073 -94.5390625 254.36328125 C-95.67145355 254.37046677 -96.8038446 254.37765228 -97.97055054 254.38505554 C-99.02489288 254.38197891 -100.07923523 254.37890228 -101.16552734 254.37573242 C-102.09215179 254.37715744 -103.01877625 254.37858246 -103.97348022 254.38005066 C-107.89707823 253.98884013 -109.86448414 252.7811053 -112.49609375 249.8828125 C-113.20378906 248.9753125 -113.91148438 248.0678125 -114.640625 247.1328125 C-115.74277311 245.72598893 -116.84959671 244.3220409 -117.9987793 242.95336914 C-119.453125 241.1328125 -119.453125 241.1328125 -121.15161133 238.56030273 C-124.43879085 234.09569721 -126.7641055 231.50476767 -132.30004883 230.28564453 C-136.79221382 229.91664838 -141.26613172 230.04188313 -145.765625 230.1953125 C-148.08938046 230.23652837 -150.41228633 230.26345005 -152.7363739 230.27549744 C-154.17352352 230.28688452 -155.6106845 230.31703074 -157.04695129 230.3686676 C-159.96355706 230.42456235 -162.19498527 230.24522986 -164.8828125 229.07470703 C-168.26889912 224.88737292 -167.15551056 218.43915118 -167.1394043 213.24682617 C-167.14061261 210.96867866 -167.20019122 208.69707437 -167.26367188 206.41992188 C-167.41072814 194.23455291 -167.41072814 194.23455291 -163.125 189.3046875 C-161.92895341 188.21592112 -160.70520881 187.1566415 -159.453125 186.1328125 C-158.29652454 184.95579693 -157.14919528 183.7695242 -156.015625 182.5703125 C-152.96045371 179.54946898 -149.74745166 176.75112161 -146.4453125 174.00390625 C-145.45917969 173.07771484 -145.45917969 173.07771484 -144.453125 172.1328125 C-143.5470752 171.40312256 -142.64102539 170.67343262 -141.70751953 169.92163086 C-139.67766444 167.46813645 -139.43766579 166.39454096 -139.62838745 163.16557312 C-139.82707428 162.01152481 -140.02576111 160.8574765 -140.23046875 159.66845703 C-141.98453787 148.76290677 -143.05264585 137.98319942 -136.53808594 128.41638184 C-127.73767724 116.9259295 -116.71589313 107.17878267 -106.07940674 97.43487549 C-101.69390188 93.38203669 -97.40492544 89.22960744 -93.10546875 85.0859375 C-86.80619153 79.0394416 -80.4709204 73.03577711 -74.0625 67.10498047 C-73.40865829 66.49938797 -72.75481659 65.89379547 -72.0811615 65.26985168 C-68.87149699 62.31206546 -65.62793684 59.40397652 -62.33065796 56.54406738 C-59.0255586 53.66471417 -55.89384815 50.68917573 -52.80322266 47.58056641 C-52.29808136 47.07396484 -51.79294006 46.56736328 -51.27249146 46.04541016 C-50.19327006 44.96242805 -49.11520321 43.87829432 -48.03822708 42.79307938 C-46.33401791 41.07595402 -44.62657036 39.36210637 -42.91830444 37.64901733 C-39.30206663 34.02144244 -35.68982122 30.38990836 -32.078125 26.7578125 C-27.8695169 22.52558395 -23.65927791 18.29500405 -19.44483566 14.06858444 C-17.76208249 12.37934665 -16.08236417 10.68713017 -14.40274048 8.99478149 C-13.37752741 7.96593826 -12.35217501 6.93723384 -11.32666016 5.90869141 C-10.4314566 5.00825104 -9.53625305 4.10781067 -8.61392212 3.18008423 C-5.59383352 0.31866705 -4.04682661 0.00561391 0 0 Z M-19.82971191 32.19439697 C-22.11612035 34.69306686 -24.45765304 37.13877049 -26.796875 39.58789062 C-29.43433043 42.35528853 -32.06319036 45.12704793 -34.65618896 47.93617249 C-35.81975922 49.19668678 -35.81975922 49.19668678 -37.00683594 50.48266602 C-37.67487244 51.21324722 -38.34290894 51.94382843 -39.03118896 52.69654846 C-41.0584848 54.73583763 -43.11798818 56.6110218 -45.28985596 58.4903717 C-49.1903643 61.86688767 -52.87107946 65.40904344 -56.51171875 69.06201172 C-57.16637619 69.71491684 -57.82103363 70.36782196 -58.49552917 71.04051208 C-60.62972724 73.17035596 -62.76030284 75.3037799 -64.890625 77.4375 C-66.38120166 78.92740234 -67.87192668 80.41715627 -69.36279297 81.9067688 C-72.47086494 85.01337303 -75.57713697 88.12176274 -78.68212891 91.23144531 C-82.67145602 95.22650408 -86.66530266 99.21700996 -90.66047668 103.20622063 C-93.73162044 106.27376342 -96.80039412 109.34366828 -99.86843872 112.41431046 C-101.34138495 113.88792545 -102.81507899 115.36079334 -104.28952026 116.83291245 C-106.33866407 118.87953363 -108.38460402 120.92930313 -110.4296875 122.97998047 C-111.04361862 123.59188736 -111.65754974 124.20379425 -112.29008484 124.83424377 C-115.12717781 127.11642741 -115.12717781 127.11642741 -116.453125 130.1328125 C-112.43648209 130.60745273 -108.42706419 130.88427969 -104.390625 131.1328125 C-103.27623047 131.266875 -102.16183594 131.4009375 -101.01367188 131.5390625 C-96.46123284 131.74777031 -92.5499479 131.66856019 -88.7444458 128.88134766 C-84.70311959 125.14469066 -81.24481669 120.8733166 -77.69338989 116.6796875 C-73.9429458 112.41594515 -69.89771346 108.44637587 -65.8590374 104.45858765 C-64.38602789 103.0032706 -62.91799026 101.5431142 -61.45143127 100.08129883 C-58.45521867 97.09522066 -55.45451582 94.1136847 -52.453125 91.1328125 C-48.9266025 87.63015294 -45.40190598 84.12568997 -41.88137817 80.61700439 C-40.49715482 79.23914005 -39.10983305 77.86439061 -37.72241211 76.48974609 C-34.03031499 72.81196348 -30.39387042 69.13793171 -26.99975586 65.18164062 C-22.5083131 59.95273576 -17.591472 55.1469822 -12.70703125 50.2890625 C-11.68548453 49.26938541 -10.66416174 48.24948394 -9.64305115 47.22937012 C-6.98046063 44.57056189 -4.31487901 41.91477292 -1.64862061 39.25964355 C1.08180171 36.53952857 3.80932574 33.81651065 6.53710938 31.09375 C11.870897 25.77062387 17.20785416 20.45069032 22.546875 15.1328125 C18.96875299 11.55469049 13.91792515 11.79102337 9.08734131 11.63645935 C-3.82697584 12.30382562 -11.69874524 23.23504028 -19.82971191 32.19439697 Z M206.18716431 43.22570801 C204.40228517 45.30092181 202.60370117 47.36363196 200.80151367 49.42382812 C200.24139084 50.06437134 199.68126801 50.70491455 199.10417175 51.36486816 C196.9469598 53.81387517 194.75083043 56.22586118 192.546875 58.6328125 C189.68215685 61.77364806 186.83501598 64.92382006 184.046875 68.1328125 C181.25873402 71.34180494 178.41159315 74.49197694 175.546875 77.6328125 C172.09112087 81.42215376 168.6816461 85.24364948 165.31640625 89.11328125 C161.00817752 94.03017806 156.60001344 98.85920282 152.21875 103.7109375 C148.25487271 108.10625722 144.32083928 112.52220846 140.44140625 116.9921875 C137.28472676 120.55890989 134.0285055 124.0352866 130.78125 127.51953125 C128.70232512 129.95100108 127.0957371 132.34184345 125.546875 135.1328125 C138.9698289 136.93947467 138.9698289 136.93947467 151.74853516 133.96972656 C155.30477154 131.06398628 157.91535948 127.50409153 160.45507812 123.70507812 C161.87476933 121.6606212 163.54080718 120.01237125 165.359375 118.3203125 C167.68919103 116.03551707 169.85507596 113.66835489 171.984375 111.1953125 C174.40305279 108.38704903 176.90587183 105.73310657 179.546875 103.1328125 C182.14669683 100.57291116 184.60955898 97.9650171 186.984375 95.1953125 C190.25818153 91.38457187 193.78051471 87.88203085 197.35546875 84.35546875 C199.96788568 81.7057981 202.37990121 78.92108447 204.80078125 76.09765625 C207.27168889 73.31719418 209.9285444 70.74163032 212.578125 68.1328125 C214.48673955 66.19390248 216.27398052 64.19581699 218.046875 62.1328125 C220.44364088 59.34384857 222.92646891 56.71290465 225.546875 54.1328125 C228.14669683 51.57291116 230.60955898 48.9650171 232.984375 46.1953125 C236.25818153 42.38457187 239.78051471 38.88203085 243.35546875 35.35546875 C245.96102434 32.71275728 248.36836019 29.93801134 250.77734375 27.1171875 C253.35501059 24.2265589 256.14089254 21.56360276 258.9453125 18.89453125 C260.77592057 17.11928221 260.77592057 17.11928221 261.546875 14.1328125 C234.81180281 7.19154585 222.14853107 24.65714515 206.18716431 43.22570801 Z M104.75 19.22338867 C103.13350323 21.53693407 101.72363417 23.87823193 100.45947266 26.40185547 C99.05882535 29.05851395 97.17250539 31.2254316 95.234375 33.5078125 C94.5125 34.3946875 93.790625 35.2815625 93.046875 36.1953125 C88.32870073 41.73916726 83.28921779 46.98839459 78.29150391 52.27929688 C75.64849212 55.08726574 73.03385961 57.92100649 70.421875 60.7578125 C69.93485107 61.28616699 69.44782715 61.81452148 68.94604492 62.35888672 C67.96876546 63.41913508 66.99163256 64.47951855 66.01464844 65.54003906 C63.52721286 68.23931214 61.03688167 70.93591141 58.546875 73.6328125 C57.54686148 74.71613336 56.54686148 75.79946668 55.546875 76.8828125 C25.546875 109.3828125 25.546875 109.3828125 24.04467773 111.01000977 C23.05175821 112.08579397 22.05907961 113.16180058 21.06665039 114.23803711 C18.46032234 117.06380933 15.84905228 119.88479608 13.23046875 122.69921875 C12.41545898 123.57707031 12.41545898 123.57707031 11.58398438 124.47265625 C10.54646911 125.58998038 9.50749307 126.70595055 8.46679688 127.8203125 C5.99023454 130.49051551 3.70399431 133.20140295 1.546875 136.1328125 C17.83057305 138.27875904 17.83057305 138.27875904 33.27978516 134.67529297 C37.65402169 131.11929927 40.88992256 126.83444455 44.04321289 122.19555664 C46.09548908 119.38021624 48.49589443 117.04462743 50.99804688 114.6315918 C52.73585786 112.94993644 54.3072332 111.17367858 55.859375 109.3203125 C58.62305529 106.10947495 61.53307096 103.11014085 64.546875 100.1328125 C67.49870525 97.21654647 70.35076359 94.28675415 73.046875 91.1328125 C76.53139607 87.05658031 80.32769481 83.33730377 84.140625 79.5703125 C86.20136845 77.48280615 88.14203126 75.36112027 90.046875 73.1328125 C93.53020042 69.057979 97.32506208 65.33988258 101.13671875 61.57421875 C103.81542032 58.86078523 106.29295618 56.02504227 108.76953125 53.12890625 C111.49786785 50.06477437 114.44355408 47.22799418 117.36328125 44.34765625 C119.32662171 42.35621789 121.16767169 40.31978672 122.984375 38.1953125 C125.70306748 35.0224533 128.57439175 32.06942868 131.546875 29.1328125 C135.74394642 24.98066386 139.88660577 20.77480957 143.546875 16.1328125 C143.546875 15.8028125 143.546875 15.4728125 143.546875 15.1328125 C122.79541032 12.3858936 122.79541032 12.3858936 104.75 19.22338867 Z M275.54785156 18.99316406 C275.0112793 19.53424805 274.47470703 20.07533203 273.921875 20.6328125 C273.37499023 21.18163086 272.82810547 21.73044922 272.26464844 22.29589844 C268.75872884 25.8392256 265.41909887 29.4770932 262.1875 33.2734375 C259.75842175 36.02639285 257.12673904 38.56185232 254.51171875 41.13671875 C252.62456756 43.05388427 250.86002125 45.02856572 249.109375 47.0703125 C245.83556847 50.88105313 242.31323529 54.38359415 238.73828125 57.91015625 C236.12586432 60.5598269 233.71384879 63.34454053 231.29296875 66.16796875 C228.82206111 68.94843082 226.1652056 71.52399468 223.515625 74.1328125 C221.60701045 76.07172252 219.81976948 78.06980801 218.046875 80.1328125 C215.65010912 82.92177643 213.16728109 85.55272035 210.546875 88.1328125 C207.94705317 90.69271384 205.48419102 93.3006079 203.109375 96.0703125 C199.83556847 99.88105313 196.31323529 103.38359415 192.73828125 106.91015625 C190.12586432 109.5598269 187.71384879 112.34454053 185.29296875 115.16796875 C182.8232814 117.94705764 180.16784178 120.52141746 177.51953125 123.12890625 C174.98319922 125.7054178 172.64460243 128.42707551 170.2890625 131.16796875 C167.51510579 134.29644459 164.54303571 137.21861363 161.546875 140.1328125 C163.16379366 144.21407106 166.08958032 146.93888969 169.171875 149.9453125 C169.70586914 150.47286133 170.23986328 151.00041016 170.79003906 151.54394531 C174.89907213 155.573911 179.1287405 159.44237074 183.546875 163.1328125 C184.26762207 162.41134033 184.98836914 161.68986816 185.73095703 160.9465332 C188.34933813 158.33019524 190.97439834 155.72079516 193.6015625 153.11328125 C195.04775774 151.67446792 196.49346645 150.23516769 197.93896484 148.7956543 C198.923087 147.81655483 199.90810562 146.83835555 200.89404297 145.86108398 C206.03990626 140.75906283 211.07169536 135.62207603 215.78564453 130.11450195 C220.11419251 125.24413545 224.87768625 120.76773287 229.51953125 116.19921875 C233.15026672 112.60345023 236.71744857 109.01134294 240.046875 105.1328125 C244.87819886 99.50468493 250.23684878 94.39844652 255.51953125 89.19921875 C259.15026672 85.60345023 262.71744857 82.01134294 266.046875 78.1328125 C270.87819886 72.50468493 276.23684878 67.39844652 281.51953125 62.19921875 C285.87836093 57.88236817 290.08348465 53.51260169 294.06274414 48.84179688 C296.11246959 46.4815274 298.30341865 44.30828532 300.546875 42.1328125 C299.23673164 39.35850367 297.77844727 36.94037336 295.9375 34.48828125 C295.42960938 33.81087891 294.92171875 33.13347656 294.3984375 32.43554688 C293.86992187 31.73751953 293.34140625 31.03949219 292.796875 30.3203125 C292.28382813 29.63388672 291.77078125 28.94746094 291.2421875 28.24023438 C286.15012861 21.47380509 286.15012861 21.47380509 280.546875 15.1328125 C278.36945265 15.1328125 277.00666678 17.53996327 275.54785156 18.99316406 Z M34.19140625 20.2578125 C33.24221204 21.21101175 32.29842554 22.16961858 31.359375 23.1328125 C29.97685547 24.525 29.97685547 24.525 28.56640625 25.9453125 C26.47284265 28.11378117 24.49498955 30.34944818 22.54174805 32.64453125 C18.28753923 37.51907961 13.72294571 42.07053456 9.13131714 46.62353516 C7.57213773 48.1697399 6.01628879 49.71923146 4.46118164 51.26953125 C0.60121697 55.11625475 -3.26422402 58.95745966 -7.1295166 62.79882812 C-10.40761942 66.05706946 -13.68357492 69.3174424 -16.95681763 72.58056641 C-18.47621966 74.09357302 -19.99864203 75.6034922 -21.52124023 77.11328125 C-26.07435972 81.64255386 -30.47572867 86.23110737 -34.65530396 91.10791016 C-38.42885766 95.35809833 -42.5140198 99.3143551 -46.54296875 103.3203125 C-47.49725493 104.27272862 -48.45131688 105.22536945 -49.40516663 106.17822266 C-51.8902047 108.65948175 -54.37823296 111.13772041 -56.86694336 113.61529541 C-59.41639996 116.15443735 -61.96295188 118.69648896 -64.50976562 121.23828125 C-69.48808131 126.20594132 -74.46956871 131.17040936 -79.453125 136.1328125 C-76.17686427 144.41775771 -72.01283789 152.9812028 -64.453125 158.1328125 C-56.4430218 160.68300613 -47.53905782 160.18688215 -39.453125 158.1328125 C-36.1175285 156.30664185 -34.45236492 154.8898084 -32.32421875 151.78515625 C-30.10880953 148.64473275 -27.53287623 146.49286592 -24.61791992 144.01342773 C-21.04321319 140.90798441 -17.72776674 137.55187504 -14.390625 134.1953125 C-13.72224609 133.53080078 -13.05386719 132.86628906 -12.36523438 132.18164062 C-8.47643556 128.2852834 -4.78010783 124.2799498 -1.18383789 120.11303711 C1.72232979 116.7878959 4.76338676 113.59143981 7.796875 110.3828125 C13.201765 104.64199149 18.56407022 98.86768145 23.8828125 93.046875 C31.07742898 85.17710389 38.32779008 77.35961518 45.609375 69.5703125 C61.37023316 55.53915038 61.37023316 55.53915038 71.546875 40.1328125 C70.47308594 40.1534375 69.39929688 40.1740625 68.29296875 40.1953125 C57.20441571 40.14844846 57.20441571 40.14844846 53.27734375 37.7421875 C51.46604871 35.64443461 50.0304041 33.47559604 48.546875 31.1328125 C47.25892055 29.37674714 45.93983024 27.64804222 44.61083984 25.92285156 C43.70215074 24.74113668 42.80501303 23.55043748 41.92041016 22.35058594 C40.8428068 20.90839273 39.69982604 19.51551064 38.546875 18.1328125 C36.26564782 17.90952962 36.26564782 17.90952962 34.19140625 20.2578125 Z M155.4140625 22.1328125 C154.77621826 22.76872314 154.13837402 23.40463379 153.48120117 24.05981445 C152.46183472 25.08594849 152.46183472 25.08594849 151.421875 26.1328125 C150.73262939 26.8239917 150.04338379 27.5151709 149.33325195 28.22729492 C145.47598462 32.11754209 141.74883771 36.05799294 138.21484375 40.24609375 C135.29061554 43.5538273 132.09262682 46.593636 128.953125 49.6953125 C126.89238155 51.78281885 124.95171874 53.90450473 123.046875 56.1328125 C119.56235393 60.20904469 115.76605519 63.92832123 111.953125 67.6953125 C109.89238155 69.78281885 107.95171874 71.90450473 106.046875 74.1328125 C102.56235393 78.20904469 98.76605519 81.92832123 94.953125 85.6953125 C92.89238155 87.78281885 90.95171874 89.90450473 89.046875 92.1328125 C85.56235393 96.20904469 81.76605519 99.92832123 77.953125 103.6953125 C75.89238155 105.78281885 73.95171874 107.90450473 72.046875 110.1328125 C68.56235393 114.20904469 64.76605519 117.92832123 60.953125 121.6953125 C58.30700993 124.3757927 55.86331255 127.1773652 53.41796875 130.0390625 C49.65234878 134.25278338 45.57779992 138.1748822 41.546875 142.1328125 C42.39640434 143.30286024 43.25188021 144.4685898 44.109375 145.6328125 C44.58503906 146.2825 45.06070313 146.9321875 45.55078125 147.6015625 C46.20949219 148.436875 46.86820313 149.2721875 47.546875 150.1328125 C47.97371582 150.78934814 48.40055664 151.44588379 48.84033203 152.12231445 C52.25191666 156.82910682 55.09836882 158.7453922 60.84375 159.86328125 C71.79657145 160.91013884 81.542294 161.15353634 90.39126587 154.03425598 C97.71564053 147.57554957 104.11328617 140.19143919 110.29412842 132.65209961 C111.98605932 130.60018516 113.73186383 128.59837155 115.48828125 126.6015625 C116.0201001 125.99570313 116.55191895 125.38984375 117.09985352 124.765625 C119.22578097 122.36673807 121.38226313 119.99679652 123.546875 117.6328125 C127.00262913 113.84347124 130.4121039 110.02197552 133.77734375 106.15234375 C138.08557248 101.23544694 142.49373656 96.40642218 146.875 91.5546875 C150.27032438 87.789804 153.65745842 84.02087699 156.984375 80.1953125 C160.63624553 76.00116885 164.38953684 71.90186958 168.13671875 67.79296875 C170.71381547 64.94855568 173.2443691 62.06855391 175.7578125 59.16796875 C177.88330776 56.75010187 180.06112656 54.38281201 182.234375 52.0078125 C185.37299941 48.5371152 188.12580338 45.13284387 190.546875 41.1328125 C189.83144531 41.22304687 189.11601562 41.31328125 188.37890625 41.40625 C184.07026338 41.55117201 180.37530607 41.50196457 176.79931641 38.82421875 C172.66284877 34.9360091 169.11202925 30.53817696 165.546875 26.1328125 C164.4457678 24.80777299 163.33917793 23.48726608 162.2265625 22.171875 C161.49155518 21.29716553 161.49155518 21.29716553 160.74169922 20.40478516 C160.34740723 19.98503418 159.95311523 19.5652832 159.546875 19.1328125 C157.72348277 19.1328125 156.63964436 20.90961969 155.4140625 22.1328125 Z M267.546875 95.1328125 C263.96893048 98.68580622 260.39446114 102.24224901 256.82299805 105.80175781 C255.61070252 107.00906315 254.3975063 108.21546484 253.18334961 109.42089844 C247.35004373 115.21337838 241.55785524 120.96779892 236.22680664 127.23242188 C231.93764201 132.08445755 227.18751721 136.5259877 222.57421875 141.06640625 C218.94348328 144.66217477 215.37630143 148.25428206 212.046875 152.1328125 C207.21555114 157.76094007 201.85690122 162.86717848 196.57421875 168.06640625 C191.67336099 172.92006474 187.03939722 177.90179348 182.546875 183.1328125 C180.74799446 185.17250704 178.9154853 187.15428395 177.046875 189.1328125 C176.1703125 190.0815625 175.29375 191.0303125 174.390625 192.0078125 C171.546875 194.1328125 171.546875 194.1328125 168.07421875 194.7890625 C163.61468048 193.95938096 161.5114688 191.90017675 158.609375 188.6328125 C158.11630859 188.10816406 157.62324219 187.58351563 157.11523438 187.04296875 C155.90917001 185.75493885 154.72564241 184.44586987 153.546875 183.1328125 C150.29289363 184.5462214 148.27027439 186.22636144 145.875 188.828125 C145.21113281 189.54355469 144.54726563 190.25898438 143.86328125 190.99609375 C142.84041016 192.11564453 142.84041016 192.11564453 141.796875 193.2578125 C140.75080078 194.38896484 140.75080078 194.38896484 139.68359375 195.54296875 C137.96615263 197.40156941 136.25419352 199.26491718 134.546875 201.1328125 C138.68890832 209.90168271 148.8168403 218.9118831 157.546875 223.1328125 C160.40533507 220.30378374 163.25782484 217.46880471 166.109375 214.6328125 C166.90923828 213.84132813 167.70910156 213.04984375 168.53320312 212.234375 C172.15581631 208.62654799 175.71200201 205.013287 179.04296875 201.1328125 C183.87756236 195.50659363 189.2363301 190.398957 194.51953125 185.19921875 C198.15026672 181.60345023 201.71744857 178.01134294 205.046875 174.1328125 C209.87819886 168.50468493 215.23684878 163.39844652 220.51953125 158.19921875 C224.15026672 154.60345023 227.71744857 151.01134294 231.046875 147.1328125 C235.87819886 141.50468493 241.23684878 136.39844652 246.51953125 131.19921875 C250.82130777 126.93887186 254.94214606 122.61508455 258.88525391 118.02148438 C261.61355599 114.92037581 264.54303119 112.03025565 267.484375 109.1328125 C268.07283203 108.54886719 268.66128906 107.96492188 269.26757812 107.36328125 C270.69167293 105.95076445 272.1189275 104.5414344 273.546875 103.1328125 C272.09828074 99.75275923 270.17357329 97.6740897 267.546875 95.1328125 Z M-126.453125 143.1328125 C-126.453125 147.4228125 -126.453125 151.7128125 -126.453125 156.1328125 C-125.09948853 156.12326538 -125.09948853 156.12326538 -123.71850586 156.11352539 C-120.34214299 156.10636794 -116.96893697 156.13059535 -113.59301758 156.17553711 C-112.13734695 156.18860765 -110.68151006 156.18947452 -109.22583008 156.17749023 C-97.2054862 156.09101294 -97.2054862 156.09101294 -93.05981445 158.55566406 C-91.27766409 160.3125715 -89.87000135 162.07426108 -88.453125 164.1328125 C-87.62425781 165.09445312 -86.79539063 166.05609375 -85.94140625 167.046875 C-85.22339844 167.94148438 -84.50539062 168.83609375 -83.765625 169.7578125 C-83.03988281 170.65757812 -82.31414062 171.55734375 -81.56640625 172.484375 C-79.453125 175.1328125 -79.453125 175.1328125 -77.93212891 177.73925781 C-74.20363286 181.33923568 -70.6954256 180.99667399 -65.67578125 181.078125 C-64.23228554 181.11376053 -64.23228554 181.11376053 -62.7596283 181.15011597 C-60.71976686 181.18856716 -58.67959712 181.21287682 -56.6394043 181.22412109 C-53.5529022 181.25741045 -50.48007096 181.38646238 -47.39648438 181.51953125 C-34.86472245 181.80256788 -34.86472245 181.80256788 -24.41014099 175.60910034 C-21.88962746 172.91779482 -19.64727294 170.09175294 -17.453125 167.1328125 C-16.23355384 165.70787695 -15.00666929 164.28908566 -13.765625 162.8828125 C-13.0025 161.9753125 -12.239375 161.0678125 -11.453125 160.1328125 C-6.59626155 157.70438078 0.83016675 158.82023963 6.23120117 158.78271484 C7.97808156 158.76616289 9.72489443 158.73888255 11.47143555 158.70068359 C13.99303226 158.64582998 16.51304275 158.62402924 19.03515625 158.609375 C19.81240555 158.58670563 20.58965485 158.56403625 21.39045715 158.54067993 C25.40065362 158.55625244 27.25142318 158.89041976 30.39086914 161.46606445 C31.45809204 162.78610474 31.45809204 162.78610474 32.546875 164.1328125 C33.08199707 164.69299072 33.61711914 165.25316895 34.16845703 165.83032227 C35.67156996 167.45017926 37.17315572 169.07138849 38.671875 170.6953125 C39.19652344 171.25927734 39.72117188 171.82324219 40.26171875 172.40429688 C41.02548828 173.2309082 41.02548828 173.2309082 41.8046875 174.07421875 C42.2598877 174.56607666 42.71508789 175.05793457 43.18408203 175.56469727 C44.546875 177.1328125 44.546875 177.1328125 45.65869141 179.26660156 C48.7441133 182.31611862 52.31468098 181.91848003 56.5 182.05078125 C57.38851654 182.08645203 58.27703308 182.1221228 59.19247437 182.15887451 C62.06122456 182.25017073 64.92682061 182.29394906 67.796875 182.3203125 C69.24498566 182.3380925 69.24498566 182.3380925 70.72235107 182.35623169 C85.16537416 182.70681702 85.16537416 182.70681702 97.46777344 176.10083008 C99.60440543 173.55493204 101.44041029 170.91364768 103.22631836 168.11401367 C105.85262883 164.17381965 108.23268317 161.25517948 112.546875 159.1328125 C117.67948919 158.31599324 122.64330978 158.24840925 127.8293457 158.38500977 C130.23996886 158.44545276 132.64536425 158.44656314 135.05664062 158.43945312 C136.598997 158.45485417 138.14132425 158.4736176 139.68359375 158.49609375 C140.39827316 158.49740799 141.11295258 158.49872223 141.84928894 158.50007629 C146.67865399 158.65967676 149.11527747 159.76729854 152.546875 163.1328125 C153.68587416 164.35115767 154.79217208 165.60110974 155.859375 166.8828125 C159.53854702 171.19408897 163.4939478 175.17462905 167.546875 179.1328125 C169.856875 177.1528125 172.166875 175.1728125 174.546875 173.1328125 C170.14616885 167.79946062 165.44508151 163.06072503 160.359375 158.3828125 C158.94887382 157.075893 157.53870467 155.76861505 156.12890625 154.4609375 C155.51249268 153.8927832 154.8960791 153.32462891 154.26098633 152.73925781 C152.546875 151.1328125 152.546875 151.1328125 151.30322266 149.48706055 C148.48860264 147.31682185 145.29567367 147.36260782 141.86328125 147.13671875 C141.09941605 147.08618851 140.33555084 147.03565826 139.54853821 146.9835968 C137.06864355 146.84926034 134.59198843 146.76192576 132.109375 146.6953125 C131.27206848 146.67124329 130.43476196 146.64717407 129.57208252 146.62237549 C118.55436461 146.45786077 111.16697996 147.3862176 102.94506836 155.19506836 C99.81039236 158.68946625 96.85220319 162.23941501 94.13623047 166.06982422 C92.546875 168.1328125 92.546875 168.1328125 89.546875 170.1328125 C83.86167924 170.76229428 78.17909318 170.88791845 72.46264648 170.99780273 C70.57568961 171.04575569 68.68920483 171.12052981 66.80444336 171.22338867 C50.36061745 172.11017193 50.36061745 172.11017193 44.80029297 167.45361328 C40.93630189 163.56625838 37.8142063 159.21607798 34.97241211 154.54467773 C32.93435042 151.51518287 31.29814358 149.5900096 27.65783691 148.63964844 C21.68767118 147.62995656 15.71174462 147.59181074 9.671875 147.6328125 C8.74368958 147.6286734 7.81550415 147.6245343 6.85919189 147.62026978 C-3.22187881 147.64862737 -12.12502383 147.67659995 -20.05908203 154.62890625 C-22.52768541 157.30825134 -24.77539835 160.03090334 -26.74853516 163.09643555 C-30.32527471 167.36936374 -33.82299166 169.84222795 -39.34960938 170.82739258 C-40.7479355 170.87989943 -42.14756411 170.903748 -43.546875 170.90234375 C-44.29723022 170.9142424 -45.04758545 170.92614105 -45.82067871 170.93840027 C-47.39713531 170.95484817 -48.97377561 170.95834877 -50.55029297 170.94946289 C-52.94945619 170.94531884 -55.34025941 171.01053107 -57.73828125 171.08007812 C-68.76747872 171.21497842 -68.76747872 171.21497842 -72.9230957 168.54711914 C-74.7432075 166.50822847 -76.09098878 164.49781431 -77.453125 162.1328125 C-78.35327801 160.90277296 -79.26301293 159.67967034 -80.18359375 158.46484375 C-81.00712451 157.29483537 -81.82621251 156.12168609 -82.640625 154.9453125 C-83.4660596 153.76335216 -84.29286132 152.58234526 -85.12109375 151.40234375 C-85.47453857 150.89292236 -85.8279834 150.38350098 -86.19213867 149.85864258 C-86.60826416 149.28911865 -87.02438965 148.71959473 -87.453125 148.1328125 C-87.99525635 147.25044922 -88.5373877 146.36808594 -89.09594727 145.45898438 C-91.83978758 142.75123601 -93.45356301 142.56428697 -97.24261475 142.56632996 C-97.98755188 142.59213638 -98.73248901 142.61794281 -99.5 142.64453125 C-100.65680267 142.65514336 -100.65680267 142.65514336 -101.8369751 142.66596985 C-104.29335712 142.69389672 -106.74743551 142.75662511 -109.203125 142.8203125 C-110.87106076 142.84539789 -112.53903236 142.86821065 -114.20703125 142.88867188 C-118.28994627 142.94371688 -122.37114549 143.02997193 -126.453125 143.1328125 Z M-134.08935547 179.53320312 C-136.15656613 181.95790134 -138.46682138 184.1174404 -140.765625 186.3203125 C-142.01804509 187.56823557 -143.25661655 188.83118445 -144.453125 190.1328125 C-144.453125 190.4628125 -144.453125 190.7928125 -144.453125 191.1328125 C-129.4428409 193.44617915 -129.4428409 193.44617915 -115.35693359 189.26806641 C-109.3005581 184.25985011 -104.21289992 178.36747183 -99.453125 172.1328125 C-101.06005103 169.01075509 -101.06005103 169.01075509 -103.40161133 168.60180664 C-117.25143954 167.53359803 -125.0467623 168.69606653 -134.08935547 179.53320312 Z M-12.453125 179.1328125 C-13.65601594 180.53333866 -14.86358635 181.92987515 -16.078125 183.3203125 C-16.83996094 184.23876953 -16.83996094 184.23876953 -17.6171875 185.17578125 C-18.22304687 185.82160156 -18.82890625 186.46742188 -19.453125 187.1328125 C-20.22438721 187.98447998 -20.99564941 188.83614746 -21.7902832 189.71362305 C-26.47312389 193.54925721 -32.12205257 192.84739723 -37.89453125 192.796875 C-39.69518288 192.80405045 -39.69518288 192.80405045 -41.5322113 192.81137085 C-44.06470046 192.81476697 -46.59723362 192.80558497 -49.12963867 192.78466797 C-53.00603858 192.75787875 -56.87954877 192.78444175 -60.75585938 192.81640625 C-63.21875639 192.81310257 -65.68165161 192.8066972 -68.14453125 192.796875 C-69.30296036 192.80699615 -70.46138947 192.81711731 -71.65492249 192.82754517 C-79.70335008 192.71024355 -79.70335008 192.71024355 -83.34741211 189.90380859 C-84.04229736 188.98937988 -84.73718262 188.07495117 -85.453125 187.1328125 C-87.433125 185.4828125 -89.413125 183.8328125 -91.453125 182.1328125 C-96.403125 187.0828125 -101.353125 192.0328125 -106.453125 197.1328125 C-105.08703336 199.86499577 -103.91923312 202.02691784 -102.17578125 204.4453125 C-101.74458984 205.04601562 -101.31339844 205.64671875 -100.86914062 206.265625 C-100.42248047 206.88179687 -99.97582031 207.49796875 -99.515625 208.1328125 C-99.07283203 208.74898437 -98.63003906 209.36515625 -98.17382812 210 C-96.93904754 211.71507527 -95.7014828 213.42759301 -94.453125 215.1328125 C-94.01403809 215.8451001 -93.57495117 216.5573877 -93.12255859 217.29125977 C-90.90095006 219.74191686 -89.59658121 219.73479143 -86.33203125 219.91015625 C-73.3468387 220.84171224 -73.3468387 220.84171224 -61.9855957 215.64428711 C-59.65819581 213.24825617 -57.56682539 210.72176314 -55.453125 208.1328125 C-53.60860888 206.39160945 -51.73506124 204.68042183 -49.828125 203.0078125 C-49.03148437 202.28335938 -48.23484375 201.55890625 -47.4140625 200.8125 C-44.50504059 198.32070833 -43.00780307 198.0220225 -39.27319336 198.19726562 C-38.40678726 198.23148621 -37.54038116 198.26570679 -36.64772034 198.30096436 C-35.70565231 198.33828674 -34.76358429 198.37560913 -33.79296875 198.4140625 C-9.53193915 200.38478096 -9.53193915 200.38478096 11.66186523 191.22851562 C14.15583627 188.31802447 16.40116485 185.40448254 18.36035156 182.10742188 C19.546875 180.1328125 19.546875 180.1328125 21.9765625 177.3359375 C22.49476563 176.60890625 23.01296875 175.881875 23.546875 175.1328125 C23.19565034 173.0198851 23.19565034 173.0198851 22.546875 171.1328125 C18.21446289 170.89891982 13.88368572 170.75786986 9.546875 170.6328125 C7.71576172 170.53226563 7.71576172 170.53226563 5.84765625 170.4296875 C-3.14733007 170.23520131 -7.06617562 171.97605197 -12.453125 179.1328125 Z M99.55371094 189.06982422 C96.78107118 191.92004393 94.06624964 192.96966632 90.11901855 193.39350891 C88.85257507 193.40042 88.85257507 193.40042 87.56054688 193.4074707 C86.11379578 193.42176872 86.11379578 193.42176872 84.63781738 193.43635559 C83.6074939 193.43544418 82.57717041 193.43453278 81.515625 193.43359375 C80.4469519 193.43787888 79.37827881 193.442164 78.27722168 193.44657898 C76.02124743 193.45231343 73.7652547 193.45282908 71.50927734 193.44848633 C68.05924985 193.44532384 64.61007795 193.46880611 61.16015625 193.49414062 C58.96614691 193.49641345 56.77213527 193.49711719 54.578125 193.49609375 C53.54780151 193.5053035 52.51747803 193.51451324 51.45593262 193.52400208 C42.58189206 193.46669311 42.58189206 193.46669311 38.546875 190.1328125 C36.68514078 188.24349703 35.18120982 186.23410012 33.546875 184.1328125 C26.27500269 190.0690348 20.52892466 196.94618629 14.546875 204.1328125 C17.89706533 210.15885077 21.4882752 215.585148 27.546875 219.1328125 C37.10714584 221.72925295 49.59291584 222.03896656 58.86376953 218.16455078 C63.90026112 215.01457551 67.16737786 210.07139363 70.5625 205.30029297 C76.72771128 197.78342193 76.72771128 197.78342193 81.74053955 196.6265564 C86.98594345 196.1233881 92.22272942 196.431599 97.47372437 196.73458862 C113.09782477 197.99524762 113.09782477 197.99524762 127.38671875 193.05078125 C130.63488279 190.07420914 133.15644947 186.73838722 135.41992188 182.96777344 C136.9796897 180.42808216 138.94198312 178.35463521 140.984375 176.1953125 C141.83 175.1846875 142.675625 174.1740625 143.546875 173.1328125 C143.216875 172.4728125 142.886875 171.8128125 142.546875 171.1328125 C121.90848267 167.82047793 112.36576345 172.82540702 99.55371094 189.06982422 Z M-154.453125 204.1328125 C-154.453125 208.4228125 -154.453125 212.7128125 -154.453125 217.1328125 C-153.03833862 217.13897583 -153.03833862 217.13897583 -151.5949707 217.14526367 C-148.08118824 217.17230109 -144.56913818 217.22144091 -141.0559082 217.28540039 C-139.53811332 217.30853701 -138.02015887 217.32296598 -136.50219727 217.32836914 C-134.3142607 217.33769172 -132.12881813 217.37874401 -129.94140625 217.42578125 C-127.96974487 217.44934692 -127.96974487 217.44934692 -125.95825195 217.47338867 C-121.62770982 218.28809887 -120.23314383 219.79853952 -117.453125 223.1328125 C-116.71191406 223.92300781 -115.97070312 224.71320313 -115.20703125 225.52734375 C-114.48386719 226.32527344 -113.76070312 227.12320313 -113.015625 227.9453125 C-112.29503906 228.73550781 -111.57445312 229.52570313 -110.83203125 230.33984375 C-108.453125 233.1328125 -108.453125 233.1328125 -107.25643921 235.10832214 C-104.54470769 239.41173534 -104.54470769 239.41173534 -100.28227234 241.94685364 C-97.67960372 242.32382422 -95.18065694 242.45072912 -92.55078125 242.4765625 C-91.59602402 242.5031897 -90.64126678 242.52981689 -89.65757751 242.55725098 C-87.63815963 242.59765764 -85.61821035 242.61652201 -83.59838867 242.61523438 C-80.5478091 242.63262898 -77.52102947 242.77730465 -74.47460938 242.9296875 C-66.34766132 243.11482032 -59.25576984 243.21186433 -52.87841797 237.640625 C-49.59829903 234.32185671 -46.77155646 230.72671928 -43.94966125 227.01864624 C-41.34334371 223.73434121 -38.81115941 220.68642276 -34.53999329 219.68365479 C-32.32539768 219.47356048 -30.17343634 219.43923337 -27.94921875 219.46875 C-27.14831314 219.46396637 -26.34740753 219.45918274 -25.52223206 219.45425415 C-23.83714827 219.45086643 -22.15199775 219.45998983 -20.46704102 219.48095703 C-17.8938517 219.50777887 -15.3250092 219.48115776 -12.75195312 219.44921875 C-11.10936542 219.45252237 -9.46678041 219.45892761 -7.82421875 219.46875 C-7.05951767 219.45862885 -6.29481659 219.44850769 -5.50694275 219.43807983 C-1.56252329 219.52430057 0.28535194 219.91707127 3.36401367 222.45678711 C4.44453003 223.78141968 4.44453003 223.78141968 5.546875 225.1328125 C6.12276367 225.73375732 6.69865234 226.33470215 7.29199219 226.95385742 C8.9626813 228.74046439 10.63109287 230.52912879 12.296875 232.3203125 C12.88597656 232.94873047 13.47507813 233.57714844 14.08203125 234.22460938 C14.64277344 234.82724609 15.20351562 235.42988281 15.78125 236.05078125 C16.28881836 236.59500732 16.79638672 237.1392334 17.31933594 237.69995117 C18.546875 239.1328125 18.546875 239.1328125 19.546875 241.1328125 C46.41832245 244.82279999 46.41832245 244.82279999 70.78125 236.75 C75.08608639 232.66600097 78.72604947 228.17210995 81.95507812 223.19580078 C83.75858835 220.8584294 84.75139764 220.04937747 87.546875 219.1328125 C91.96457762 218.75604687 96.38697213 218.8035184 100.81860352 218.81713867 C102.97398516 218.82029727 105.12799113 218.79682823 107.28320312 218.77148438 C108.66145661 218.76921094 110.03971377 218.76850809 111.41796875 218.76953125 C112.66505615 218.76655029 113.91214355 218.76356934 115.19702148 218.76049805 C120.14804212 219.31077182 123.20760818 221.41781961 126.44921875 225.09375 C127.19655273 225.92519531 127.19655273 225.92519531 127.95898438 226.7734375 C128.46236328 227.34578125 128.96574219 227.918125 129.484375 228.5078125 C133.26566445 232.78188934 137.07591241 236.5746992 141.546875 240.1328125 C143.526875 237.8228125 145.506875 235.5128125 147.546875 233.1328125 C138.17598707 223.56033109 138.17598707 223.56033109 128.23046875 214.59765625 C126.546875 213.1328125 126.546875 213.1328125 124.95214844 211.08544922 C121.61179003 208.37369663 118.50943333 208.46699873 114.37890625 208.42578125 C113.58465744 208.41009598 112.79040863 208.39441071 111.97209167 208.37825012 C110.29198286 208.35365031 108.61168199 208.3400469 106.93139648 208.33666992 C104.3825655 208.32045999 101.84212568 208.23510209 99.29492188 208.14648438 C90.48941121 207.88393806 90.48941121 207.88393806 82.50976562 211.06420898 C80.27508599 213.3064506 78.43233363 215.59679663 76.546875 218.1328125 C75.20177356 219.39462779 73.83085267 220.63024628 72.421875 221.8203125 C71.84179688 222.31917969 71.26171875 222.81804687 70.6640625 223.33203125 C69.61605469 224.22341797 69.61605469 224.22341797 68.546875 225.1328125 C68.07738434 225.61472549 67.60789368 226.09663849 67.12417603 226.59315491 C63.21002317 230.39651892 60.44849645 231.83016936 54.98718262 231.9664917 C54.1921936 231.95434631 53.39720459 231.94220093 52.578125 231.9296875 C51.7389856 231.93542786 50.89984619 231.94116821 50.03527832 231.94708252 C48.27039879 231.9511449 46.50542726 231.94021685 44.74072266 231.91503906 C42.05294783 231.88288515 39.37118358 231.91478002 36.68359375 231.953125 C34.96092435 231.94915978 33.23825866 231.94147163 31.515625 231.9296875 C30.32314148 231.94790558 30.32314148 231.94790558 29.10656738 231.9664917 C23.69642739 231.83144674 20.91544386 230.43598878 17.01153564 226.69577026 C14.83424958 224.37236097 12.77770676 222.00141276 10.796875 219.5078125 C10.05953125 218.58742188 9.3221875 217.66703125 8.5625 216.71875 C6.546875 214.1328125 6.546875 214.1328125 5.48486328 212.02197266 C2.33736359 208.95377505 -1.23489582 209.40392044 -5.4765625 209.3203125 C-6.37371979 209.29751221 -7.27087708 209.27471191 -8.19522095 209.2512207 C-10.09984503 209.21341343 -12.00473098 209.1872814 -13.90966797 209.171875 C-16.78709223 209.13336171 -19.65265092 209.00958621 -22.52734375 208.8828125 C-34.14349382 208.59636087 -34.14349382 208.59636087 -44.01885986 214.04301453 C-46.12769863 216.14059922 -48.13504786 218.2991723 -50.08105469 220.54849243 C-55.39801835 226.68795347 -60.28678904 231.38304115 -68.57122803 232.07229614 C-71.56721887 232.1804295 -74.53930219 232.1469975 -77.53466797 232.03149414 C-79.84669096 231.94461484 -82.15132717 231.92896058 -84.46484375 231.92382812 C-85.94798842 231.89993547 -87.43107579 231.87208349 -88.9140625 231.83984375 C-89.59745697 231.8322554 -90.28085144 231.82466705 -90.98495483 231.81684875 C-95.70786801 231.60629485 -98.110232 230.43154278 -101.453125 227.1328125 C-103.16129877 224.92756566 -104.76418809 222.74624843 -106.328125 220.4453125 C-107.56259719 218.65392045 -108.80158156 216.87407777 -110.09057617 215.12133789 C-111.453125 213.1328125 -111.453125 213.1328125 -112.68481445 210.68920898 C-114.37604315 207.77102736 -115.68120419 206.08677633 -118.453125 204.1328125 C-124.63415136 203.01041977 -130.63984725 203.28242788 -136.890625 203.5703125 C-138.59299335 203.61549952 -140.29547663 203.65655677 -141.99804688 203.69335938 C-146.15259344 203.7921253 -150.301591 203.94715029 -154.453125 204.1328125 Z " fill="#000000" transform="translate(181.453125,127.8671875)"/>
</svg>
